Manrope-ExtraBold.ufo
<glyph name="exclam" format="2">
  <advance width="376"/>
  <unicode hex="0021"/>
  <note>
exclam
</note>
  <outline>
    <contour>
      <point x="120" y="120" type="line"/>
      <point x="120" y="0" type="line"/>
      <point x="256" y="0" type="line"/>
      <point x="256" y="120" type="line"/>
    </contour>
    <component base="idotless" xOffset="40" yOffset="180"/>
  </outline>
</glyph>
<glyph name="dollar" format="2">
  <advance width="608"/>
  <unicode hex="0024"/>
  <note>
dollar
</note>
  <outline>
    <contour>
      <point x="309" y="-15" type="curve" smooth="yes"/>
      <point x="352" y="-15"/>
      <point x="406" y="-3"/>
      <point x="441" y="15" type="curve" smooth="yes"/>
      <point x="509" y="50"/>
      <point x="548" y="124"/>
      <point x="548" y="190" type="curve" smooth="yes"/>
      <point x="548" y="243"/>
      <point x="532" y="288"/>
      <point x="495" y="326" type="curve" smooth="yes"/>
      <point x="451" y="372"/>
      <point x="408" y="387"/>
      <point x="304" y="433" type="curve" smooth="yes"/>
      <point x="268" y="449"/>
      <point x="236" y="463"/>
      <point x="222" y="489" type="curve" smooth="yes"/>
      <point x="215" y="501"/>
      <point x="214" y="516"/>
      <point x="214" y="526" type="curve" smooth="yes"/>
      <point x="214" y="545"/>
      <point x="220" y="563"/>
      <point x="233" y="576" type="curve"/>
      <point x="249" y="595"/>
      <point x="275" y="606"/>
      <point x="301" y="606" type="curve" smooth="yes"/>
      <point x="336" y="606"/>
      <point x="361" y="586"/>
      <point x="378" y="561" type="curve"/>
      <point x="388" y="541"/>
      <point x="391" y="526"/>
      <point x="391" y="510" type="curve"/>
      <point x="535" y="511" type="line"/>
      <point x="533" y="560"/>
      <point x="520" y="599"/>
      <point x="493" y="639" type="curve"/>
      <point x="450" y="701"/>
      <point x="378" y="735"/>
      <point x="300" y="735" type="curve" smooth="yes"/>
      <point x="239" y="735"/>
      <point x="179" y="715"/>
      <point x="136" y="676" type="curve"/>
      <point x="96" y="639"/>
      <point x="70" y="579"/>
      <point x="70" y="524" type="curve" smooth="yes"/>
      <point x="70" y="484"/>
      <point x="85" y="440"/>
      <point x="104" y="413" type="curve"/>
      <point x="132" y="372"/>
      <point x="169" y="347"/>
      <point x="202" y="329" type="curve"/>
      <point x="253" y="299"/>
      <point x="317" y="287"/>
      <point x="368" y="253" type="curve" smooth="yes"/>
      <point x="398" y="233"/>
      <point x="404" y="217"/>
      <point x="404" y="194" type="curve" smooth="yes"/>
      <point x="404" y="167"/>
      <point x="395" y="149"/>
      <point x="373" y="134" type="curve"/>
      <point x="353" y="119"/>
      <point x="323" y="114"/>
      <point x="302" y="114" type="curve" smooth="yes"/>
      <point x="265" y="114"/>
      <point x="234" y="135"/>
      <point x="213" y="168" type="curve"/>
      <point x="203" y="183"/>
      <point x="198" y="209"/>
      <point x="198" y="222" type="curve"/>
      <point x="60" y="222" type="line"/>
      <point x="60" y="176"/>
      <point x="72" y="134"/>
      <point x="96" y="96" type="curve"/>
      <point x="138" y="24"/>
      <point x="219" y="-15"/>
    </contour>
    <contour>
      <point x="236" y="-100" type="line"/>
      <point x="372" y="-100" type="line"/>
      <point x="372" y="20" type="line"/>
      <point x="236" y="20" type="line"/>
    </contour>
    <contour>
      <point x="236" y="699" type="line"/>
      <point x="372" y="699" type="line"/>
      <point x="372" y="819" type="line"/>
      <point x="236" y="819" type="line"/>
    </contour>
  </outline>
</glyph>
<glyph name="ampersand" format="2">
  <advance width="674"/>
  <unicode hex="0026"/>
  <note>
ampersand
</note>
  <outline>
    <contour>
      <point x="311" y="-15" type="curve" smooth="yes"/>
      <point x="335" y="-15"/>
      <point x="357" y="-14"/>
      <point x="385" y="-10" type="curve" smooth="yes"/>
      <point x="429" y="-3"/>
      <point x="473" y="16"/>
      <point x="511" y="49" type="curve"/>
      <point x="577" y="-14" type="line"/>
      <point x="664" y="79" type="line"/>
      <point x="576" y="160" type="line"/>
      <point x="581" y="182"/>
      <point x="582" y="219"/>
      <point x="582" y="250" type="curve" smooth="yes"/>
      <point x="582" y="387" type="line"/>
      <point x="464" y="387" type="line"/>
      <point x="464" y="305" type="line"/>
      <point x="464" y="292"/>
      <point x="464" y="275"/>
      <point x="464" y="264" type="curve"/>
      <point x="299" y="417" type="line" smooth="yes"/>
      <point x="280" y="434"/>
      <point x="262" y="451"/>
      <point x="251" y="463" type="curve" smooth="yes"/>
      <point x="235" y="480"/>
      <point x="221" y="495"/>
      <point x="221" y="526" type="curve" smooth="yes"/>
      <point x="221" y="560"/>
      <point x="235" y="582"/>
      <point x="265" y="596" type="curve" smooth="yes"/>
      <point x="280" y="603"/>
      <point x="296" y="606"/>
      <point x="315" y="606" type="curve" smooth="yes"/>
      <point x="339" y="606"/>
      <point x="366" y="602"/>
      <point x="385" y="583" type="curve" smooth="yes"/>
      <point x="394" y="574"/>
      <point x="402" y="561"/>
      <point x="406" y="547" type="curve"/>
      <point x="541" y="574" type="line"/>
      <point x="533" y="607"/>
      <point x="516" y="641"/>
      <point x="490" y="668" type="curve" smooth="yes"/>
      <point x="448" y="714"/>
      <point x="385" y="733"/>
      <point x="319" y="733" type="curve" smooth="yes"/>
      <point x="286" y="733"/>
      <point x="251" y="730"/>
      <point x="217" y="718" type="curve" smooth="yes"/>
      <point x="135" y="689"/>
      <point x="84" y="615"/>
      <point x="84" y="528" type="curve" smooth="yes"/>
      <point x="84" y="475"/>
      <point x="102" y="438"/>
      <point x="138" y="397" type="curve"/>
      <point x="125" y="387"/>
      <point x="112" y="376"/>
      <point x="101" y="363" type="curve" smooth="yes"/>
      <point x="66" y="322"/>
      <point x="50" y="268"/>
      <point x="50" y="211" type="curve" smooth="yes"/>
      <point x="52" y="153"/>
      <point x="68" y="103"/>
      <point x="107" y="60" type="curve" smooth="yes"/>
      <point x="155" y="8"/>
      <point x="231" y="-15"/>
    </contour>
    <contour>
      <point x="317" y="114" type="curve" smooth="yes"/>
      <point x="280" y="114"/>
      <point x="232" y="125"/>
      <point x="210" y="153" type="curve" smooth="yes"/>
      <point x="197" y="170"/>
      <point x="187" y="190"/>
      <point x="187" y="219" type="curve" smooth="yes"/>
      <point x="187" y="243"/>
      <point x="193" y="262"/>
      <point x="204" y="277" type="curve" smooth="yes"/>
      <point x="212" y="287"/>
      <point x="223" y="296"/>
      <point x="237" y="302" type="curve"/>
      <point x="413" y="140" type="line"/>
      <point x="399" y="130"/>
      <point x="381" y="122"/>
      <point x="360" y="118" type="curve" smooth="yes"/>
      <point x="346" y="115"/>
      <point x="332" y="114"/>
    </contour>
  </outline>
</glyph>
<glyph name="quotesingle" format="2">
  <advance width="276"/>
  <unicode hex="0027"/>
  <note>
quotesingle
</note>
  <outline>
    <contour>
      <point x="60" y="720" type="line"/>
      <point x="60" y="540" type="line"/>
      <point x="196" y="540" type="line"/>
      <point x="196" y="720" type="line"/>
    </contour>
  </outline>
</glyph>
<glyph name="parenleft" format="2">
  <advance width="462"/>
  <unicode hex="0028"/>
  <note>
parenleft
</note>
  <outline>
    <contour>
      <point x="422" y="780" type="line"/>
      <point x="300" y="633"/>
      <point x="264" y="489"/>
      <point x="263" y="330" type="curve" smooth="yes"/>
      <point x="264" y="171"/>
      <point x="300" y="27"/>
      <point x="422" y="-120" type="curve"/>
      <point x="321" y="-194" type="line"/>
      <point x="205" y="-58"/>
      <point x="136" y="143"/>
      <point x="140" y="330" type="curve" smooth="yes"/>
      <point x="136" y="517"/>
      <point x="205" y="718"/>
      <point x="321" y="854" type="curve"/>
    </contour>
  </outline>
</glyph>
<glyph name="asterisk" format="2">
  <advance width="474"/>
  <unicode hex="002A"/>
  <note>
asterisk
</note>
  <outline>
    <contour>
      <point x="414" y="537" type="line"/>
      <point x="377" y="651" type="line"/>
      <point x="273" y="606" type="line"/>
      <point x="282" y="720" type="line"/>
      <point x="162" y="720" type="line"/>
      <point x="171" y="606" type="line"/>
      <point x="67" y="651" type="line"/>
      <point x="30" y="537" type="line"/>
      <point x="140" y="509" type="line"/>
      <point x="66" y="425" type="line"/>
      <point x="163" y="355" type="line"/>
      <point x="222" y="450" type="line"/>
      <point x="281" y="355" type="line"/>
      <point x="378" y="425" type="line"/>
      <point x="304" y="509" type="line"/>
    </contour>
  </outline>
</glyph>
<glyph name="plus" format="2">
  <advance width="570"/>
  <unicode hex="002B"/>
  <note>
plus
</note>
  <outline>
    <contour>
      <point x="60" y="413" type="line"/>
      <point x="60" y="308" type="line"/>
      <point x="510" y="308" type="line"/>
      <point x="510" y="413" type="line"/>
    </contour>
    <contour>
      <point x="233" y="585" type="line"/>
      <point x="233" y="135" type="line"/>
      <point x="338" y="135" type="line"/>
      <point x="338" y="585" type="line"/>
    </contour>
  </outline>
</glyph>
<glyph name="comma" format="2">
  <advance width="316"/>
  <unicode hex="002C"/>
  <note>
comma
</note>
  <outline>
    <contour>
      <point x="196" y="0" type="curve"/>
      <point x="196" y="136" type="line"/>
      <point x="60" y="136" type="line"/>
      <point x="60" y="0" type="line"/>
      <point x="130" y="0" type="line"/>
      <point x="137" y="-48"/>
      <point x="116" y="-82"/>
      <point x="68" y="-78" type="curve"/>
      <point x="60" y="-135" type="line"/>
      <point x="152" y="-150"/>
      <point x="196" y="-96"/>
    </contour>
  </outline>
</glyph>
<glyph name="hyphen" format="2">
  <advance width="420"/>
  <unicode hex="002D"/>
  <note>
hyphen
</note>
  <outline>
    <contour>
      <point x="60" y="368" type="line"/>
      <point x="60" y="263" type="line"/>
      <point x="360" y="263" type="line"/>
      <point x="360" y="368" type="line"/>
    </contour>
  </outline>
</glyph>
<glyph name="period" format="2">
  <advance width="320"/>
  <unicode hex="002E"/>
  <note>
period
</note>
  <outline>
    <contour>
      <point x="92" y="136" type="line"/>
      <point x="92" y="0" type="line"/>
      <point x="228" y="0" type="line"/>
      <point x="228" y="136" type="line"/>
    </contour>
  </outline>
</glyph>
<glyph name="zero" format="2">
  <advance width="674"/>
  <unicode hex="0030"/>
  <outline>
    <contour>
      <point x="337" y="-14" type="curve" smooth="yes"/>
      <point x="261" y="-14"/>
      <point x="182" y="13"/>
      <point x="131" y="73" type="curve" smooth="yes"/>
      <point x="80" y="137"/>
      <point x="70" y="190"/>
      <point x="70" y="272" type="curve" smooth="yes"/>
      <point x="70" y="449" type="line" smooth="yes"/>
      <point x="70" y="529"/>
      <point x="78" y="582"/>
      <point x="131" y="648" type="curve" smooth="yes"/>
      <point x="178" y="704"/>
      <point x="256" y="737"/>
      <point x="337" y="735" type="curve" smooth="yes"/>
      <point x="413" y="737"/>
      <point x="491" y="709"/>
      <point x="543" y="648" type="curve" smooth="yes"/>
      <point x="595" y="587"/>
      <point x="604" y="531"/>
      <point x="604" y="449" type="curve" smooth="yes"/>
      <point x="604" y="272" type="line" smooth="yes"/>
      <point x="604" y="194"/>
      <point x="595" y="135"/>
      <point x="543" y="73" type="curve" smooth="yes"/>
      <point x="492" y="14"/>
      <point x="418" y="-14"/>
    </contour>
    <contour>
      <point x="337" y="607" type="curve" smooth="yes"/>
      <point x="292" y="608"/>
      <point x="248" y="581"/>
      <point x="226" y="542" type="curve" smooth="yes"/>
      <point x="210" y="515"/>
      <point x="209" y="487"/>
      <point x="209" y="449" type="curve" smooth="yes"/>
      <point x="209" y="272" type="line" smooth="yes"/>
      <point x="209" y="238"/>
      <point x="208" y="204"/>
      <point x="229" y="173" type="curve" smooth="yes"/>
      <point x="253" y="137"/>
      <point x="294" y="113"/>
      <point x="337" y="114" type="curve" smooth="yes"/>
      <point x="381" y="113"/>
      <point x="423" y="137"/>
      <point x="446" y="174" type="curve" smooth="yes"/>
      <point x="466" y="203"/>
      <point x="465" y="229"/>
      <point x="465" y="272" type="curve" smooth="yes"/>
      <point x="465" y="449" type="line" smooth="yes"/>
      <point x="465" y="485"/>
      <point x="467" y="507"/>
      <point x="450" y="541" type="curve" smooth="yes"/>
      <point x="428" y="581"/>
      <point x="383" y="608"/>
    </contour>
  </outline>
</glyph>
<glyph name="one" format="2">
  <advance width="454"/>
  <unicode hex="0031"/>
  <note>
one
</note>
  <outline>
    <contour>
      <point x="195" y="720" type="line"/>
      <point x="60" y="639" type="line"/>
      <point x="60" y="489" type="line"/>
      <point x="195" y="572" type="line"/>
      <point x="195" y="0" type="line"/>
      <point x="334" y="0" type="line"/>
      <point x="334" y="720" type="line"/>
    </contour>
  </outline>
</glyph>
<glyph name="two" format="2">
  <advance width="604"/>
  <unicode hex="0032"/>
  <note>
two
</note>
  <outline>
    <contour>
      <point x="50" y="1" type="line"/>
      <point x="554" y="1" type="line"/>
      <point x="554" y="129" type="line"/>
      <point x="216" y="129" type="line"/>
      <point x="227" y="99" type="line"/>
      <point x="422" y="270" type="line" smooth="yes"/>
      <point x="508" y="345"/>
      <point x="554" y="384"/>
      <point x="554" y="491" type="curve" smooth="yes"/>
      <point x="554" y="636"/>
      <point x="449" y="735"/>
      <point x="308" y="735" type="curve" smooth="yes"/>
      <point x="154" y="735"/>
      <point x="50" y="642"/>
      <point x="50" y="494" type="curve"/>
      <point x="190" y="494" type="line"/>
      <point x="188" y="554"/>
      <point x="236" y="607"/>
      <point x="305" y="607" type="curve" smooth="yes"/>
      <point x="371" y="607"/>
      <point x="414" y="559"/>
      <point x="414" y="493" type="curve" smooth="yes"/>
      <point x="414" y="462"/>
      <point x="397" y="427"/>
      <point x="352" y="387" type="curve" smooth="yes"/>
      <point x="50" y="119" type="line"/>
    </contour>
  </outline>
</glyph>
<glyph name="three" format="2">
  <advance width="591"/>
  <unicode hex="0033"/>
  <note>
three
</note>
  <outline>
    <contour>
      <point x="491" y="368" type="curve"/>
      <point x="462" y="406"/>
      <point x="423" y="436"/>
      <point x="372" y="451" type="curve"/>
      <point x="518" y="592" type="line"/>
      <point x="518" y="720" type="line"/>
      <point x="68" y="720" type="line"/>
      <point x="68" y="592" type="line"/>
      <point x="357" y="592" type="line"/>
      <point x="163" y="431" type="line"/>
      <point x="224" y="324" type="line"/>
      <point x="241" y="334"/>
      <point x="260" y="340"/>
      <point x="280" y="340" type="curve" smooth="yes"/>
      <point x="310" y="340"/>
      <point x="338" y="331"/>
      <point x="360" y="309" type="curve" smooth="yes"/>
      <point x="382" y="287"/>
      <point x="393" y="257"/>
      <point x="393" y="227" type="curve" smooth="yes"/>
      <point x="393" y="198"/>
      <point x="381" y="169"/>
      <point x="360" y="148" type="curve"/>
      <point x="339" y="127"/>
      <point x="310" y="115"/>
      <point x="280" y="115" type="curve" smooth="yes"/>
      <point x="250" y="115"/>
      <point x="221" y="127"/>
      <point x="200" y="148" type="curve"/>
      <point x="186" y="162"/>
      <point x="177" y="179"/>
      <point x="172" y="198" type="curve"/>
      <point x="40" y="163" type="line"/>
      <point x="52" y="121"/>
      <point x="75" y="83"/>
      <point x="106" y="54" type="curve"/>
      <point x="153" y="10"/>
      <point x="217" y="-15"/>
      <point x="280" y="-13" type="curve" smooth="yes"/>
      <point x="343" y="-11"/>
      <point x="407" y="9"/>
      <point x="454" y="53" type="curve"/>
      <point x="501" y="97"/>
      <point x="528" y="162"/>
      <point x="531" y="227" type="curve" smooth="yes"/>
      <point x="533" y="277"/>
      <point x="518" y="326"/>
    </contour>
  </outline>
</glyph>
<glyph name="four" format="2">
  <advance width="615"/>
  <unicode hex="0034"/>
  <note>
four
</note>
  <outline>
    <contour>
      <point x="501" y="239" type="line"/>
      <point x="501" y="419" type="line"/>
      <point x="363" y="419" type="line"/>
      <point x="363" y="239" type="line"/>
      <point x="206" y="239" type="line"/>
      <point x="433" y="720" type="line"/>
      <point x="277" y="720" type="line"/>
      <point x="50" y="239" type="line"/>
      <point x="50" y="112" type="line"/>
      <point x="363" y="112" type="line"/>
      <point x="363" y="0" type="line"/>
      <point x="501" y="0" type="line"/>
      <point x="501" y="112" type="line"/>
      <point x="565" y="112" type="line"/>
      <point x="565" y="239" type="line"/>
    </contour>
  </outline>
</glyph>
<glyph name="five" format="2">
  <advance width="589"/>
  <unicode hex="0035"/>
  <note>
five
</note>
  <outline>
    <contour>
      <point x="98" y="720" type="line"/>
      <point x="76" y="337" type="line"/>
      <point x="191" y="302" type="line"/>
      <point x="207" y="317"/>
      <point x="238" y="340"/>
      <point x="289" y="339" type="curve" smooth="yes"/>
      <point x="319" y="338"/>
      <point x="348" y="327"/>
      <point x="369" y="306" type="curve"/>
      <point x="390" y="285"/>
      <point x="402" y="256"/>
      <point x="402" y="227" type="curve" smooth="yes"/>
      <point x="402" y="197"/>
      <point x="390" y="168"/>
      <point x="369" y="147" type="curve"/>
      <point x="348" y="127"/>
      <point x="319" y="115"/>
      <point x="289" y="115" type="curve" smooth="yes"/>
      <point x="260" y="115"/>
      <point x="231" y="127"/>
      <point x="210" y="148" type="curve"/>
      <point x="196" y="161"/>
      <point x="186" y="179"/>
      <point x="181" y="198" type="curve"/>
      <point x="50" y="163" type="line"/>
      <point x="62" y="121"/>
      <point x="85" y="83"/>
      <point x="116" y="54" type="curve"/>
      <point x="162" y="10"/>
      <point x="227" y="-15"/>
      <point x="289" y="-13" type="curve" smooth="yes"/>
      <point x="352" y="-11"/>
      <point x="416" y="9"/>
      <point x="463" y="53" type="curve"/>
      <point x="509" y="97"/>
      <point x="538" y="162"/>
      <point x="539" y="227" type="curve" smooth="yes"/>
      <point x="540" y="293"/>
      <point x="519" y="356"/>
      <point x="466" y="404" type="curve"/>
      <point x="422" y="441"/>
      <point x="364" y="461"/>
      <point x="309" y="461" type="curve" smooth="yes"/>
      <point x="278" y="461"/>
      <point x="241" y="453"/>
      <point x="209" y="436" type="curve"/>
      <point x="218" y="593" type="line"/>
      <point x="491" y="593" type="line"/>
      <point x="491" y="720" type="line"/>
    </contour>
  </outline>
</glyph>
<glyph name="six" format="2">
  <advance width="622"/>
  <unicode hex="0036"/>
  <note>
six
</note>
  <outline>
    <contour>
      <point x="524" y="666" type="line"/>
      <point x="471" y="715"/>
      <point x="407" y="735"/>
      <point x="337" y="734" type="curve" smooth="yes"/>
      <point x="260" y="733"/>
      <point x="185" y="711"/>
      <point x="131" y="647" type="curve"/>
      <point x="81" y="588"/>
      <point x="70" y="529"/>
      <point x="70" y="449" type="curve"/>
      <point x="70" y="272" type="line"/>
      <point x="70" y="183"/>
      <point x="82" y="116"/>
      <point x="148" y="54" type="curve"/>
      <point x="194" y="9"/>
      <point x="259" y="-15"/>
      <point x="321" y="-13" type="curve"/>
      <point x="384" y="-15"/>
      <point x="449" y="9"/>
      <point x="495" y="53" type="curve"/>
      <point x="542" y="97"/>
      <point x="571" y="162"/>
      <point x="572" y="227" type="curve" smooth="yes"/>
      <point x="573" y="298"/>
      <point x="551" y="356"/>
      <point x="499" y="404" type="curve"/>
      <point x="455" y="442"/>
      <point x="397" y="462"/>
      <point x="342" y="462" type="curve" smooth="yes"/>
      <point x="294" y="462"/>
      <point x="247" y="446"/>
      <point x="209" y="417" type="curve"/>
      <point x="209" y="449" type="line"/>
      <point x="209" y="479"/>
      <point x="208" y="503"/>
      <point x="219" y="528" type="curve"/>
      <point x="237" y="575"/>
      <point x="286" y="607"/>
      <point x="337" y="607" type="curve" smooth="yes"/>
      <point x="370" y="607"/>
      <point x="403" y="593"/>
      <point x="427" y="569" type="curve"/>
    </contour>
    <contour>
      <point x="321" y="115" type="curve" smooth="yes"/>
      <point x="292" y="116"/>
      <point x="263" y="127"/>
      <point x="242" y="148" type="curve" smooth="yes"/>
      <point x="221" y="168"/>
      <point x="209" y="198"/>
      <point x="209" y="227" type="curve" smooth="yes"/>
      <point x="209" y="257"/>
      <point x="221" y="286"/>
      <point x="242" y="307" type="curve" smooth="yes"/>
      <point x="263" y="328"/>
      <point x="292" y="340"/>
      <point x="322" y="340" type="curve" smooth="yes"/>
      <point x="351" y="340"/>
      <point x="380" y="328"/>
      <point x="401" y="307" type="curve" smooth="yes"/>
      <point x="422" y="286"/>
      <point x="434" y="257"/>
      <point x="434" y="227" type="curve" smooth="yes"/>
      <point x="434" y="197"/>
      <point x="422" y="168"/>
      <point x="401" y="148" type="curve" smooth="yes"/>
      <point x="380" y="127"/>
      <point x="351" y="114"/>
    </contour>
  </outline>
</glyph>
<glyph name="eight" format="2">
  <advance width="623"/>
  <unicode hex="0038"/>
  <note>
eight
</note>
  <outline>
    <contour>
      <point x="79" y="528" type="curve" smooth="yes"/>
      <point x="78" y="502"/>
      <point x="84" y="472"/>
      <point x="97" y="442" type="curve" smooth="yes"/>
      <point x="106" y="422"/>
      <point x="120" y="404"/>
      <point x="135" y="387" type="curve"/>
      <point x="110" y="365"/>
      <point x="90" y="337"/>
      <point x="78" y="308" type="curve" smooth="yes"/>
      <point x="65" y="276"/>
      <point x="60" y="245"/>
      <point x="60" y="216" type="curve" smooth="yes"/>
      <point x="60" y="149"/>
      <point x="89" y="83"/>
      <point x="140" y="41" type="curve" smooth="yes"/>
      <point x="184" y="4"/>
      <point x="249" y="-15"/>
      <point x="311" y="-15" type="curve" smooth="yes"/>
      <point x="371" y="-15"/>
      <point x="435" y="1"/>
      <point x="483" y="41" type="curve" smooth="yes"/>
      <point x="536" y="84"/>
      <point x="561" y="146"/>
      <point x="563" y="216" type="curve" smooth="yes"/>
      <point x="564" y="245"/>
      <point x="558" y="276"/>
      <point x="545" y="308" type="curve" smooth="yes"/>
      <point x="533" y="337"/>
      <point x="513" y="365"/>
      <point x="488" y="387" type="curve"/>
      <point x="503" y="404"/>
      <point x="516" y="422"/>
      <point x="525" y="442" type="curve" smooth="yes"/>
      <point x="539" y="472"/>
      <point x="543" y="502"/>
      <point x="543" y="528" type="curve" smooth="yes"/>
      <point x="543" y="592"/>
      <point x="515" y="653"/>
      <point x="464" y="690" type="curve" smooth="yes"/>
      <point x="423" y="722"/>
      <point x="368" y="735"/>
      <point x="311" y="735" type="curve" smooth="yes"/>
      <point x="258" y="735"/>
      <point x="202" y="723"/>
      <point x="159" y="690" type="curve" smooth="yes"/>
      <point x="106" y="652"/>
      <point x="82" y="596"/>
    </contour>
    <contour>
      <point x="311" y="608" type="curve" smooth="yes"/>
      <point x="336" y="609"/>
      <point x="360" y="601"/>
      <point x="376" y="587" type="curve" smooth="yes"/>
      <point x="392" y="573"/>
      <point x="400" y="552"/>
      <point x="399" y="528" type="curve" smooth="yes"/>
      <point x="398" y="504"/>
      <point x="392" y="483"/>
      <point x="376" y="469" type="curve" smooth="yes"/>
      <point x="360" y="455"/>
      <point x="336" y="449"/>
      <point x="311" y="449" type="curve" smooth="yes"/>
      <point x="287" y="449"/>
      <point x="263" y="455"/>
      <point x="247" y="469" type="curve" smooth="yes"/>
      <point x="230" y="483"/>
      <point x="223" y="504"/>
      <point x="223" y="528" type="curve" smooth="yes"/>
      <point x="223" y="552"/>
      <point x="230" y="573"/>
      <point x="247" y="587" type="curve" smooth="yes"/>
      <point x="263" y="601"/>
      <point x="287" y="607"/>
    </contour>
    <contour>
      <point x="311" y="320" type="curve" smooth="yes"/>
      <point x="341" y="320"/>
      <point x="371" y="311"/>
      <point x="390" y="292" type="curve" smooth="yes"/>
      <point x="410" y="274"/>
      <point x="419" y="246"/>
      <point x="419" y="216" type="curve" smooth="yes"/>
      <point x="419" y="187"/>
      <point x="410" y="159"/>
      <point x="390" y="140" type="curve" smooth="yes"/>
      <point x="371" y="122"/>
      <point x="341" y="113"/>
      <point x="311" y="113" type="curve" smooth="yes"/>
      <point x="281" y="113"/>
      <point x="252" y="122"/>
      <point x="232" y="140" type="curve" smooth="yes"/>
      <point x="212" y="159"/>
      <point x="204" y="187"/>
      <point x="204" y="216" type="curve" smooth="yes"/>
      <point x="204" y="246"/>
      <point x="212" y="274"/>
      <point x="232" y="292" type="curve" smooth="yes"/>
      <point x="252" y="311"/>
      <point x="281" y="320"/>
    </contour>
  </outline>
</glyph>
<glyph name="less" format="2">
  <advance width="645"/>
  <unicode hex="003C"/>
  <note>
less
</note>
  <outline>
    <contour>
      <point x="382" y="73" type="line"/>
      <point x="445" y="137" type="line"/>
      <point x="267" y="315" type="line"/>
      <point x="445" y="493" type="line"/>
      <point x="382" y="557" type="line"/>
      <point x="140" y="315" type="line"/>
    </contour>
  </outline>
</glyph>
<glyph name="equal" format="2">
  <advance width="750"/>
  <unicode hex="003D"/>
  <note>
equal
</note>
  <outline>
    <contour>
      <point x="120" y="510" type="line"/>
      <point x="630" y="510" type="line"/>
      <point x="630" y="405" type="line"/>
      <point x="120" y="405" type="line"/>
    </contour>
    <contour>
      <point x="120" y="315" type="line"/>
      <point x="630" y="315" type="line"/>
      <point x="630" y="210" type="line"/>
      <point x="120" y="210" type="line"/>
    </contour>
  </outline>
</glyph>
<glyph name="question" format="2">
  <advance width="563"/>
  <unicode hex="003F"/>
  <note>
question
</note>
  <outline>
    <contour>
      <point x="513" y="576"/>
      <point x="496" y="624"/>
      <point x="467" y="658" type="curve"/>
      <point x="423" y="712"/>
      <point x="352" y="734"/>
      <point x="276" y="734" type="curve" smooth="yes"/>
      <point x="230" y="734"/>
      <point x="182" y="720"/>
      <point x="144" y="695" type="curve"/>
      <point x="92" y="661"/>
      <point x="58" y="598"/>
      <point x="50" y="527" type="curve"/>
      <point x="194" y="527" type="line"/>
      <point x="193" y="553"/>
      <point x="202" y="575"/>
      <point x="221" y="589" type="curve"/>
      <point x="236" y="601"/>
      <point x="259" y="606"/>
      <point x="282" y="606" type="curve" smooth="yes"/>
      <point x="312" y="606"/>
      <point x="340" y="597"/>
      <point x="356" y="575" type="curve"/>
      <point x="366" y="562"/>
      <point x="369" y="545"/>
      <point x="369" y="527" type="curve" smooth="yes"/>
      <point x="369" y="492"/>
      <point x="362" y="465"/>
      <point x="335" y="435" type="curve"/>
      <point x="282" y="379"/>
      <point x="253" y="372"/>
      <point x="228" y="321" type="curve" smooth="yes"/>
      <point x="207" y="285"/>
      <point x="197" y="239"/>
      <point x="197" y="195" type="curve"/>
      <point x="341" y="195" type="line"/>
      <point x="341" y="232"/>
      <point x="342" y="244"/>
      <point x="361" y="275" type="curve" smooth="yes"/>
      <point x="376" y="298"/>
      <point x="397" y="316"/>
      <point x="428" y="349" type="curve"/>
      <point x="476" y="400"/>
      <point x="513" y="458"/>
      <point x="513" y="531" type="curve" smooth="yes"/>
    </contour>
    <contour>
      <point x="198" y="0" type="line"/>
      <point x="341" y="0" type="line"/>
      <point x="341" y="144" type="line"/>
      <point x="198" y="144" type="line"/>
    </contour>
  </outline>
</glyph>
<glyph name="at" format="2">
  <advance width="917"/>
  <unicode hex="0040"/>
  <note>
at
</note>
  <outline>
    <contour>
      <point x="456" y="-105" type="curve" smooth="yes"/>
      <point x="506" y="-105"/>
      <point x="555" y="-98"/>
      <point x="600" y="-83" type="curve"/>
      <point x="566" y="17" type="line"/>
      <point x="533" y="6"/>
      <point x="497" y="0"/>
      <point x="461" y="0" type="curve" smooth="yes"/>
      <point x="378" y="0"/>
      <point x="297" y="26"/>
      <point x="243" y="93" type="curve" smooth="yes"/>
      <point x="209" y="137"/>
      <point x="194" y="196"/>
      <point x="192" y="257" type="curve" smooth="yes"/>
      <point x="189" y="348"/>
      <point x="216" y="440"/>
      <point x="285" y="488" type="curve" smooth="yes"/>
      <point x="332" y="523"/>
      <point x="396" y="540"/>
      <point x="460" y="540" type="curve" smooth="yes"/>
      <point x="548" y="540"/>
      <point x="633" y="506"/>
      <point x="681" y="438" type="curve" smooth="yes"/>
      <point x="712" y="391"/>
      <point x="725" y="332"/>
      <point x="724" y="270" type="curve" smooth="yes"/>
      <point x="724" y="239"/>
      <point x="720" y="202"/>
      <point x="705" y="181" type="curve" smooth="yes"/>
      <point x="697" y="170"/>
      <point x="689" y="165"/>
      <point x="676" y="165" type="curve" smooth="yes"/>
      <point x="662" y="165"/>
      <point x="647" y="170"/>
      <point x="642" y="179" type="curve" smooth="yes"/>
      <point x="636" y="188"/>
      <point x="631" y="203"/>
      <point x="631" y="224" type="curve"/>
      <point x="633" y="450" type="line"/>
      <point x="552" y="450" type="line"/>
      <point x="552" y="434" type="line"/>
      <point x="523" y="452"/>
      <point x="483" y="464"/>
      <point x="449" y="464" type="curve" smooth="yes"/>
      <point x="402" y="464"/>
      <point x="357" y="448"/>
      <point x="321" y="419" type="curve"/>
      <point x="277" y="381"/>
      <point x="259" y="330"/>
      <point x="257" y="270" type="curve" smooth="yes"/>
      <point x="259" y="213"/>
      <point x="275" y="161"/>
      <point x="321" y="121" type="curve"/>
      <point x="354" y="92"/>
      <point x="402" y="76"/>
      <point x="447" y="76" type="curve" smooth="yes"/>
      <point x="487" y="76"/>
      <point x="528" y="88"/>
      <point x="559" y="111" type="curve"/>
      <point x="570" y="98"/>
      <point x="584" y="86"/>
      <point x="599" y="78" type="curve" smooth="yes"/>
      <point x="621" y="66"/>
      <point x="654" y="59"/>
      <point x="681" y="59" type="curve" smooth="yes"/>
      <point x="711" y="59"/>
      <point x="744" y="71"/>
      <point x="767" y="91" type="curve" smooth="yes"/>
      <point x="814" y="131"/>
      <point x="835" y="198"/>
      <point x="837" y="270" type="curve" smooth="yes"/>
      <point x="835" y="347"/>
      <point x="817" y="430"/>
      <point x="770" y="499" type="curve" smooth="yes"/>
      <point x="700" y="598"/>
      <point x="588" y="645"/>
      <point x="450" y="645" type="curve" smooth="yes"/>
      <point x="371" y="645"/>
      <point x="284" y="620"/>
      <point x="222" y="576" type="curve" smooth="yes"/>
      <point x="123" y="506"/>
      <point x="74" y="378"/>
      <point x="80" y="253" type="curve" smooth="yes"/>
      <point x="82" y="176"/>
      <point x="104" y="92"/>
      <point x="157" y="26" type="curve" smooth="yes"/>
      <point x="228" y="-65"/>
      <point x="336" y="-105"/>
    </contour>
    <contour>
      <point x="455" y="182" type="curve" smooth="yes"/>
      <point x="434" y="182"/>
      <point x="413" y="186"/>
      <point x="394" y="203" type="curve"/>
      <point x="377" y="219"/>
      <point x="369" y="244"/>
      <point x="370" y="270" type="curve" smooth="yes"/>
      <point x="369" y="296"/>
      <point x="377" y="320"/>
      <point x="394" y="337" type="curve"/>
      <point x="410" y="351"/>
      <point x="432" y="359"/>
      <point x="459" y="358" type="curve" smooth="yes"/>
      <point x="485" y="358"/>
      <point x="514" y="345"/>
      <point x="525" y="323" type="curve"/>
      <point x="533" y="306"/>
      <point x="533" y="291"/>
      <point x="534" y="270" type="curve" smooth="yes"/>
      <point x="533" y="249"/>
      <point x="533" y="234"/>
      <point x="525" y="216" type="curve"/>
      <point x="514" y="195"/>
      <point x="489" y="182"/>
    </contour>
  </outline>
</glyph>
<glyph name="A" format="2">
  <advance width="683"/>
  <unicode hex="0041"/>
  <note>
A
</note>
  <outline>
    <contour>
      <point x="152" y="277" type="line"/>
      <point x="152" y="150" type="line"/>
      <point x="532" y="150" type="line"/>
      <point x="532" y="277" type="line"/>
    </contour>
    <component base="V" yScale="-1" xOffset="15" yOffset="720"/>
  </outline>
</glyph>
<glyph name="B" format="2">
  <advance width="637"/>
  <unicode hex="0042"/>
  <note>
B
</note>
  <outline>
    <contour>
      <point x="175" y="439" type="line"/>
      <point x="356" y="439" type="line" smooth="yes"/>
      <point x="386" y="439"/>
      <point x="404" y="448"/>
      <point x="419" y="463" type="curve" smooth="yes"/>
      <point x="433" y="477"/>
      <point x="436" y="496"/>
      <point x="436" y="515" type="curve" smooth="yes"/>
      <point x="436" y="535"/>
      <point x="430" y="556"/>
      <point x="414" y="572" type="curve" smooth="yes"/>
      <point x="399" y="587"/>
      <point x="380" y="593"/>
      <point x="356" y="593" type="curve" smooth="yes"/>
      <point x="195" y="593" type="line"/>
      <point x="195" y="720" type="line"/>
      <point x="357" y="720" type="line" smooth="yes"/>
      <point x="420" y="720"/>
      <point x="468" y="707"/>
      <point x="511" y="667" type="curve" smooth="yes"/>
      <point x="555" y="626"/>
      <point x="573" y="575"/>
      <point x="574" y="515" type="curve" smooth="yes"/>
      <point x="575" y="463"/>
      <point x="553" y="416"/>
      <point x="522" y="391" type="curve" smooth="yes"/>
      <point x="488" y="363"/>
      <point x="443" y="352"/>
      <point x="397" y="352" type="curve" smooth="yes"/>
      <point x="175" y="352" type="line"/>
    </contour>
    <contour>
      <point x="188" y="128" type="line"/>
      <point x="375" y="128" type="line" smooth="yes"/>
      <point x="404" y="128"/>
      <point x="425" y="137"/>
      <point x="443" y="154" type="curve" smooth="yes"/>
      <point x="461" y="171"/>
      <point x="470" y="194"/>
      <point x="470" y="220" type="curve" smooth="yes"/>
      <point x="470" y="244"/>
      <point x="463" y="270"/>
      <point x="445" y="288" type="curve" smooth="yes"/>
      <point x="424" y="309"/>
      <point x="396" y="312"/>
      <point x="375" y="312" type="curve" smooth="yes"/>
      <point x="188" y="312" type="line"/>
      <point x="188" y="398" type="line"/>
      <point x="394" y="398" type="line" smooth="yes"/>
      <point x="441" y="398"/>
      <point x="507" y="388"/>
      <point x="550" y="352" type="curve" smooth="yes"/>
      <point x="585" y="322"/>
      <point x="607" y="270"/>
      <point x="607" y="220" type="curve" smooth="yes"/>
      <point x="607" y="155"/>
      <point x="590" y="95"/>
      <point x="545" y="53" type="curve" smooth="yes"/>
      <point x="503" y="14"/>
      <point x="460" y="0"/>
      <point x="374" y="0" type="curve" smooth="yes"/>
      <point x="188" y="0" type="line"/>
    </contour>
    <contour>
      <point x="70" y="720" type="line"/>
      <point x="208" y="720" type="line"/>
      <point x="208" y="0" type="line"/>
      <point x="70" y="0" type="line"/>
    </contour>
  </outline>
</glyph>
<glyph name="C" format="2">
  <advance width="725"/>
  <unicode hex="0043"/>
  <note>
C
</note>
  <outline>
    <contour>
      <point x="377" y="-15" type="curve" smooth="yes"/>
      <point x="535" y="-15"/>
      <point x="648" y="67"/>
      <point x="690" y="212" type="curve"/>
      <point x="557" y="245" type="line"/>
      <point x="530" y="165"/>
      <point x="469" y="113"/>
      <point x="375" y="113" type="curve" smooth="yes"/>
      <point x="248" y="113"/>
      <point x="173" y="209"/>
      <point x="173" y="360" type="curve" smooth="yes"/>
      <point x="173" y="505"/>
      <point x="243" y="610"/>
      <point x="379" y="607" type="curve" smooth="yes"/>
      <point x="472" y="605"/>
      <point x="535" y="552"/>
      <point x="559" y="469" type="curve"/>
      <point x="695" y="488" type="line"/>
      <point x="661" y="640"/>
      <point x="544" y="735"/>
      <point x="375" y="735" type="curve" smooth="yes"/>
      <point x="161" y="735"/>
      <point x="30" y="583"/>
      <point x="30" y="363" type="curve" smooth="yes"/>
      <point x="30" y="150"/>
      <point x="153" y="-15"/>
    </contour>
  </outline>
</glyph>
<glyph name="D" format="2">
  <advance width="710"/>
  <unicode hex="0044"/>
  <note>
D
</note>
  <outline>
    <contour>
      <point x="660" y="360" type="curve" smooth="yes"/>
      <point x="660" y="180"/>
      <point x="564" y="24"/>
      <point x="389" y="4" type="curve" smooth="yes"/>
      <point x="363" y="1"/>
      <point x="335" y="0"/>
      <point x="303" y="0" type="curve" smooth="yes"/>
      <point x="70" y="0" type="line"/>
      <point x="70" y="720" type="line"/>
      <point x="303" y="720" type="line" smooth="yes"/>
      <point x="335" y="720"/>
      <point x="363" y="719"/>
      <point x="389" y="716" type="curve" smooth="yes"/>
      <point x="564" y="696"/>
      <point x="660" y="540"/>
    </contour>
    <contour>
      <point x="516" y="360" type="curve" smooth="yes"/>
      <point x="516" y="468"/>
      <point x="475" y="565"/>
      <point x="381" y="587" type="curve" smooth="yes"/>
      <point x="363" y="591"/>
      <point x="332" y="592"/>
      <point x="303" y="592" type="curve" smooth="yes"/>
      <point x="208" y="592" type="line"/>
      <point x="208" y="128" type="line"/>
      <point x="303" y="128" type="line" smooth="yes"/>
      <point x="332" y="128"/>
      <point x="363" y="129"/>
      <point x="381" y="133" type="curve" smooth="yes"/>
      <point x="475" y="155"/>
      <point x="516" y="252"/>
    </contour>
  </outline>
</glyph>
<glyph name="E" format="2">
  <advance width="590"/>
  <unicode hex="0045"/>
  <note>
E
</note>
  <outline>
    <contour>
      <point x="70" y="0" type="line"/>
      <point x="540" y="0" type="line"/>
      <point x="540" y="127" type="line"/>
      <point x="206" y="127" type="line"/>
      <point x="206" y="312" type="line"/>
      <point x="480" y="312" type="line"/>
      <point x="480" y="439" type="line"/>
      <point x="206" y="439" type="line"/>
      <point x="206" y="593" type="line"/>
      <point x="540" y="593" type="line"/>
      <point x="540" y="720" type="line"/>
      <point x="70" y="720" type="line"/>
    </contour>
  </outline>
</glyph>
<glyph name="F" format="2">
  <advance width="530"/>
  <unicode hex="0046"/>
  <note>
F
</note>
  <outline>
    <contour>
      <point x="70" y="720" type="line"/>
      <point x="206" y="720" type="line"/>
      <point x="206" y="0" type="line"/>
      <point x="70" y="0" type="line"/>
    </contour>
    <contour>
      <point x="157" y="720" type="line"/>
      <point x="510" y="720" type="line"/>
      <point x="510" y="584" type="line"/>
      <point x="157" y="584" type="line"/>
    </contour>
    <contour>
      <point x="157" y="428" type="line"/>
      <point x="450" y="428" type="line"/>
      <point x="450" y="292" type="line"/>
      <point x="157" y="292" type="line"/>
    </contour>
  </outline>
</glyph>
<glyph name="G" format="2">
  <advance width="741"/>
  <unicode hex="0047"/>
  <note>
G
</note>
  <outline>
    <contour>
      <point x="30" y="360" type="curve" smooth="yes"/>
      <point x="30" y="116"/>
      <point x="188" y="-15"/>
      <point x="370" y="-15" type="curve" smooth="yes"/>
      <point x="578" y="-15"/>
      <point x="711" y="132"/>
      <point x="711" y="339" type="curve" smooth="yes"/>
      <point x="711" y="342"/>
      <point x="710" y="372"/>
      <point x="709" y="381" type="curve"/>
      <point x="568.473" y="308.766" type="line"/>
      <point x="554.152" y="171.194"/>
      <point x="480.215" y="111.209"/>
      <point x="379" y="113" type="curve" smooth="yes"/>
      <point x="242" y="115"/>
      <point x="174" y="210"/>
      <point x="174" y="360" type="curve" smooth="yes"/>
      <point x="174" y="510"/>
      <point x="242" y="609"/>
      <point x="379" y="607" type="curve" smooth="yes"/>
      <point x="471.282" y="605.558"/>
      <point x="530.298" y="551.619"/>
      <point x="556.049" y="468.416" type="curve"/>
      <point x="695" y="488" type="line"/>
      <point x="659" y="645"/>
      <point x="555" y="735"/>
      <point x="370" y="735" type="curve" smooth="yes"/>
      <point x="182" y="735"/>
      <point x="30" y="599"/>
    </contour>
    <contour>
      <point x="450" y="276" type="line"/>
      <point x="663" y="276" type="line"/>
      <point x="709" y="381" type="line"/>
      <point x="450" y="381" type="line"/>
    </contour>
  </outline>
</glyph>
<glyph name="H" format="2">
  <advance width="734"/>
  <unicode hex="0048"/>
  <note>
H
</note>
  <outline>
    <contour>
      <point x="70" y="720" type="line"/>
      <point x="70" y="0" type="line"/>
      <point x="206" y="0" type="line"/>
      <point x="206" y="720" type="line"/>
    </contour>
    <contour>
      <point x="528" y="720" type="line"/>
      <point x="528" y="0" type="line"/>
      <point x="664" y="0" type="line"/>
      <point x="664" y="720" type="line"/>
    </contour>
    <contour>
      <point x="110" y="424" type="line"/>
      <point x="110" y="297" type="line"/>
      <point x="620" y="297" type="line"/>
      <point x="620" y="424" type="line"/>
    </contour>
  </outline>
</glyph>
<glyph name="I" format="2">
  <advance width="296"/>
  <unicode hex="0049"/>
  <note>
I
</note>
  <outline>
    <contour>
      <point x="80" y="0" type="line"/>
      <point x="216" y="0" type="line"/>
      <point x="216" y="720" type="line"/>
      <point x="80" y="720" type="line"/>
    </contour>
  </outline>
</glyph>
<glyph name="J" format="2">
  <advance width="513"/>
  <unicode hex="004A"/>
  <note>
J
</note>
  <outline>
    <contour>
      <point x="221" y="-15" type="curve" smooth="yes"/>
      <point x="300" y="-15"/>
      <point x="368" y="15"/>
      <point x="409" y="86" type="curve" smooth="yes"/>
      <point x="437" y="134"/>
      <point x="433" y="171"/>
      <point x="433" y="240" type="curve" smooth="yes"/>
      <point x="433" y="720" type="line"/>
      <point x="295" y="720" type="line"/>
      <point x="295" y="240" type="line" smooth="yes"/>
      <point x="295" y="203"/>
      <point x="295" y="175"/>
      <point x="287" y="156" type="curve" smooth="yes"/>
      <point x="274" y="125"/>
      <point x="240" y="112"/>
      <point x="215" y="112" type="curve" smooth="yes"/>
      <point x="178" y="112"/>
      <point x="140" y="143"/>
      <point x="134" y="180" type="curve"/>
      <point x="0" y="148" type="line"/>
      <point x="31" y="48"/>
      <point x="106" y="-15"/>
    </contour>
  </outline>
</glyph>
<glyph name="L" format="2">
  <advance width="541"/>
  <unicode hex="004C"/>
  <note>
L
</note>
  <outline>
    <contour>
      <point x="216" y="720" type="line"/>
      <point x="216" y="127" type="line"/>
      <point x="526" y="127" type="line"/>
      <point x="526" y="0" type="line"/>
      <point x="80" y="0" type="line"/>
      <point x="80" y="720" type="line"/>
    </contour>
  </outline>
</glyph>
<glyph name="M" format="2">
  <advance width="860"/>
  <unicode hex="004D"/>
  <note>
M
</note>
  <outline>
    <contour>
      <point x="790" y="720" type="line"/>
      <point x="668" y="720" type="line"/>
      <point x="430" y="242" type="line"/>
      <point x="192" y="720" type="line"/>
      <point x="70" y="720" type="line"/>
      <point x="70" y="0" type="line"/>
      <point x="197" y="0" type="line"/>
      <point x="197" y="430" type="line"/>
      <point x="406" y="0" type="line"/>
      <point x="454" y="0" type="line"/>
      <point x="663" y="430" type="line"/>
      <point x="663" y="0" type="line"/>
      <point x="790" y="0" type="line"/>
    </contour>
  </outline>
</glyph>
<glyph name="O" format="2">
  <advance width="758"/>
  <unicode hex="004F"/>
  <outline>
    <contour>
      <point x="379" y="-15" type="curve" smooth="yes"/>
      <point x="595" y="-15"/>
      <point x="728" y="136"/>
      <point x="728" y="360" type="curve" smooth="yes"/>
      <point x="728" y="584"/>
      <point x="595" y="735"/>
      <point x="379" y="735" type="curve" smooth="yes"/>
      <point x="163" y="735"/>
      <point x="30" y="584"/>
      <point x="30" y="360" type="curve" smooth="yes"/>
      <point x="30" y="136"/>
      <point x="163" y="-15"/>
    </contour>
    <contour>
      <point x="379" y="113" type="curve" smooth="yes"/>
      <point x="242" y="115"/>
      <point x="174" y="210"/>
      <point x="174" y="360" type="curve" smooth="yes"/>
      <point x="174" y="510"/>
      <point x="242" y="609"/>
      <point x="379" y="607" type="curve" smooth="yes"/>
      <point x="516" y="605"/>
      <point x="584" y="510"/>
      <point x="584" y="360" type="curve" smooth="yes"/>
      <point x="584" y="210"/>
      <point x="516" y="111"/>
    </contour>
  </outline>
</glyph>
<glyph name="P" format="2">
  <advance width="650"/>
  <unicode hex="0050"/>
  <note>
P
</note>
  <outline>
    <contour>
      <point x="186" y="593" type="line"/>
      <point x="368" y="593" type="line" smooth="yes"/>
      <point x="382" y="593"/>
      <point x="400" y="592"/>
      <point x="414" y="588" type="curve" smooth="yes"/>
      <point x="469" y="573"/>
      <point x="483" y="521"/>
      <point x="483" y="482" type="curve" smooth="yes"/>
      <point x="483" y="443"/>
      <point x="469" y="391"/>
      <point x="414" y="376" type="curve" smooth="yes"/>
      <point x="400" y="372"/>
      <point x="382" y="371"/>
      <point x="368" y="371" type="curve" smooth="yes"/>
      <point x="186" y="371" type="line"/>
      <point x="186" y="244" type="line"/>
      <point x="374" y="244" type="line" smooth="yes"/>
      <point x="387" y="244"/>
      <point x="415" y="245"/>
      <point x="434" y="248" type="curve" smooth="yes"/>
      <point x="562" y="268"/>
      <point x="620" y="361"/>
      <point x="620" y="482" type="curve" smooth="yes"/>
      <point x="620" y="603"/>
      <point x="563" y="696"/>
      <point x="434" y="716" type="curve" smooth="yes"/>
      <point x="415" y="719"/>
      <point x="388" y="720"/>
      <point x="374" y="720" type="curve" smooth="yes"/>
      <point x="186" y="720" type="line"/>
    </contour>
    <contour>
      <point x="70" y="0" type="line"/>
      <point x="206" y="0" type="line"/>
      <point x="206" y="720" type="line"/>
      <point x="70" y="720" type="line"/>
    </contour>
  </outline>
</glyph>
<glyph name="Q" format="2">
  <advance width="758"/>
  <unicode hex="0051"/>
  <note>
Q
</note>
  <outline>
    <contour>
      <point x="716" y="69" type="line"/>
      <point x="507" y="278" type="line"/>
      <point x="423" y="194" type="line"/>
      <point x="633" y="-15" type="line"/>
    </contour>
    <component base="O"/>
  </outline>
</glyph>
<glyph name="R" format="2">
  <advance width="670"/>
  <unicode hex="0052"/>
  <note>
R
</note>
  <outline>
    <contour>
      <point x="70" y="0" type="line"/>
      <point x="206" y="0" type="line"/>
      <point x="206" y="244" type="line"/>
      <point x="374" y="244" type="line"/>
      <point x="434" y="248" type="line"/>
      <point x="562" y="268"/>
      <point x="620" y="361"/>
      <point x="620" y="482" type="curve" smooth="yes"/>
      <point x="620" y="603"/>
      <point x="563" y="696"/>
      <point x="434" y="716" type="curve" smooth="yes"/>
      <point x="415" y="719"/>
      <point x="388" y="720"/>
      <point x="374" y="720" type="curve" smooth="yes"/>
      <point x="70" y="720" type="line"/>
    </contour>
    <contour>
      <point x="476" y="0" type="line"/>
      <point x="630" y="0" type="line"/>
      <point x="474" y="320" type="line"/>
      <point x="334" y="293" type="line"/>
    </contour>
    <contour>
      <point x="206" y="371" type="line"/>
      <point x="206" y="593" type="line"/>
      <point x="368" y="593" type="line" smooth="yes"/>
      <point x="382" y="593"/>
      <point x="400" y="592"/>
      <point x="414" y="588" type="curve" smooth="yes"/>
      <point x="469" y="573"/>
      <point x="483" y="521"/>
      <point x="483" y="482" type="curve" smooth="yes"/>
      <point x="483" y="443"/>
      <point x="469" y="391"/>
      <point x="414" y="376" type="curve" smooth="yes"/>
      <point x="400" y="372"/>
      <point x="382" y="371"/>
      <point x="368" y="371" type="curve" smooth="yes"/>
    </contour>
  </outline>
</glyph>
<glyph name="S" format="2">
  <advance width="671"/>
  <unicode hex="0053"/>
  <note>
S
</note>
  <outline>
    <contour>
      <point x="342" y="-15" type="curve" smooth="yes"/>
      <point x="489" y="-15"/>
      <point x="631" y="59"/>
      <point x="631" y="214" type="curve" smooth="yes"/>
      <point x="631" y="359"/>
      <point x="506" y="395"/>
      <point x="432" y="415" type="curve" smooth="yes"/>
      <point x="307" y="449" type="line" smooth="yes"/>
      <point x="261" y="461"/>
      <point x="211" y="479"/>
      <point x="211" y="526" type="curve" smooth="yes"/>
      <point x="211" y="577"/>
      <point x="271" y="609"/>
      <point x="335" y="607" type="curve" smooth="yes"/>
      <point x="400" y="605"/>
      <point x="462" y="568"/>
      <point x="478" y="498" type="curve"/>
      <point x="625" y="523" type="line"/>
      <point x="590" y="658"/>
      <point x="486" y="732"/>
      <point x="337" y="734" type="curve" smooth="yes"/>
      <point x="189" y="735"/>
      <point x="68" y="664"/>
      <point x="68" y="519" type="curve" smooth="yes"/>
      <point x="68" y="382"/>
      <point x="175" y="347"/>
      <point x="231" y="331" type="curve" smooth="yes"/>
      <point x="418" y="276" type="line" smooth="yes"/>
      <point x="474" y="259"/>
      <point x="488" y="233"/>
      <point x="488" y="204" type="curve" smooth="yes"/>
      <point x="488" y="144"/>
      <point x="418" y="112"/>
      <point x="351" y="112" type="curve" smooth="yes"/>
      <point x="271" y="112"/>
      <point x="202" y="158"/>
      <point x="182" y="241" type="curve"/>
      <point x="40" y="220" type="line"/>
      <point x="62" y="74"/>
      <point x="182" y="-15"/>
    </contour>
  </outline>
</glyph>
<glyph name="T" format="2">
  <advance width="610"/>
  <unicode hex="0054"/>
  <note>
T
</note>
  <outline>
    <contour>
      <point x="237" y="0" type="line"/>
      <point x="373" y="0" type="line"/>
      <point x="373" y="593" type="line"/>
      <point x="600" y="593" type="line"/>
      <point x="600" y="720" type="line"/>
      <point x="10" y="720" type="line"/>
      <point x="10" y="593" type="line"/>
      <point x="237" y="593" type="line"/>
    </contour>
  </outline>
</glyph>
<glyph name="V" format="2">
  <advance width="653"/>
  <unicode hex="0056"/>
  <note>
V
</note>
  <outline>
    <contour>
      <point x="225" y="0" type="line"/>
      <point x="428" y="0" type="line"/>
      <point x="648" y="720" type="line"/>
      <point x="508" y="720" type="line"/>
      <point x="325" y="128" type="line"/>
      <point x="145" y="720" type="line"/>
      <point x="5" y="720" type="line"/>
    </contour>
  </outline>
</glyph>
<glyph name="W" format="2">
  <advance width="989"/>
  <unicode hex="0057"/>
  <note>
W
</note>
  <outline>
    <contour>
      <point x="836" y="720" type="line"/>
      <point x="700" y="225" type="line"/>
      <point x="565" y="720" type="line"/>
      <point x="422" y="719" type="line"/>
      <point x="288" y="225" type="line"/>
      <point x="153" y="720" type="line"/>
      <point x="10" y="720" type="line"/>
      <point x="221" y="0" type="line"/>
      <point x="355" y="0" type="line"/>
      <point x="494" y="486" type="line"/>
      <point x="634" y="0" type="line"/>
      <point x="768" y="0" type="line"/>
      <point x="979" y="720" type="line"/>
    </contour>
  </outline>
</glyph>
<glyph name="Y" format="2">
  <advance width="630"/>
  <unicode hex="0059"/>
  <note>
Y
</note>
  <outline>
    <contour>
      <point x="471" y="720" type="line"/>
      <point x="315" y="449" type="line"/>
      <point x="159" y="720" type="line"/>
      <point x="0" y="720" type="line"/>
      <point x="246" y="293" type="line"/>
      <point x="246" y="0" type="line"/>
      <point x="384" y="0" type="line"/>
      <point x="384" y="293" type="line"/>
      <point x="630" y="720" type="line"/>
    </contour>
  </outline>
</glyph>
<glyph name="Z" format="2">
  <advance width="680"/>
  <unicode hex="005A"/>
  <note>
Z
</note>
  <outline>
    <contour>
      <point x="290" y="128" type="line"/>
      <point x="630" y="703" type="line"/>
      <point x="630" y="720" type="line"/>
      <point x="80" y="720" type="line"/>
      <point x="80" y="593" type="line"/>
      <point x="392" y="593" type="line"/>
      <point x="50" y="17" type="line"/>
      <point x="50" y="0" type="line"/>
      <point x="620" y="0" type="line"/>
      <point x="620" y="128" type="line"/>
    </contour>
  </outline>
</glyph>
<glyph name="bracketleft" format="2">
  <advance width="429"/>
  <unicode hex="005B"/>
  <outline>
    <contour>
      <point x="215" y="900" type="line"/>
      <point x="215" y="780" type="line"/>
      <point x="369" y="780" type="line"/>
      <point x="369" y="900" type="line"/>
    </contour>
    <contour>
      <point x="140" y="900" type="line"/>
      <point x="140" y="-210" type="line"/>
      <point x="260" y="-210" type="line"/>
      <point x="260" y="900" type="line"/>
    </contour>
    <contour>
      <point x="215" y="-90" type="line"/>
      <point x="215" y="-210" type="line"/>
      <point x="369" y="-210" type="line"/>
      <point x="369" y="-90" type="line"/>
    </contour>
  </outline>
</glyph>
<glyph name="backslash" format="2">
  <advance width="448"/>
  <unicode hex="005C"/>
  <outline>
    <contour>
      <point x="196" y="720" type="line"/>
      <point x="60" y="720" type="line"/>
      <point x="252" y="0" type="line"/>
      <point x="388" y="0" type="line"/>
    </contour>
  </outline>
</glyph>
<glyph name="a" format="2">
  <advance width="583"/>
  <unicode hex="0061"/>
  <note>
a
</note>
  <outline>
    <contour>
      <point x="220" y="-15" type="curve" smooth="yes"/>
      <point x="323" y="-15"/>
      <point x="376" y="28"/>
      <point x="421" y="88" type="curve"/>
      <point x="404" y="111" type="line"/>
      <point x="404" y="0" type="line"/>
      <point x="523" y="0" type="line"/>
      <point x="523" y="322" type="line" smooth="yes"/>
      <point x="523" y="343"/>
      <point x="523" y="381"/>
      <point x="511" y="420" type="curve" smooth="yes"/>
      <point x="485" y="504"/>
      <point x="415" y="555"/>
      <point x="294" y="555" type="curve" smooth="yes"/>
      <point x="174" y="555"/>
      <point x="96" y="485"/>
      <point x="60" y="403" type="curve"/>
      <point x="181" y="366" type="line"/>
      <point x="199" y="411"/>
      <point x="243" y="432"/>
      <point x="290" y="432" type="curve" smooth="yes"/>
      <point x="347" y="432"/>
      <point x="398" y="406"/>
      <point x="389" y="315" type="curve"/>
      <point x="419" y="355" type="line"/>
      <point x="296" y="339"/>
      <point x="248" y="331"/>
      <point x="211" y="322" type="curve" smooth="yes"/>
      <point x="129" y="303"/>
      <point x="40" y="252"/>
      <point x="40" y="149" type="curve" smooth="yes"/>
      <point x="40" y="77"/>
      <point x="90" y="-15"/>
    </contour>
    <contour>
      <point x="249" y="92" type="curve" smooth="yes"/>
      <point x="199" y="92"/>
      <point x="173" y="121"/>
      <point x="173" y="151" type="curve" smooth="yes"/>
      <point x="173" y="189"/>
      <point x="205" y="209"/>
      <point x="253" y="221" type="curve" smooth="yes"/>
      <point x="303" y="234"/>
      <point x="348" y="243"/>
      <point x="438" y="257" type="curve"/>
      <point x="388" y="276" type="line"/>
      <point x="389" y="227"/>
      <point x="387" y="186"/>
      <point x="369" y="156" type="curve" smooth="yes"/>
      <point x="351" y="125"/>
      <point x="305" y="92"/>
    </contour>
  </outline>
</glyph>
<glyph name="c" format="2">
  <advance width="583"/>
  <unicode hex="0063"/>
  <note>
c
</note>
  <outline>
    <contour>
      <point x="553" y="375" type="line"/>
      <point x="529" y="486"/>
      <point x="437" y="555"/>
      <point x="310" y="555" type="curve" smooth="yes"/>
      <point x="145" y="555"/>
      <point x="40" y="434"/>
      <point x="40" y="270" type="curve" smooth="yes"/>
      <point x="40" y="108"/>
      <point x="140" y="-15"/>
      <point x="308" y="-15" type="curve" smooth="yes"/>
      <point x="433" y="-15"/>
      <point x="522" y="49"/>
      <point x="553" y="164" type="curve"/>
      <point x="414" y="193" type="line"/>
      <point x="398" y="141"/>
      <point x="369" y="112"/>
      <point x="308" y="112" type="curve" smooth="yes"/>
      <point x="226" y="112"/>
      <point x="184" y="176"/>
      <point x="184" y="270" type="curve" smooth="yes"/>
      <point x="184" y="360"/>
      <point x="222" y="428"/>
      <point x="308" y="428" type="curve" smooth="yes"/>
      <point x="358" y="428"/>
      <point x="401" y="395"/>
      <point x="417" y="339" type="curve"/>
    </contour>
  </outline>
</glyph>
<glyph name="e" format="2">
  <advance width="608"/>
  <unicode hex="0065"/>
  <note>
e
</note>
  <outline>
    <contour>
      <point x="321" y="-15" type="curve" smooth="yes"/>
      <point x="422" y="-15"/>
      <point x="521" y="43"/>
      <point x="561" y="141" type="curve"/>
      <point x="425" y="180" type="line"/>
      <point x="404" y="135"/>
      <point x="363" y="112"/>
      <point x="313" y="112" type="curve" smooth="yes"/>
      <point x="228" y="112"/>
      <point x="184" y="173"/>
      <point x="184" y="270" type="curve" smooth="yes"/>
      <point x="184" y="366"/>
      <point x="216" y="437"/>
      <point x="313" y="437" type="curve" smooth="yes"/>
      <point x="410" y="437"/>
      <point x="431" y="380"/>
      <point x="431" y="282" type="curve" smooth="yes"/>
      <point x="431" y="232" type="line"/>
      <point x="565.535" y="232" type="line"/>
      <point x="581" y="420"/>
      <point x="490" y="555"/>
      <point x="313" y="555" type="curve" smooth="yes"/>
      <point x="149" y="555"/>
      <point x="40" y="438"/>
      <point x="40" y="263" type="curve" smooth="yes"/>
      <point x="40" y="102"/>
      <point x="152" y="-15"/>
    </contour>
    <contour>
      <point x="142" y="232" type="line"/>
      <point x="500" y="232" type="line"/>
      <point x="500" y="337" type="line"/>
      <point x="142" y="337" type="line"/>
    </contour>
  </outline>
</glyph>
<glyph name="f" format="2">
  <advance width="386"/>
  <unicode hex="0066"/>
  <note>
f
</note>
  <outline>
    <contour>
      <point x="251" y="0" type="line"/>
      <point x="115" y="0" type="line"/>
      <point x="115" y="538" type="line" smooth="yes"/>
      <point x="115" y="579"/>
      <point x="112" y="642"/>
      <point x="151" y="685" type="curve" smooth="yes"/>
      <point x="201" y="741"/>
      <point x="270" y="735"/>
      <point x="309" y="735" type="curve"/>
      <point x="376" y="735" type="line"/>
      <point x="376" y="625" type="line"/>
      <point x="314" y="625" type="line"/>
      <point x="271" y="625"/>
      <point x="251" y="600"/>
      <point x="251" y="570" type="curve" smooth="yes"/>
    </contour>
    <contour>
      <point x="30" y="540" type="line"/>
      <point x="376" y="540" type="line"/>
      <point x="376" y="435" type="line"/>
      <point x="30" y="435" type="line"/>
    </contour>
  </outline>
</glyph>
<glyph name="g" format="2">
  <advance width="624"/>
  <unicode hex="0067"/>
  <note>
g
</note>
  <outline>
    <contour>
      <point x="554" y="540" type="line"/>
      <point x="435" y="540" type="line"/>
      <point x="435" y="122" type="line"/>
      <point x="418" y="122" type="line"/>
      <point x="418" y="-35" type="line" smooth="yes"/>
      <point x="420" y="-95"/>
      <point x="363" y="-126"/>
      <point x="302" y="-126" type="curve" smooth="yes"/>
      <point x="264" y="-126"/>
      <point x="229" y="-109"/>
      <point x="212" y="-77" type="curve"/>
      <point x="86" y="-138" type="line"/>
      <point x="127" y="-208"/>
      <point x="209" y="-255"/>
      <point x="301" y="-255" type="curve" smooth="yes"/>
      <point x="420" y="-255"/>
      <point x="520" y="-209"/>
      <point x="546" y="-110" type="curve" smooth="yes"/>
      <point x="552" y="-87"/>
      <point x="554" y="-64"/>
      <point x="554" y="-37" type="curve" smooth="yes"/>
    </contour>
    <component base="oval-inner"/>
  </outline>
</glyph>
<glyph name="h" format="2">
  <advance width="636"/>
  <unicode hex="0068"/>
  <note>
h
</note>
  <outline>
    <contour>
      <point x="438" y="0" type="line"/>
      <point x="576" y="0" type="line"/>
      <point x="576" y="303" type="line" smooth="yes"/>
      <point x="576" y="348"/>
      <point x="576" y="556"/>
      <point x="365" y="556" type="curve" smooth="yes"/>
      <point x="206" y="556"/>
      <point x="129" y="439"/>
      <point x="129" y="311" type="curve"/>
      <point x="207" y="274" type="line"/>
      <point x="207" y="408"/>
      <point x="275" y="428"/>
      <point x="322" y="428" type="curve" smooth="yes"/>
      <point x="438" y="428"/>
      <point x="438" y="304"/>
      <point x="438" y="255" type="curve" smooth="yes"/>
    </contour>
    <contour>
      <point x="70" y="0" type="line"/>
      <point x="207" y="0" type="line"/>
      <point x="207" y="350" type="line"/>
      <point x="190" y="350" type="line"/>
      <point x="190" y="720" type="line"/>
      <point x="70" y="720" type="line"/>
    </contour>
  </outline>
</glyph>
<glyph name="i" format="2">
  <advance width="296"/>
  <unicode hex="0069"/>
  <note>
i
</note>
  <outline>
    <contour>
      <point x="80" y="735" type="line"/>
      <point x="80" y="615" type="line"/>
      <point x="216" y="615" type="line"/>
      <point x="216" y="735" type="line"/>
    </contour>
    <component base="idotless"/>
  </outline>
</glyph>
<glyph name="j" format="2">
  <advance width="301"/>
  <unicode hex="006A"/>
  <note>
j
</note>
  <outline>
    <contour>
      <point x="14" y="-113" type="line"/>
      <point x="39" y="-113"/>
      <point x="59" y="-109"/>
      <point x="75" y="-94" type="curve" smooth="yes"/>
      <point x="90" y="-80"/>
      <point x="95" y="-63"/>
      <point x="95" y="-30" type="curve" smooth="yes"/>
      <point x="95" y="540" type="line"/>
      <point x="231" y="540" type="line"/>
      <point x="231" y="-66" type="line" smooth="yes"/>
      <point x="231" y="-119"/>
      <point x="232" y="-159"/>
      <point x="194" y="-198" type="curve" smooth="yes"/>
      <point x="154" y="-240"/>
      <point x="103" y="-240"/>
      <point x="62" y="-240" type="curve"/>
      <point x="-10" y="-240" type="line"/>
      <point x="-10" y="-113" type="line"/>
    </contour>
    <contour>
      <point x="95" y="720" type="line"/>
      <point x="95" y="600" type="line"/>
      <point x="231" y="600" type="line"/>
      <point x="231" y="720" type="line"/>
    </contour>
  </outline>
</glyph>
<glyph name="k" format="2">
  <advance width="553"/>
  <unicode hex="006B"/>
  <note>
k
</note>
  <outline>
    <contour>
      <point x="70" y="0" type="line"/>
      <point x="209" y="0" type="line"/>
      <point x="209" y="260" type="line"/>
      <point x="396" y="0" type="line"/>
      <point x="573" y="0" type="line"/>
      <point x="365" y="270" type="line"/>
      <point x="560" y="540" type="line"/>
      <point x="392" y="540" type="line"/>
      <point x="209" y="280" type="line"/>
      <point x="209" y="720" type="line"/>
      <point x="71" y="720" type="line"/>
    </contour>
  </outline>
</glyph>
<glyph name="m" format="2">
  <advance width="917"/>
  <unicode hex="006D"/>
  <note>
m
</note>
  <outline>
    <contour>
      <point x="70" y="540" type="line"/>
      <point x="70" y="0" type="line"/>
      <point x="207" y="0" type="line"/>
      <point x="207" y="361" type="line"/>
      <point x="190" y="361" type="line"/>
      <point x="190" y="540" type="line"/>
    </contour>
    <contour>
      <point x="396" y="0" type="line"/>
      <point x="532" y="0" type="line"/>
      <point x="532" y="329" type="line" smooth="yes"/>
      <point x="532" y="398"/>
      <point x="527" y="454"/>
      <point x="480" y="503" type="curve" smooth="yes"/>
      <point x="446" y="539"/>
      <point x="389" y="553"/>
      <point x="344" y="553" type="curve" smooth="yes"/>
      <point x="273" y="553"/>
      <point x="208" y="517"/>
      <point x="172" y="457" type="curve" smooth="yes"/>
      <point x="147" y="415"/>
      <point x="150" y="373"/>
      <point x="150" y="327" type="curve"/>
      <point x="207" y="327" type="line"/>
      <point x="207" y="354"/>
      <point x="211" y="378"/>
      <point x="232" y="402" type="curve" smooth="yes"/>
      <point x="249" y="421"/>
      <point x="275" y="432"/>
      <point x="301" y="432" type="curve" smooth="yes"/>
      <point x="327" y="432"/>
      <point x="353" y="422"/>
      <point x="370" y="403" type="curve" smooth="yes"/>
      <point x="389" y="382"/>
      <point x="396" y="358"/>
      <point x="396" y="319" type="curve" smooth="yes"/>
    </contour>
    <contour>
      <point x="721" y="0" type="line"/>
      <point x="857" y="0" type="line"/>
      <point x="857" y="329" type="line" smooth="yes"/>
      <point x="857" y="398"/>
      <point x="852" y="454"/>
      <point x="805" y="503" type="curve" smooth="yes"/>
      <point x="771" y="539"/>
      <point x="714" y="553"/>
      <point x="669" y="553" type="curve" smooth="yes"/>
      <point x="598" y="553"/>
      <point x="533" y="517"/>
      <point x="497" y="457" type="curve" smooth="yes"/>
      <point x="472" y="415"/>
      <point x="475" y="373"/>
      <point x="475" y="327" type="curve"/>
      <point x="532" y="327" type="line"/>
      <point x="532" y="354"/>
      <point x="536" y="378"/>
      <point x="557" y="402" type="curve" smooth="yes"/>
      <point x="574" y="421"/>
      <point x="600" y="432"/>
      <point x="626" y="432" type="curve" smooth="yes"/>
      <point x="652" y="432"/>
      <point x="678" y="422"/>
      <point x="695" y="403" type="curve" smooth="yes"/>
      <point x="714" y="382"/>
      <point x="721" y="358"/>
      <point x="721" y="319" type="curve" smooth="yes"/>
    </contour>
  </outline>
</glyph>
<glyph name="o" format="2">
  <advance width="627"/>
  <unicode hex="006F"/>
  <note>
o
</note>
  <outline>
    <contour>
      <point x="313" y="-15" type="curve" smooth="yes"/>
      <point x="475" y="-15"/>
      <point x="587" y="102"/>
      <point x="587" y="270" type="curve" smooth="yes"/>
      <point x="587" y="437"/>
      <point x="476" y="555"/>
      <point x="313" y="555" type="curve" smooth="yes"/>
      <point x="153" y="555"/>
      <point x="40" y="439"/>
      <point x="40" y="270" type="curve" smooth="yes"/>
      <point x="40" y="103"/>
      <point x="150" y="-15"/>
    </contour>
    <contour>
      <point x="443" y="270" type="curve"/>
      <point x="443" y="177"/>
      <point x="400" y="112"/>
      <point x="313" y="112" type="curve" smooth="yes"/>
      <point x="228" y="112"/>
      <point x="184" y="173"/>
      <point x="184" y="270" type="curve" smooth="yes"/>
      <point x="184" y="364"/>
      <point x="224" y="428"/>
      <point x="313" y="428" type="curve" smooth="yes"/>
      <point x="399" y="428"/>
      <point x="443" y="366"/>
    </contour>
  </outline>
</glyph>
<glyph name="r" format="2">
  <advance width="412"/>
  <unicode hex="0072"/>
  <note>
r
</note>
  <outline>
    <contour>
      <point x="70" y="0" type="line"/>
      <point x="207" y="0" type="line"/>
      <point x="207" y="276" type="line" smooth="yes"/>
      <point x="207" y="338"/>
      <point x="233" y="382"/>
      <point x="281" y="404" type="curve" smooth="yes"/>
      <point x="313" y="419"/>
      <point x="357" y="422"/>
      <point x="387" y="413" type="curve"/>
      <point x="387" y="540" type="line"/>
      <point x="338" y="546"/>
      <point x="287" y="538"/>
      <point x="248" y="514" type="curve" smooth="yes"/>
      <point x="214" y="494"/>
      <point x="191" y="462"/>
      <point x="177" y="425" type="curve"/>
      <point x="190" y="408" type="line"/>
      <point x="190" y="540" type="line"/>
      <point x="70" y="540" type="line"/>
    </contour>
  </outline>
</glyph>
<glyph name="s" format="2">
  <advance width="547"/>
  <unicode hex="0073"/>
  <note>
s
</note>
  <outline>
    <contour>
      <point x="281" y="-15" type="curve" smooth="yes"/>
      <point x="416" y="-15"/>
      <point x="507" y="48"/>
      <point x="507" y="163" type="curve" smooth="yes"/>
      <point x="507" y="254"/>
      <point x="449" y="294"/>
      <point x="337" y="323" type="curve" smooth="yes"/>
      <point x="228" y="351"/>
      <point x="193" y="360"/>
      <point x="193" y="392" type="curve" smooth="yes"/>
      <point x="193" y="424"/>
      <point x="227" y="441"/>
      <point x="276" y="438" type="curve" smooth="yes"/>
      <point x="329" y="434"/>
      <point x="358" y="408"/>
      <point x="363" y="370" type="curve"/>
      <point x="502" y="395" type="line"/>
      <point x="487" y="502"/>
      <point x="388" y="555"/>
      <point x="273" y="555" type="curve" smooth="yes"/>
      <point x="160" y="555"/>
      <point x="58" y="503"/>
      <point x="58" y="385" type="curve" smooth="yes"/>
      <point x="58" y="295"/>
      <point x="117" y="257"/>
      <point x="238" y="226" type="curve" smooth="yes"/>
      <point x="337" y="200"/>
      <point x="368" y="193"/>
      <point x="368" y="156" type="curve" smooth="yes"/>
      <point x="368" y="118"/>
      <point x="334" y="102"/>
      <point x="291" y="102" type="curve" smooth="yes"/>
      <point x="233" y="102"/>
      <point x="190" y="130"/>
      <point x="179" y="183" type="curve"/>
      <point x="40" y="162" type="line"/>
      <point x="59" y="43"/>
      <point x="152" y="-15"/>
    </contour>
  </outline>
</glyph>
<glyph name="t" format="2">
  <advance width="444"/>
  <unicode hex="0074"/>
  <note>
t
</note>
  <outline>
    <contour>
      <point x="394" y="113" type="line"/>
      <point x="365" y="109"/>
      <point x="332" y="107"/>
      <point x="306" y="109" type="curve" smooth="yes"/>
      <point x="285" y="111"/>
      <point x="262" y="119"/>
      <point x="249" y="140" type="curve" smooth="yes"/>
      <point x="236" y="160"/>
      <point x="238" y="195"/>
      <point x="238" y="237" type="curve" smooth="yes"/>
      <point x="238" y="690" type="line"/>
      <point x="102" y="690" type="line"/>
      <point x="102" y="229" type="line" smooth="yes"/>
      <point x="102" y="164"/>
      <point x="96" y="108"/>
      <point x="126" y="64" type="curve" smooth="yes"/>
      <point x="155" y="21"/>
      <point x="186" y="5"/>
      <point x="236" y="-4" type="curve" smooth="yes"/>
      <point x="276" y="-11"/>
      <point x="352" y="-12"/>
      <point x="394" y="0" type="curve"/>
    </contour>
    <contour>
      <point x="10" y="540" type="line"/>
      <point x="10" y="435" type="line"/>
      <point x="394" y="435" type="line"/>
      <point x="394" y="540" type="line"/>
    </contour>
  </outline>
</glyph>
<glyph name="u" format="2">
  <advance width="636"/>
  <unicode hex="0075"/>
  <note>
u
</note>
  <outline>
    <contour>
      <point x="271" y="-16" type="curve" smooth="yes"/>
      <point x="430" y="-16"/>
      <point x="507" y="101"/>
      <point x="507" y="229" type="curve"/>
      <point x="429" y="266" type="line"/>
      <point x="429" y="132"/>
      <point x="361" y="112"/>
      <point x="314" y="112" type="curve" smooth="yes"/>
      <point x="198" y="112"/>
      <point x="198" y="236"/>
      <point x="198" y="285" type="curve" smooth="yes"/>
      <point x="198" y="540" type="line"/>
      <point x="60" y="540" type="line"/>
      <point x="60" y="237" type="line" smooth="yes"/>
      <point x="60" y="192"/>
      <point x="60" y="-16"/>
    </contour>
    <contour>
      <point x="446" y="0" type="line"/>
      <point x="566" y="0" type="line"/>
      <point x="566" y="540" type="line"/>
      <point x="429" y="540" type="line"/>
      <point x="429" y="179" type="line"/>
      <point x="446" y="179" type="line"/>
    </contour>
  </outline>
</glyph>
<glyph name="v" format="2">
  <advance width="568"/>
  <unicode hex="0076"/>
  <outline>
    <contour>
      <point x="412" y="540" type="line"/>
      <point x="284" y="166" type="line"/>
      <point x="156" y="540" type="line"/>
      <point x="20" y="540" type="line"/>
      <point x="216" y="0" type="line"/>
      <point x="352" y="0" type="line"/>
      <point x="548" y="540" type="line"/>
    </contour>
  </outline>
</glyph>
<glyph name="w" format="2">
  <advance width="814"/>
  <unicode hex="0077"/>
  <note>
w
</note>
  <outline>
    <contour>
      <point x="661" y="540" type="line"/>
      <point x="563" y="218" type="line"/>
      <point x="464" y="540" type="line"/>
      <point x="351" y="540" type="line"/>
      <point x="252" y="218" type="line"/>
      <point x="154" y="540" type="line"/>
      <point x="20" y="541" type="line"/>
      <point x="185" y="0" type="line"/>
      <point x="289" y="0" type="line"/>
      <point x="407" y="352" type="line"/>
      <point x="516" y="0" type="line"/>
      <point x="629" y="0" type="line"/>
      <point x="794" y="540" type="line"/>
    </contour>
  </outline>
</glyph>
<glyph name="x" format="2">
  <advance width="563"/>
  <unicode hex="0078"/>
  <note>
x
</note>
  <outline>
    <contour>
      <point x="548" y="540" type="line"/>
      <point x="388" y="540" type="line"/>
      <point x="282" y="380" type="line"/>
      <point x="174" y="540" type="line"/>
      <point x="14" y="540" type="line"/>
      <point x="203" y="273" type="line"/>
      <point x="10" y="0" type="line"/>
      <point x="170" y="0" type="line"/>
      <point x="282" y="166" type="line"/>
      <point x="393" y="0" type="line"/>
      <point x="553" y="0" type="line"/>
      <point x="359" y="273" type="line"/>
    </contour>
  </outline>
</glyph>
<glyph name="y" format="2">
  <advance width="570"/>
  <unicode hex="0079"/>
  <note>
y
</note>
  <outline>
    <contour>
      <point x="151" y="540" type="line"/>
      <point x="10" y="540" type="line"/>
      <point x="230" y="0" type="line"/>
      <point x="295" y="169" type="line"/>
    </contour>
    <contour>
      <point x="434" y="540" type="line"/>
      <point x="227" y="0" type="line"/>
      <point x="139" y="-239" type="line"/>
      <point x="265" y="-240" type="line"/>
      <point x="570" y="540" type="line"/>
    </contour>
  </outline>
</glyph>
<glyph name="bar" format="2">
  <advance width="316"/>
  <unicode hex="007C"/>
  <outline>
    <contour>
      <point x="90" y="720" type="line"/>
      <point x="90" y="0" type="line"/>
      <point x="226" y="0" type="line"/>
      <point x="226" y="720" type="line"/>
    </contour>
  </outline>
</glyph>
<glyph name="cent" format="2">
  <advance width="583"/>
  <unicode hex="00A2"/>
  <outline>
    <contour>
      <point x="262" y="81" type="line"/>
      <point x="262" y="-29" type="line"/>
      <point x="367" y="-29" type="line"/>
      <point x="367" y="81" type="line"/>
    </contour>
    <contour>
      <point x="262" y="720" type="line"/>
      <point x="262" y="600" type="line"/>
      <point x="367" y="600" type="line"/>
      <point x="367" y="720" type="line"/>
    </contour>
    <component base="c" yOffset="75"/>
  </outline>
</glyph>
<glyph name="sterling" format="2">
  <advance width="611"/>
  <unicode hex="00A3"/>
  <outline>
    <contour>
      <point x="551" y="551" type="line"/>
      <point x="514" y="655"/>
      <point x="453" y="735"/>
      <point x="345" y="735" type="curve" smooth="yes"/>
      <point x="229" y="735"/>
      <point x="136" y="651"/>
      <point x="136" y="541" type="curve"/>
      <point x="136" y="203" type="line"/>
      <point x="136" y="163"/>
      <point x="102" y="127"/>
      <point x="61" y="127" type="curve"/>
      <point x="60" y="127" type="line"/>
      <point x="60" y="0" type="line"/>
      <point x="497" y="0" type="line"/>
      <point x="497" y="127" type="line"/>
      <point x="274" y="127" type="line"/>
      <point x="275" y="534" type="line"/>
      <point x="275" y="576"/>
      <point x="303" y="607"/>
      <point x="345" y="607" type="curve" smooth="yes"/>
      <point x="389" y="607"/>
      <point x="412" y="569"/>
      <point x="429" y="511" type="curve"/>
    </contour>
    <contour>
      <point x="416" y="424" type="line"/>
      <point x="60" y="424" type="line"/>
      <point x="60" y="296" type="line"/>
      <point x="416" y="296" type="line"/>
    </contour>
  </outline>
</glyph>
<glyph name="currency" format="2">
  <advance width="680"/>
  <unicode hex="00A4"/>
  <outline>
    <contour>
      <point x="340" y="98" type="curve" smooth="yes"/>
      <point x="485" y="98"/>
      <point x="603" y="216"/>
      <point x="603" y="361" type="curve" smooth="yes"/>
      <point x="603" y="505"/>
      <point x="485" y="623"/>
      <point x="340" y="623" type="curve" smooth="yes"/>
      <point x="196" y="623"/>
      <point x="78" y="505"/>
      <point x="78" y="361" type="curve" smooth="yes"/>
      <point x="78" y="216"/>
      <point x="196" y="98"/>
    </contour>
    <contour>
      <point x="120" y="50" type="line"/>
      <point x="248" y="177" type="line"/>
      <point x="157" y="267" type="line"/>
      <point x="30" y="140" type="line"/>
    </contour>
    <contour>
      <point x="157" y="452" type="line"/>
      <point x="247" y="543" type="line"/>
      <point x="120" y="670" type="line"/>
      <point x="30" y="579" type="line"/>
    </contour>
    <contour>
      <point x="560" y="50" type="line"/>
      <point x="650" y="140" type="line"/>
      <point x="523" y="267" type="line"/>
      <point x="433" y="177" type="line"/>
    </contour>
    <contour>
      <point x="340" y="212" type="curve" smooth="yes"/>
      <point x="258" y="212"/>
      <point x="192" y="280"/>
      <point x="192" y="360" type="curve" smooth="yes"/>
      <point x="192" y="442"/>
      <point x="258" y="508"/>
      <point x="340" y="508" type="curve" smooth="yes"/>
      <point x="420" y="508"/>
      <point x="488" y="442"/>
      <point x="488" y="360" type="curve" smooth="yes"/>
      <point x="488" y="280"/>
      <point x="422" y="212"/>
    </contour>
    <contour>
      <point x="524" y="453" type="line"/>
      <point x="650" y="579" type="line"/>
      <point x="560" y="670" type="line"/>
      <point x="433" y="543" type="line"/>
    </contour>
  </outline>
</glyph>
<glyph name="yen" format="2">
  <advance width="630"/>
  <unicode hex="00A5"/>
  <outline>
    <contour>
      <point x="105" y="398" type="line"/>
      <point x="105" y="293" type="line"/>
      <point x="525" y="293" type="line"/>
      <point x="525" y="398" type="line"/>
    </contour>
    <contour>
      <point x="105" y="199" type="line"/>
      <point x="105" y="94" type="line"/>
      <point x="525" y="94" type="line"/>
      <point x="525" y="199" type="line"/>
    </contour>
    <component base="Y"/>
  </outline>
</glyph>
<glyph name="brokenbar" format="2">
  <advance width="316"/>
  <unicode hex="00A6"/>
  <outline>
    <contour>
      <point x="90" y="300" type="line"/>
      <point x="226" y="300" type="line"/>
      <point x="226" y="720" type="line"/>
      <point x="90" y="720" type="line"/>
    </contour>
    <contour>
      <point x="90" y="-220" type="line"/>
      <point x="226" y="-220" type="line"/>
      <point x="226" y="200" type="line"/>
      <point x="90" y="200" type="line"/>
    </contour>
  </outline>
</glyph>
<glyph name="copyright" format="2">
  <advance width="914"/>
  <unicode hex="00A9"/>
  <outline>
    <contour>
      <point x="457" y="60" type="curve" smooth="yes"/>
      <point x="623" y="60"/>
      <point x="757" y="194"/>
      <point x="757" y="360" type="curve" smooth="yes"/>
      <point x="757" y="526"/>
      <point x="623" y="660"/>
      <point x="457" y="660" type="curve" smooth="yes"/>
      <point x="291" y="660"/>
      <point x="157" y="526"/>
      <point x="157" y="360" type="curve" smooth="yes"/>
      <point x="157" y="194"/>
      <point x="291" y="60"/>
    </contour>
    <contour>
      <point x="457" y="-67" type="curve" smooth="yes"/>
      <point x="221" y="-67"/>
      <point x="30" y="124"/>
      <point x="30" y="360" type="curve" smooth="yes"/>
      <point x="30" y="596"/>
      <point x="221" y="787"/>
      <point x="457" y="787" type="curve" smooth="yes"/>
      <point x="693" y="787"/>
      <point x="884" y="596"/>
      <point x="884" y="360" type="curve" smooth="yes"/>
      <point x="884" y="124"/>
      <point x="693" y="-67"/>
    </contour>
    <contour>
      <point x="650" y="439" type="line"/>
      <point x="639" y="488"/>
      <point x="611" y="524"/>
      <point x="573" y="547" type="curve" smooth="yes"/>
      <point x="539" y="568"/>
      <point x="511" y="574"/>
      <point x="468" y="574" type="curve" smooth="yes"/>
      <point x="400" y="574"/>
      <point x="353" y="551"/>
      <point x="315" y="506" type="curve" smooth="yes"/>
      <point x="281" y="467"/>
      <point x="265" y="417"/>
      <point x="265" y="360" type="curve" smooth="yes"/>
      <point x="265" y="305"/>
      <point x="280" y="257"/>
      <point x="315" y="213" type="curve" smooth="yes"/>
      <point x="351" y="167"/>
      <point x="399" y="146"/>
      <point x="466" y="146" type="curve" smooth="yes"/>
      <point x="518" y="146"/>
      <point x="548" y="155"/>
      <point x="584" y="181" type="curve" smooth="yes"/>
      <point x="615" y="204"/>
      <point x="639" y="242"/>
      <point x="650" y="281" type="curve"/>
      <point x="546" y="302" type="line"/>
      <point x="540" y="285"/>
      <point x="534" y="272"/>
      <point x="520" y="259" type="curve" smooth="yes"/>
      <point x="505" y="245"/>
      <point x="485" y="242"/>
      <point x="466" y="242" type="curve" smooth="yes"/>
      <point x="436" y="242"/>
      <point x="412" y="254"/>
      <point x="396" y="276" type="curve" smooth="yes"/>
      <point x="378" y="299"/>
      <point x="373" y="329"/>
      <point x="373" y="360" type="curve" smooth="yes"/>
      <point x="373" y="391"/>
      <point x="378" y="422"/>
      <point x="396" y="445" type="curve" smooth="yes"/>
      <point x="412" y="467"/>
      <point x="436" y="479"/>
      <point x="466" y="479" type="curve" smooth="yes"/>
      <point x="485" y="479"/>
      <point x="503" y="473"/>
      <point x="518" y="460" type="curve" smooth="yes"/>
      <point x="534" y="447"/>
      <point x="543" y="430"/>
      <point x="548" y="412" type="curve"/>
    </contour>
  </outline>
</glyph>
<glyph name="guillemetleft" format="2">
  <advance width="603"/>
  <unicode hex="00AB"/>
  <outline>
    <contour>
      <point x="257" y="92" type="line"/>
      <point x="80" y="315" type="line"/>
      <point x="257" y="538" type="line"/>
      <point x="328" y="482" type="line"/>
      <point x="195" y="315" type="line"/>
      <point x="328" y="148" type="line"/>
    </contour>
    <contour>
      <point x="472" y="92" type="line"/>
      <point x="295" y="315" type="line"/>
      <point x="472" y="538" type="line"/>
      <point x="543" y="482" type="line"/>
      <point x="410" y="315" type="line"/>
      <point x="543" y="148" type="line"/>
    </contour>
  </outline>
</glyph>
<glyph name="logicalnot" format="2">
  <advance width="600"/>
  <unicode hex="00AC"/>
  <outline>
    <contour>
      <point x="60" y="298" type="line"/>
      <point x="540" y="298" type="line"/>
      <point x="540" y="403" type="line"/>
      <point x="60" y="403" type="line"/>
    </contour>
    <contour>
      <point x="435" y="183" type="line"/>
      <point x="540" y="183" type="line"/>
      <point x="540" y="403" type="line"/>
      <point x="435" y="403" type="line"/>
    </contour>
  </outline>
</glyph>
<glyph name="registered" format="2">
  <advance width="665"/>
  <unicode hex="00AE"/>
  <outline>
    <contour>
      <point x="332" y="793" type="curve" smooth="yes"/>
      <point x="188" y="793"/>
      <point x="70" y="675"/>
      <point x="70" y="531" type="curve" smooth="yes"/>
      <point x="70" y="386"/>
      <point x="188" y="268"/>
      <point x="332" y="268" type="curve" smooth="yes"/>
      <point x="477" y="268"/>
      <point x="595" y="386"/>
      <point x="595" y="531" type="curve" smooth="yes"/>
      <point x="595" y="675"/>
      <point x="477" y="793"/>
    </contour>
    <contour>
      <point x="333" y="706" type="curve" smooth="yes"/>
      <point x="428" y="706"/>
      <point x="508" y="628"/>
      <point x="508" y="531" type="curve" smooth="yes"/>
      <point x="508" y="436"/>
      <point x="428" y="356"/>
      <point x="333" y="356" type="curve" smooth="yes"/>
      <point x="236" y="356"/>
      <point x="158" y="436"/>
      <point x="158" y="531" type="curve" smooth="yes"/>
      <point x="158" y="628"/>
      <point x="236" y="706"/>
    </contour>
    <contour>
      <point x="249" y="650" type="line"/>
      <point x="249" y="412" type="line"/>
      <point x="294" y="412" type="line"/>
      <point x="294" y="493" type="line"/>
      <point x="344" y="493" type="line"/>
      <point x="383" y="412" type="line"/>
      <point x="434" y="412" type="line"/>
      <point x="390" y="501" type="line"/>
      <point x="418" y="517"/>
      <point x="431" y="542"/>
      <point x="431" y="571" type="curve" smooth="yes"/>
      <point x="429" y="619"/>
      <point x="400" y="650"/>
      <point x="349" y="650" type="curve" smooth="yes"/>
    </contour>
    <contour>
      <point x="294" y="607" type="line"/>
      <point x="351" y="607" type="line" smooth="yes"/>
      <point x="374" y="607"/>
      <point x="385" y="594"/>
      <point x="385" y="571" type="curve" smooth="yes"/>
      <point x="385" y="550"/>
      <point x="371" y="535"/>
      <point x="351" y="535" type="curve" smooth="yes"/>
      <point x="294" y="535" type="line"/>
    </contour>
  </outline>
</glyph>
<glyph name="twosuperior" format="2">
  <advance width="416"/>
  <unicode hex="00B2"/>
  <outline>
    <contour>
      <point x="50" y="270" type="line"/>
      <point x="366" y="270" type="line"/>
      <point x="366" y="350" type="line"/>
      <point x="154" y="350" type="line"/>
      <point x="161" y="331" type="line"/>
      <point x="283" y="439" type="line" smooth="yes"/>
      <point x="337" y="486"/>
      <point x="366" y="510"/>
      <point x="366" y="577" type="curve" smooth="yes"/>
      <point x="366" y="668"/>
      <point x="300" y="730"/>
      <point x="212" y="730" type="curve" smooth="yes"/>
      <point x="115" y="730"/>
      <point x="50" y="672"/>
      <point x="50" y="579" type="curve"/>
      <point x="138" y="579" type="line"/>
      <point x="136" y="617"/>
      <point x="167" y="650"/>
      <point x="210" y="650" type="curve" smooth="yes"/>
      <point x="251" y="650"/>
      <point x="278" y="620"/>
      <point x="278" y="578" type="curve" smooth="yes"/>
      <point x="278" y="559"/>
      <point x="267" y="537"/>
      <point x="239" y="512" type="curve" smooth="yes"/>
      <point x="50" y="344" type="line"/>
    </contour>
  </outline>
</glyph>
<glyph name="threesuperior" format="2">
  <advance width="409"/>
  <unicode hex="00B3"/>
  <outline>
    <contour>
      <point x="191" y="259" type="curve" smooth="yes"/>
      <point x="276" y="259"/>
      <point x="349" y="324"/>
      <point x="349" y="410" type="curve" smooth="yes"/>
      <point x="349" y="480"/>
      <point x="306" y="543"/>
      <point x="228" y="555" type="curve"/>
      <point x="229" y="531" type="line"/>
      <point x="341" y="639" type="line"/>
      <point x="341" y="720" type="line"/>
      <point x="58" y="720" type="line"/>
      <point x="58" y="639" type="line"/>
      <point x="268" y="639" type="line"/>
      <point x="261" y="658" type="line"/>
      <point x="117" y="538" type="line"/>
      <point x="156" y="471" type="line"/>
      <point x="166" y="477"/>
      <point x="178" y="481"/>
      <point x="191" y="481" type="curve" smooth="yes"/>
      <point x="232" y="481"/>
      <point x="262" y="449"/>
      <point x="262" y="410" type="curve" smooth="yes"/>
      <point x="262" y="371"/>
      <point x="230" y="340"/>
      <point x="191" y="340" type="curve" smooth="yes"/>
      <point x="161" y="340"/>
      <point x="132" y="358"/>
      <point x="123" y="392" type="curve"/>
      <point x="40" y="370" type="line"/>
      <point x="59" y="302"/>
      <point x="123" y="259"/>
    </contour>
  </outline>
</glyph>
<glyph name="paragraph" format="2">
  <advance width="742"/>
  <unicode hex="00B6"/>
  <outline>
    <contour>
      <point x="334" y="-141" type="line"/>
      <point x="470" y="-141" type="line"/>
      <point x="470" y="720" type="line"/>
      <point x="286" y="720" type="line" smooth="yes"/>
      <point x="281" y="720"/>
      <point x="254" y="720"/>
      <point x="226" y="716" type="curve" smooth="yes"/>
      <point x="97" y="698"/>
      <point x="40" y="601"/>
      <point x="40" y="482" type="curve" smooth="yes"/>
      <point x="40" y="361"/>
      <point x="100" y="266"/>
      <point x="226" y="248" type="curve" smooth="yes"/>
      <point x="254" y="244"/>
      <point x="282" y="244"/>
      <point x="286" y="244" type="curve" smooth="yes"/>
      <point x="334" y="244" type="line"/>
    </contour>
    <contour>
      <point x="566" y="-141" type="line"/>
      <point x="702" y="-141" type="line"/>
      <point x="702" y="720" type="line"/>
      <point x="566" y="720" type="line"/>
    </contour>
  </outline>
</glyph>
<glyph name="periodcentered" format="2">
  <advance width="640"/>
  <unicode hex="00B7"/>
  <outline>
    <contour>
      <point x="322" y="235" type="curve" smooth="yes"/>
      <point x="364" y="235"/>
      <point x="400" y="269"/>
      <point x="400" y="315" type="curve" smooth="yes"/>
      <point x="400" y="361"/>
      <point x="364" y="395"/>
      <point x="322" y="395" type="curve" smooth="yes"/>
      <point x="276" y="395"/>
      <point x="240" y="361"/>
      <point x="240" y="315" type="curve" smooth="yes"/>
      <point x="240" y="269"/>
      <point x="276" y="235"/>
    </contour>
  </outline>
</glyph>
<glyph name="onesuperior" format="2">
  <advance width="351"/>
  <unicode hex="00B9"/>
  <outline>
    <contour>
      <point x="143.875" y="270" type="line"/>
      <point x="230.75" y="270" type="line"/>
      <point x="230.75" y="720" type="line"/>
      <point x="143.875" y="720" type="line"/>
      <point x="59.5" y="669.375" type="line"/>
      <point x="59.5" y="575.625" type="line"/>
      <point x="143.875" y="627.5" type="line"/>
    </contour>
  </outline>
</glyph>
<glyph name="AE" format="2">
  <advance width="945"/>
  <unicode hex="00C6"/>
  <outline>
    <contour>
      <point x="20" y="0" type="line"/>
      <point x="160" y="0" type="line"/>
      <point x="194" y="112" type="line"/>
      <point x="425" y="112" type="line"/>
      <point x="425" y="0" type="line"/>
      <point x="895" y="0" type="line"/>
      <point x="895" y="127" type="line"/>
      <point x="561" y="127" type="line"/>
      <point x="561" y="312" type="line"/>
      <point x="835" y="312" type="line"/>
      <point x="835" y="439" type="line"/>
      <point x="561" y="439" type="line"/>
      <point x="561" y="593" type="line"/>
      <point x="895" y="593" type="line"/>
      <point x="895" y="720" type="line"/>
      <point x="240" y="720" type="line"/>
    </contour>
    <contour>
      <point x="233" y="240" type="line"/>
      <point x="338" y="584" type="line"/>
      <point x="425" y="584" type="line"/>
      <point x="425" y="240" type="line"/>
    </contour>
  </outline>
</glyph>
<glyph name="Eth" format="2">
  <advance width="714"/>
  <unicode hex="00D0"/>
  <outline>
    <contour>
      <point x="10" y="308" type="line"/>
      <point x="355" y="308" type="line"/>
      <point x="355" y="413" type="line"/>
      <point x="10" y="413" type="line"/>
    </contour>
    <component base="D" xOffset="4"/>
  </outline>
</glyph>
<glyph name="germandbls" format="2">
  <advance width="647"/>
  <unicode hex="00DF"/>
  <outline>
    <contour>
      <point x="70" y="0" type="line"/>
      <point x="207" y="0" type="line"/>
      <point x="207" y="493" type="line" smooth="yes"/>
      <point x="207" y="522"/>
      <point x="211" y="550"/>
      <point x="220" y="566" type="curve" smooth="yes"/>
      <point x="238" y="598"/>
      <point x="267" y="608"/>
      <point x="299" y="608" type="curve" smooth="yes"/>
      <point x="347" y="608"/>
      <point x="393" y="578"/>
      <point x="393" y="526" type="curve" smooth="yes"/>
      <point x="393" y="475"/>
      <point x="361" y="444"/>
      <point x="300" y="440" type="curve"/>
      <point x="300" y="322" type="line"/>
      <point x="389" y="322"/>
      <point x="451" y="292"/>
      <point x="451" y="216" type="curve" smooth="yes"/>
      <point x="451" y="149"/>
      <point x="406" y="118"/>
      <point x="336" y="118" type="curve" smooth="yes"/>
      <point x="305" y="118"/>
      <point x="280" y="126"/>
      <point x="263" y="133" type="curve"/>
      <point x="263" y="0" type="line"/>
      <point x="286" y="-10"/>
      <point x="312" y="-15"/>
      <point x="356" y="-15" type="curve" smooth="yes"/>
      <point x="505" y="-15"/>
      <point x="587" y="71"/>
      <point x="587" y="214" type="curve" smooth="yes"/>
      <point x="587" y="298"/>
      <point x="548" y="370"/>
      <point x="478" y="399" type="curve"/>
      <point x="514" y="433"/>
      <point x="530" y="478"/>
      <point x="530" y="529" type="curve" smooth="yes"/>
      <point x="530" y="646"/>
      <point x="427" y="735"/>
      <point x="299" y="735" type="curve" smooth="yes"/>
      <point x="202" y="735"/>
      <point x="109" y="695"/>
      <point x="78" y="594" type="curve" smooth="yes"/>
      <point x="72" y="574"/>
      <point x="70" y="555"/>
      <point x="70" y="530" type="curve" smooth="yes"/>
    </contour>
  </outline>
</glyph>
<glyph name="ae" format="2">
  <advance width="933"/>
  <unicode hex="00E6"/>
  <outline>
    <contour>
      <point x="180" y="381" type="line"/>
      <point x="187" y="392"/>
      <point x="196" y="403"/>
      <point x="209" y="411" type="curve"/>
      <point x="227" y="424"/>
      <point x="249" y="428"/>
      <point x="274" y="428" type="curve" smooth="yes"/>
      <point x="303" y="428"/>
      <point x="331" y="424"/>
      <point x="354" y="411" type="curve"/>
      <point x="381" y="397"/>
      <point x="397" y="370"/>
      <point x="397" y="339" type="curve"/>
      <point x="308" y="339" type="line" smooth="yes"/>
      <point x="224" y="339"/>
      <point x="186" y="334"/>
      <point x="135" y="309" type="curve"/>
      <point x="106" y="295"/>
      <point x="72" y="263"/>
      <point x="53" y="221" type="curve"/>
      <point x="29" y="166"/>
      <point x="40" y="105"/>
      <point x="72" y="60" type="curve"/>
      <point x="91" y="33"/>
      <point x="120" y="12"/>
      <point x="153" y="-1" type="curve"/>
      <point x="200" y="-19"/>
      <point x="286" y="-19"/>
      <point x="345" y="7" type="curve"/>
      <point x="381" y="23"/>
      <point x="412" y="48"/>
      <point x="440" y="84" type="curve"/>
      <point x="473" y="127"/>
      <point x="520" y="179"/>
      <point x="533" y="277" type="curve"/>
      <point x="533" y="339" type="line"/>
      <point x="533" y="420"/>
      <point x="487" y="489"/>
      <point x="419" y="525" type="curve"/>
      <point x="365" y="550"/>
      <point x="319" y="554"/>
      <point x="278" y="554" type="curve" smooth="yes"/>
      <point x="191" y="554"/>
      <point x="113" y="523"/>
      <point x="67" y="456" type="curve"/>
      <point x="63" y="451"/>
      <point x="59" y="445"/>
      <point x="56" y="440" type="curve"/>
    </contour>
    <contour>
      <point x="395" y="222" type="line"/>
      <point x="388" y="201"/>
      <point x="384" y="182"/>
      <point x="367" y="162" type="curve"/>
      <point x="352" y="144"/>
      <point x="332" y="132"/>
      <point x="309" y="123" type="curve"/>
      <point x="284" y="113"/>
      <point x="249" y="107"/>
      <point x="232" y="110" type="curve"/>
      <point x="218" y="111"/>
      <point x="198" y="118"/>
      <point x="185" y="134" type="curve"/>
      <point x="170" y="153"/>
      <point x="173" y="178"/>
      <point x="182" y="190" type="curve"/>
      <point x="195" y="207"/>
      <point x="225" y="219"/>
      <point x="251" y="221" type="curve"/>
      <point x="278" y="223"/>
      <point x="304" y="222"/>
      <point x="333" y="222" type="curve" smooth="yes"/>
    </contour>
    <component base="e" xScale="0.945" xOffset="357"/>
  </outline>
</glyph>
<glyph name="oslash" format="2">
  <advance width="627"/>
  <unicode hex="00F8"/>
  <outline>
    <contour>
      <point x="118" y="-15" type="line"/>
      <point x="599" y="464" type="line"/>
      <point x="509" y="555" type="line"/>
      <point x="28" y="75" type="line"/>
    </contour>
    <component base="o"/>
  </outline>
</glyph>
<glyph name="eogonek" format="2">
  <advance width="608"/>
  <unicode hex="0119"/>
  <outline>
    <contour>
      <point x="546" y="102" type="curve"/>
      <point x="461" y="116" type="line"/>
      <point x="436" y="89"/>
      <point x="408" y="46"/>
      <point x="394" y="24" type="curve" smooth="yes"/>
      <point x="380" y="2"/>
      <point x="357" y="-32"/>
      <point x="344" y="-62" type="curve" smooth="yes"/>
      <point x="324" y="-108"/>
      <point x="333" y="-162"/>
      <point x="359" y="-195" type="curve" smooth="yes"/>
      <point x="390" y="-235"/>
      <point x="448" y="-251"/>
      <point x="495" y="-230" type="curve" smooth="yes"/>
      <point x="517" y="-220"/>
      <point x="533" y="-205"/>
      <point x="543" y="-187" type="curve"/>
      <point x="496" y="-125" type="line"/>
      <point x="480" y="-138"/>
      <point x="454" y="-145"/>
      <point x="442" y="-131" type="curve" smooth="yes"/>
      <point x="433" y="-121"/>
      <point x="436" y="-103"/>
      <point x="438" y="-97" type="curve" smooth="yes"/>
      <point x="444" y="-78"/>
      <point x="456" y="-50"/>
      <point x="474" y="-18" type="curve" smooth="yes"/>
      <point x="492" y="14"/>
      <point x="515" y="53"/>
    </contour>
    <component base="e"/>
  </outline>
</glyph>
<glyph name="Hbar" format="2">
  <advance width="754"/>
  <unicode hex="0126"/>
  <outline>
    <contour>
      <point x="10" y="616" type="line"/>
      <point x="10" y="480" type="line"/>
      <point x="744" y="480" type="line"/>
      <point x="744" y="616" type="line"/>
    </contour>
    <component base="H"/>
  </outline>
</glyph>
<glyph name="idotless" format="2">
  <advance width="296"/>
  <unicode hex="0131"/>
  <outline>
    <contour>
      <point x="80" y="540" type="line"/>
      <point x="80" y="0" type="line"/>
      <point x="216" y="0" type="line"/>
      <point x="216" y="540" type="line"/>
    </contour>
  </outline>
</glyph>
<glyph name="Eng" format="2">
  <advance width="729"/>
  <unicode hex="014A"/>
  <outline>
    <contour>
      <point x="429" y="-229" type="line"/>
      <point x="465" y="-238"/>
      <point x="513" y="-244"/>
      <point x="562" y="-234" type="curve" smooth="yes"/>
      <point x="624" y="-221"/>
      <point x="659" y="-167"/>
      <point x="659" y="-88" type="curve" smooth="yes"/>
      <point x="659" y="144" type="line"/>
      <point x="424" y="164" type="line"/>
      <point x="479" y="85" type="line" smooth="yes"/>
      <point x="537" y="1"/>
      <point x="547" y="-50"/>
      <point x="547" y="-68" type="curve" smooth="yes"/>
      <point x="547" y="-149"/>
      <point x="460" y="-132"/>
      <point x="429" y="-129" type="curve"/>
    </contour>
    <component base="N"/>
  </outline>
</glyph>
<glyph name="eng" format="2">
  <advance width="636"/>
  <unicode hex="014B"/>
  <outline>
    <contour>
      <point x="346" y="-229" type="line"/>
      <point x="382" y="-238"/>
      <point x="422" y="-244"/>
      <point x="471" y="-234" type="curve" smooth="yes"/>
      <point x="537" y="-221"/>
      <point x="576" y="-167"/>
      <point x="576" y="-88" type="curve" smooth="yes"/>
      <point x="576" y="2" type="line"/>
      <point x="438" y="2" type="line"/>
      <point x="438" y="-66" type="line"/>
      <point x="438" y="-147"/>
      <point x="377" y="-136"/>
      <point x="346" y="-134" type="curve"/>
    </contour>
    <component base="n"/>
  </outline>
</glyph>
<glyph name="Tcedilla" format="2">
  <advance width="610"/>
  <unicode hex="0162"/>
  <outline>
    <contour>
      <point x="382" y="-79" type="curve"/>
      <point x="370" y="-59"/>
      <point x="352" y="-45"/>
      <point x="334" y="-36" type="curve"/>
      <point x="352" y="18" type="line"/>
      <point x="273" y="17" type="line"/>
      <point x="238" y="-85" type="line"/>
      <point x="270" y="-94"/>
      <point x="297" y="-101"/>
      <point x="302" y="-122" type="curve" smooth="yes"/>
      <point x="304" y="-130"/>
      <point x="302" y="-135"/>
      <point x="298" y="-141" type="curve" smooth="yes"/>
      <point x="294" y="-147"/>
      <point x="285" y="-151"/>
      <point x="275" y="-151" type="curve" smooth="yes"/>
      <point x="267" y="-151"/>
      <point x="258" y="-149"/>
      <point x="245" y="-145" type="curve"/>
      <point x="216" y="-223" type="line"/>
      <point x="233" y="-232"/>
      <point x="252" y="-239"/>
      <point x="274" y="-241" type="curve"/>
      <point x="316" y="-246"/>
      <point x="353" y="-228"/>
      <point x="377" y="-194" type="curve"/>
      <point x="399" y="-162"/>
      <point x="402" y="-113"/>
    </contour>
    <component base="T"/>
  </outline>
</glyph>
<glyph name="tcedilla" format="2">
  <advance width="464"/>
  <unicode hex="0163"/>
  <outline>
    <contour>
      <point x="294" y="-80" type="curve"/>
      <point x="282" y="-60"/>
      <point x="264" y="-46"/>
      <point x="246" y="-37" type="curve"/>
      <point x="264" y="17" type="line"/>
      <point x="197" y="51" type="line"/>
      <point x="150" y="-86" type="line"/>
      <point x="182" y="-95"/>
      <point x="209" y="-102"/>
      <point x="214" y="-123" type="curve" smooth="yes"/>
      <point x="216" y="-131"/>
      <point x="214" y="-136"/>
      <point x="210" y="-142" type="curve" smooth="yes"/>
      <point x="206" y="-148"/>
      <point x="197" y="-152"/>
      <point x="187" y="-152" type="curve" smooth="yes"/>
      <point x="179" y="-152"/>
      <point x="170" y="-150"/>
      <point x="157" y="-146" type="curve"/>
      <point x="128" y="-224" type="line"/>
      <point x="145" y="-233"/>
      <point x="164" y="-240"/>
      <point x="186" y="-242" type="curve"/>
      <point x="228" y="-247"/>
      <point x="265" y="-229"/>
      <point x="289" y="-195" type="curve"/>
      <point x="311" y="-163"/>
      <point x="314" y="-114"/>
    </contour>
    <component base="t"/>
  </outline>
</glyph>
<glyph name="Tbar" format="2">
  <advance width="610"/>
  <unicode hex="0166"/>
  <outline>
    <contour>
      <point x="65" y="292" type="line"/>
      <point x="545" y="292" type="line"/>
      <point x="545" y="428" type="line"/>
      <point x="65" y="428" type="line"/>
    </contour>
    <component base="T"/>
  </outline>
</glyph>
<glyph name="tbar" format="2">
  <advance width="464"/>
  <unicode hex="0167"/>
  <outline>
    <contour>
      <point x="10" y="333" type="line"/>
      <point x="10" y="228" type="line"/>
      <point x="414" y="228" type="line"/>
      <point x="414" y="333" type="line"/>
    </contour>
    <component base="t"/>
  </outline>
</glyph>
<glyph name="Uogonek" format="2">
  <advance width="726"/>
  <unicode hex="0172"/>
  <outline>
    <contour>
      <point x="555" y="50" type="curve"/>
      <point x="464" y="66" type="line"/>
      <point x="427" y="53"/>
      <point x="393" y="32"/>
      <point x="366" y="5" type="curve" smooth="yes"/>
      <point x="346" y="-15"/>
      <point x="330" y="-37"/>
      <point x="319" y="-62" type="curve"/>
      <point x="300" y="-109"/>
      <point x="306" y="-163"/>
      <point x="334" y="-195" type="curve"/>
      <point x="366" y="-236"/>
      <point x="424" y="-253"/>
      <point x="470" y="-230" type="curve"/>
      <point x="492" y="-220"/>
      <point x="508" y="-205"/>
      <point x="518" y="-187" type="curve"/>
      <point x="471" y="-125" type="line"/>
      <point x="455" y="-138"/>
      <point x="427" y="-146"/>
      <point x="417" y="-131" type="curve"/>
      <point x="407" y="-121"/>
      <point x="413" y="-103"/>
      <point x="415" y="-98" type="curve"/>
      <point x="423" y="-80"/>
      <point x="436" y="-63"/>
      <point x="450" y="-45" type="curve" smooth="yes"/>
      <point x="464" y="-27"/>
      <point x="502" y="5"/>
    </contour>
    <component base="U"/>
  </outline>
</glyph>
<glyph name="florin" format="2">
  <advance width="746"/>
  <unicode hex="0192"/>
  <outline>
    <contour>
      <point x="197" y="-15" type="curve" smooth="yes"/>
      <point x="318" y="-15"/>
      <point x="387" y="72"/>
      <point x="409" y="204" type="curve" smooth="yes"/>
      <point x="464" y="536" type="line" smooth="yes"/>
      <point x="472" y="583"/>
      <point x="514" y="607"/>
      <point x="559" y="607" type="curve" smooth="yes"/>
      <point x="595" y="607"/>
      <point x="627" y="591"/>
      <point x="624" y="591" type="curve"/>
      <point x="686" y="703" type="line"/>
      <point x="643" y="723"/>
      <point x="595" y="735"/>
      <point x="544" y="735" type="curve" smooth="yes"/>
      <point x="355" y="735"/>
      <point x="326" y="567"/>
      <point x="316" y="504" type="curve" smooth="yes"/>
      <point x="271" y="223" type="line" smooth="yes"/>
      <point x="264" y="176"/>
      <point x="246" y="113"/>
      <point x="185" y="113" type="curve" smooth="yes"/>
      <point x="164" y="113"/>
      <point x="135" y="120"/>
      <point x="117" y="130" type="curve"/>
      <point x="60" y="16" type="line"/>
      <point x="101" y="-2"/>
      <point x="151" y="-15"/>
    </contour>
    <contour>
      <point x="151" y="308" type="line"/>
      <point x="614" y="308" type="line"/>
      <point x="614" y="413" type="line"/>
      <point x="151" y="413" type="line"/>
    </contour>
  </outline>
</glyph>
<glyph name="acutecomb" format="2">
  <unicode hex="0301"/>
  <outline>
    <contour>
      <point x="154" y="785" type="line"/>
      <point x="120" y="883" type="line"/>
      <point x="402" y="980" type="line"/>
      <point x="435" y="881" type="line"/>
    </contour>
  </outline>
</glyph>
<glyph name="circumflexcomb" format="2">
  <unicode hex="0302"/>
  <outline>
    <contour>
      <point x="168" y="786" type="line"/>
      <point x="120" y="879" type="line"/>
      <point x="300" y="973" type="line"/>
      <point x="480" y="879" type="line"/>
      <point x="432" y="786" type="line"/>
      <point x="300" y="854" type="line"/>
    </contour>
  </outline>
</glyph>
<glyph name="tildecomb" format="2">
  <unicode hex="0303"/>
  <outline>
    <contour>
      <point x="467" y="944" type="curve"/>
      <point x="388" y="944" type="line"/>
      <point x="394" y="926"/>
      <point x="390" y="909"/>
      <point x="368" y="907" type="curve"/>
      <point x="343" y="905"/>
      <point x="318" y="924"/>
      <point x="293" y="936" type="curve"/>
      <point x="260" y="953"/>
      <point x="225" y="961"/>
      <point x="191" y="952" type="curve"/>
      <point x="167" y="946"/>
      <point x="146" y="930"/>
      <point x="133" y="908" type="curve"/>
      <point x="120" y="886"/>
      <point x="117" y="851"/>
      <point x="123" y="823" type="curve"/>
      <point x="202" y="823" type="line"/>
      <point x="196" y="842"/>
      <point x="200" y="858"/>
      <point x="223" y="860" type="curve"/>
      <point x="247" y="862"/>
      <point x="272" y="843"/>
      <point x="297" y="831" type="curve"/>
      <point x="330" y="814"/>
      <point x="365" y="806"/>
      <point x="399" y="815" type="curve"/>
      <point x="423" y="821"/>
      <point x="444" y="838"/>
      <point x="457" y="859" type="curve"/>
      <point x="470" y="880"/>
      <point x="473" y="916"/>
    </contour>
  </outline>
</glyph>
<glyph name="brevecomb" format="2">
  <unicode hex="0306"/>
  <outline>
    <contour>
      <point x="333" y="939" type="line"/>
      <point x="333" y="909"/>
      <point x="309" y="885"/>
      <point x="279" y="885" type="curve"/>
      <point x="249" y="885"/>
      <point x="225" y="909"/>
      <point x="225" y="939" type="curve"/>
      <point x="120" y="939" type="line"/>
      <point x="120" y="851"/>
      <point x="191" y="780"/>
      <point x="279" y="780" type="curve"/>
      <point x="367" y="780"/>
      <point x="438" y="851"/>
      <point x="438" y="939" type="curve"/>
    </contour>
  </outline>
</glyph>
<glyph name="dotaccentcomb" format="2">
  <unicode hex="0307"/>
  <outline>
    <contour>
      <point x="120" y="960" type="line"/>
      <point x="120" y="824" type="line"/>
      <point x="256" y="824" type="line"/>
      <point x="256" y="960" type="line"/>
    </contour>
  </outline>
</glyph>
<glyph name="dieresiscomb" format="2">
  <unicode hex="0308"/>
  <outline>
    <contour>
      <point x="120" y="960" type="line"/>
      <point x="120" y="840" type="line"/>
      <point x="240" y="840" type="line"/>
      <point x="240" y="960" type="line"/>
    </contour>
    <contour>
      <point x="332" y="960" type="line"/>
      <point x="332" y="840" type="line"/>
      <point x="452" y="840" type="line"/>
      <point x="452" y="960" type="line"/>
    </contour>
  </outline>
</glyph>
<glyph name="ringcomb" format="2">
  <unicode hex="030A"/>
  <outline>
    <contour>
      <point x="285" y="935" type="curve"/>
      <point x="200" y="935"/>
      <point x="130" y="865"/>
      <point x="130" y="780" type="curve"/>
      <point x="130" y="695"/>
      <point x="200" y="625"/>
      <point x="285" y="625" type="curve"/>
      <point x="370" y="625"/>
      <point x="440" y="695"/>
      <point x="440" y="780" type="curve"/>
      <point x="440" y="865"/>
      <point x="370" y="935"/>
    </contour>
    <contour>
      <point x="285" y="840" type="curve"/>
      <point x="318" y="840"/>
      <point x="345" y="813"/>
      <point x="345" y="780" type="curve"/>
      <point x="345" y="747"/>
      <point x="318" y="720"/>
      <point x="285" y="720" type="curve"/>
      <point x="252" y="720"/>
      <point x="225" y="747"/>
      <point x="225" y="780" type="curve"/>
      <point x="225" y="813"/>
      <point x="252" y="840"/>
    </contour>
  </outline>
</glyph>
<glyph name="hungarumlautcomb" format="2">
  <unicode hex="030B"/>
  <outline>
    <contour>
      <point x="183" y="791" type="line"/>
      <point x="120" y="856" type="line"/>
      <point x="247" y="980" type="line"/>
      <point x="310" y="916" type="line"/>
    </contour>
    <contour>
      <point x="351" y="791" type="line"/>
      <point x="288" y="856" type="line"/>
      <point x="415" y="980" type="line"/>
      <point x="478" y="916" type="line"/>
    </contour>
  </outline>
</glyph>
<glyph name="commaaccentcomb" format="2">
  <unicode hex="0326"/>
  <outline>
    <contour>
      <point x="248" y="-188" type="curve"/>
      <point x="248" y="-60" type="line"/>
      <point x="120" y="-60" type="line"/>
      <point x="120" y="-188" type="line"/>
      <point x="191" y="-188" type="line"/>
      <point x="191" y="-238"/>
      <point x="136" y="-243"/>
      <point x="120" y="-243" type="curve"/>
      <point x="120" y="-300" type="line"/>
      <point x="196" y="-300"/>
      <point x="248" y="-254"/>
    </contour>
  </outline>
</glyph>
<glyph name="cedillacomb" format="2">
  <unicode hex="0327"/>
  <outline>
    <contour>
      <point x="286" y="-79" type="curve"/>
      <point x="274" y="-59"/>
      <point x="256" y="-45"/>
      <point x="238" y="-36" type="curve"/>
      <point x="256" y="18" type="line"/>
      <point x="177" y="17" type="line"/>
      <point x="142" y="-85" type="line"/>
      <point x="174" y="-94"/>
      <point x="201" y="-101"/>
      <point x="206" y="-122" type="curve" smooth="yes"/>
      <point x="208" y="-130"/>
      <point x="206" y="-135"/>
      <point x="202" y="-141" type="curve" smooth="yes"/>
      <point x="198" y="-147"/>
      <point x="189" y="-151"/>
      <point x="179" y="-151" type="curve" smooth="yes"/>
      <point x="171" y="-151"/>
      <point x="162" y="-149"/>
      <point x="149" y="-145" type="curve"/>
      <point x="120" y="-223" type="line"/>
      <point x="137" y="-232"/>
      <point x="156" y="-239"/>
      <point x="178" y="-241" type="curve"/>
      <point x="220" y="-246"/>
      <point x="257" y="-228"/>
      <point x="281" y="-194" type="curve"/>
      <point x="303" y="-162"/>
      <point x="306" y="-113"/>
    </contour>
  </outline>
</glyph>
<glyph name="ogonekcomb" format="2">
  <unicode hex="0328"/>
  <outline>
    <contour>
      <point x="317" y="0" type="curve"/>
      <point x="276" y="66" type="line"/>
      <point x="156" y="15"/>
      <point x="73" y="-113"/>
      <point x="146" y="-200" type="curve" smooth="yes"/>
      <point x="196" y="-260"/>
      <point x="287" y="-247"/>
      <point x="330" y="-187" type="curve"/>
      <point x="283" y="-125" type="line"/>
      <point x="263" y="-142"/>
      <point x="239" y="-146"/>
      <point x="229" y="-131" type="curve"/>
      <point x="204" y="-106"/>
      <point x="263" y="-37"/>
    </contour>
  </outline>
</glyph>
<glyph name="slashshortcomb" format="2">
  <unicode hex="0337"/>
  <outline>
    <contour>
      <point x="38" y="161" type="line"/>
      <point x="38" y="307.679" type="line"/>
      <point x="398" y="514" type="line"/>
      <point x="398" y="366.957" type="line"/>
    </contour>
  </outline>
</glyph>
<glyph name="slashlongcomb" format="2">
  <unicode hex="0338"/>
  <outline>
    <contour>
      <point x="90" y="0" type="line"/>
      <point x="720" y="629" type="line"/>
      <point x="630" y="720" type="line"/>
      <point x="0" y="90" type="line"/>
    </contour>
  </outline>
</glyph>
<glyph name="tonos" format="2">
  <advance width="600"/>
  <unicode hex="0384"/>
  <outline>
    <contour>
      <point x="317" y="640" type="line"/>
      <point x="216" y="640" type="line"/>
      <point x="283" y="860" type="line"/>
      <point x="384" y="860" type="line"/>
    </contour>
  </outline>
</glyph>
<glyph name="dieresistonos" format="2">
  <advance width="600"/>
  <unicode hex="0385"/>
  <outline>
    <contour>
      <point x="82" y="720" type="line"/>
      <point x="82" y="600" type="line"/>
      <point x="187" y="600" type="line"/>
      <point x="187" y="720" type="line"/>
    </contour>
    <contour>
      <point x="413" y="720" type="line"/>
      <point x="413" y="600" type="line"/>
      <point x="518" y="600" type="line"/>
      <point x="518" y="720" type="line"/>
    </contour>
    <component base="tonos" xOffset="17"/>
  </outline>
</glyph>
<glyph name="Delta" format="2">
  <advance width="683"/>
  <unicode hex="0394"/>
  <outline>
    <contour>
      <point x="115" y="0" type="line"/>
      <point x="570" y="0" type="line"/>
      <point x="570" y="127" type="line"/>
      <point x="115" y="127" type="line"/>
    </contour>
    <component base="Lambda" xOffset="15"/>
  </outline>
</glyph>
<glyph name="Xi" format="2">
  <advance width="734"/>
  <unicode hex="039E"/>
  <outline>
    <contour>
      <point x="70" y="593" type="line"/>
      <point x="664" y="593" type="line"/>
      <point x="664" y="720" type="line"/>
      <point x="70" y="720" type="line"/>
    </contour>
    <contour>
      <point x="70" y="0" type="line"/>
      <point x="664" y="0" type="line"/>
      <point x="664" y="127" type="line"/>
      <point x="70" y="127" type="line"/>
    </contour>
    <contour>
      <point x="120" y="297" type="line"/>
      <point x="614" y="297" type="line"/>
      <point x="614" y="424" type="line"/>
      <point x="120" y="424" type="line"/>
    </contour>
  </outline>
</glyph>
<glyph name="Sigma" format="2">
  <advance width="630"/>
  <unicode hex="03A3"/>
  <outline>
    <contour>
      <point x="70" y="720" type="line"/>
      <point x="70" y="598" type="line"/>
      <point x="304" y="360" type="line"/>
      <point x="70" y="122" type="line"/>
      <point x="70" y="0" type="line"/>
      <point x="560" y="0" type="line"/>
      <point x="560" y="127" type="line"/>
      <point x="238" y="127" type="line"/>
      <point x="458" y="351" type="line"/>
      <point x="458" y="369" type="line"/>
      <point x="238" y="593" type="line"/>
      <point x="560" y="593" type="line"/>
      <point x="560" y="720" type="line"/>
    </contour>
  </outline>
</glyph>
<glyph name="Psi" format="2">
  <advance width="766"/>
  <unicode hex="03A8"/>
  <outline>
    <contour>
      <point x="696" y="720" type="line"/>
      <point x="569" y="720" type="line"/>
      <point x="569" y="408" type="line" smooth="yes"/>
      <point x="569" y="392"/>
      <point x="568" y="378"/>
      <point x="565" y="363" type="curve" smooth="yes"/>
      <point x="551" y="294"/>
      <point x="500" y="277"/>
      <point x="441" y="277" type="curve" smooth="yes"/>
      <point x="325" y="277" type="line" smooth="yes"/>
      <point x="269" y="277"/>
      <point x="221" y="286"/>
      <point x="203" y="355" type="curve" smooth="yes"/>
      <point x="198" y="374"/>
      <point x="197" y="391"/>
      <point x="197" y="408" type="curve" smooth="yes"/>
      <point x="197" y="720" type="line"/>
      <point x="70" y="720" type="line"/>
      <point x="70" y="395" type="line" smooth="yes"/>
      <point x="70" y="376"/>
      <point x="72" y="346"/>
      <point x="77" y="323" type="curve" smooth="yes"/>
      <point x="107" y="185"/>
      <point x="219" y="150"/>
      <point x="345" y="150" type="curve" smooth="yes"/>
      <point x="421" y="150" type="line" smooth="yes"/>
      <point x="545" y="150"/>
      <point x="659" y="189"/>
      <point x="689" y="325" type="curve" smooth="yes"/>
      <point x="694" y="348"/>
      <point x="696" y="371"/>
      <point x="696" y="395" type="curve" smooth="yes"/>
    </contour>
    <contour>
      <point x="315" y="720" type="line"/>
      <point x="315" y="0" type="line"/>
      <point x="451" y="0" type="line"/>
      <point x="451" y="720" type="line"/>
    </contour>
  </outline>
</glyph>
<glyph name="Omega" format="2">
  <advance width="758"/>
  <unicode hex="03A9"/>
  <outline>
    <contour>
      <point x="40" y="0" type="line"/>
      <point x="300" y="0" type="line"/>
      <point x="300" y="127" type="line"/>
      <point x="240" y="158"/>
      <point x="174" y="239"/>
      <point x="174" y="364" type="curve" smooth="yes"/>
      <point x="174" y="499"/>
      <point x="252" y="607"/>
      <point x="379" y="607" type="curve" smooth="yes"/>
      <point x="506" y="607"/>
      <point x="584" y="499"/>
      <point x="584" y="363" type="curve" smooth="yes"/>
      <point x="584" y="243"/>
      <point x="523" y="158"/>
      <point x="462" y="127" type="curve"/>
      <point x="462" y="0" type="line"/>
      <point x="718" y="0" type="line"/>
      <point x="718" y="127" type="line"/>
      <point x="625" y="127" type="line"/>
      <point x="690" y="187"/>
      <point x="728" y="278"/>
      <point x="728" y="382" type="curve" smooth="yes"/>
      <point x="728" y="581"/>
      <point x="588" y="735"/>
      <point x="379" y="735" type="curve" smooth="yes"/>
      <point x="170" y="735"/>
      <point x="30" y="581"/>
      <point x="30" y="382" type="curve" smooth="yes"/>
      <point x="30" y="278"/>
      <point x="68" y="187"/>
      <point x="133" y="127" type="curve"/>
      <point x="40" y="127" type="line"/>
    </contour>
  </outline>
</glyph>
<glyph name="alpha" format="2">
  <advance width="635"/>
  <unicode hex="03B1"/>
  <outline>
    <contour>
      <point x="292" y="-15" type="curve" smooth="yes"/>
      <point x="353" y="-15"/>
      <point x="406" y="5"/>
      <point x="445" y="39" type="curve"/>
      <point x="445" y="0" type="line"/>
      <point x="565" y="0" type="line"/>
      <point x="565" y="540" type="line"/>
      <point x="445" y="540" type="line"/>
      <point x="445" y="502" type="line"/>
      <point x="407" y="536"/>
      <point x="357" y="555"/>
      <point x="296" y="555" type="curve" smooth="yes"/>
      <point x="141" y="555"/>
      <point x="40" y="435"/>
      <point x="40" y="270" type="curve" smooth="yes"/>
      <point x="40" y="108"/>
      <point x="139" y="-15"/>
    </contour>
    <contour>
      <point x="314" y="106" type="curve" smooth="yes"/>
      <point x="222" y="106"/>
      <point x="184" y="180"/>
      <point x="184" y="269" type="curve" smooth="yes"/>
      <point x="184" y="372"/>
      <point x="234" y="434"/>
      <point x="316" y="434" type="curve" smooth="yes"/>
      <point x="401" y="434"/>
      <point x="435" y="368"/>
      <point x="435" y="270" type="curve" smooth="yes"/>
      <point x="435" y="172"/>
      <point x="401" y="106"/>
    </contour>
  </outline>
</glyph>
<glyph name="delta" format="2">
  <advance width="627"/>
  <unicode hex="03B4"/>
  <outline>
    <contour>
      <point x="310" y="-15" type="curve" smooth="yes"/>
      <point x="476" y="-15"/>
      <point x="587" y="92"/>
      <point x="587" y="244" type="curve" smooth="yes"/>
      <point x="587" y="395"/>
      <point x="476" y="502"/>
      <point x="313" y="502" type="curve"/>
      <point x="313" y="451" type="line"/>
      <point x="142" y="486"/>
      <point x="40" y="376"/>
      <point x="40" y="233" type="curve" smooth="yes"/>
      <point x="40" y="83"/>
      <point x="151" y="-15"/>
    </contour>
    <contour>
      <point x="314" y="112" type="curve" smooth="yes"/>
      <point x="239" y="112"/>
      <point x="197" y="159"/>
      <point x="197" y="244" type="curve" smooth="yes"/>
      <point x="197" y="326"/>
      <point x="237" y="376"/>
      <point x="314" y="376" type="curve" smooth="yes"/>
      <point x="389" y="376"/>
      <point x="431" y="326"/>
      <point x="431" y="244" type="curve" smooth="yes"/>
      <point x="431" y="164"/>
      <point x="391" y="112"/>
    </contour>
    <contour>
      <point x="388" y="390" type="curve"/>
      <point x="437" y="478" type="line"/>
      <point x="355" y="514"/>
      <point x="256" y="529"/>
      <point x="256" y="582" type="curve" smooth="yes"/>
      <point x="256" y="603"/>
      <point x="271" y="615"/>
      <point x="291" y="621" type="curve" smooth="yes"/>
      <point x="306" y="625"/>
      <point x="323" y="625"/>
      <point x="346" y="625" type="curve" smooth="yes"/>
      <point x="471" y="625" type="line"/>
      <point x="471" y="735" type="line"/>
      <point x="315" y="735" type="line" smooth="yes"/>
      <point x="279" y="735"/>
      <point x="266" y="735"/>
      <point x="250" y="733" type="curve" smooth="yes"/>
      <point x="146" y="720"/>
      <point x="120" y="644"/>
      <point x="120" y="589" type="curve" smooth="yes"/>
      <point x="120" y="454"/>
      <point x="276" y="419"/>
    </contour>
  </outline>
</glyph>
<glyph name="zeta" format="2">
  <advance width="553"/>
  <unicode hex="03B6"/>
  <outline>
    <contour>
      <point x="377" y="650" type="line"/>
      <point x="288" y="570"/>
      <point x="239" y="525"/>
      <point x="182" y="474" type="curve" smooth="yes"/>
      <point x="70" y="375"/>
      <point x="40" y="288"/>
      <point x="40" y="220" type="curve" smooth="yes"/>
      <point x="40" y="72"/>
      <point x="115" y="0"/>
      <point x="263" y="0" type="curve" smooth="yes"/>
      <point x="344" y="0"/>
      <point x="407" y="-9"/>
      <point x="407" y="-120" type="curve"/>
      <point x="525" y="-120" type="line"/>
      <point x="545" y="-3"/>
      <point x="508" y="87"/>
      <point x="437" y="112" type="curve" smooth="yes"/>
      <point x="395" y="127"/>
      <point x="362" y="127"/>
      <point x="318" y="127" type="curve" smooth="yes"/>
      <point x="243" y="127"/>
      <point x="184" y="146"/>
      <point x="184" y="210" type="curve" smooth="yes"/>
      <point x="184" y="280"/>
      <point x="219" y="336"/>
      <point x="310" y="419" type="curve" smooth="yes"/>
      <point x="367" y="471"/>
      <point x="429" y="529"/>
      <point x="533" y="622" type="curve"/>
    </contour>
    <contour>
      <point x="70" y="720" type="line"/>
      <point x="70" y="600" type="line"/>
      <point x="385" y="600" type="line"/>
      <point x="533" y="622" type="line"/>
      <point x="533" y="720" type="line"/>
    </contour>
  </outline>
</glyph>
<glyph name="theta" format="2">
  <advance width="618"/>
  <unicode hex="03B8"/>
  <outline>
    <contour>
      <point x="309" y="-15" type="curve" smooth="yes"/>
      <point x="495" y="-15"/>
      <point x="588" y="166"/>
      <point x="588" y="360" type="curve" smooth="yes"/>
      <point x="588" y="554"/>
      <point x="495" y="735"/>
      <point x="309" y="735" type="curve" smooth="yes"/>
      <point x="123" y="735"/>
      <point x="30" y="554"/>
      <point x="30" y="360" type="curve" smooth="yes"/>
      <point x="30" y="166"/>
      <point x="123" y="-15"/>
    </contour>
    <contour>
      <point x="309" y="113" type="curve" smooth="yes"/>
      <point x="218" y="115"/>
      <point x="184" y="212"/>
      <point x="176" y="308" type="curve"/>
      <point x="442" y="308" type="line"/>
      <point x="434" y="211"/>
      <point x="400" y="111"/>
    </contour>
    <contour>
      <point x="176" y="412" type="line"/>
      <point x="184" y="509"/>
      <point x="218" y="609"/>
      <point x="309" y="607" type="curve" smooth="yes"/>
      <point x="400" y="605"/>
      <point x="434" y="508"/>
      <point x="442" y="412" type="curve"/>
    </contour>
  </outline>
</glyph>
<glyph name="iota" format="2">
  <advance width="382"/>
  <unicode hex="03B9"/>
  <outline>
    <contour>
      <point x="214" y="-4" type="curve" smooth="yes"/>
      <point x="254" y="-11"/>
      <point x="330" y="-12"/>
      <point x="372" y="0" type="curve"/>
      <point x="372" y="113" type="line"/>
      <point x="343" y="109"/>
      <point x="310" y="107"/>
      <point x="284" y="109" type="curve" smooth="yes"/>
      <point x="263" y="111"/>
      <point x="240" y="119"/>
      <point x="227" y="140" type="curve" smooth="yes"/>
      <point x="214" y="161"/>
      <point x="216" y="193"/>
      <point x="216" y="237" type="curve" smooth="yes"/>
      <point x="216" y="540" type="line"/>
      <point x="80" y="540" type="line"/>
      <point x="80" y="229" type="line" smooth="yes"/>
      <point x="80" y="156"/>
      <point x="74" y="111"/>
      <point x="104" y="64" type="curve" smooth="yes"/>
      <point x="135" y="16"/>
      <point x="176" y="3"/>
    </contour>
  </outline>
</glyph>
<glyph name="lambda" format="2">
  <advance width="568"/>
  <unicode hex="03BB"/>
  <outline>
    <contour>
      <point x="73" y="735" type="line"/>
      <point x="73" y="616" type="line"/>
      <point x="99" y="616" type="line" smooth="yes"/>
      <point x="165" y="616"/>
      <point x="193" y="596"/>
      <point x="216" y="540" type="curve" smooth="yes"/>
      <point x="284" y="374"/>
      <point x="385" y="447"/>
      <point x="352" y="540" type="curve" smooth="yes"/>
      <point x="315" y="645"/>
      <point x="280" y="710"/>
      <point x="200" y="727" type="curve" smooth="yes"/>
      <point x="169" y="734"/>
      <point x="136" y="735"/>
      <point x="112" y="735" type="curve" smooth="yes"/>
    </contour>
    <component base="v" yScale="-1" yOffset="540"/>
  </outline>
</glyph>
<glyph name="mu" format="2">
  <advance width="646"/>
  <unicode hex="03BC"/>
  <outline>
    <contour>
      <point x="576" y="0" type="line"/>
      <point x="576" y="540" type="line"/>
      <point x="439" y="540" type="line"/>
      <point x="439" y="190" type="line"/>
      <point x="456" y="190" type="line"/>
      <point x="456" y="0" type="line"/>
    </contour>
    <component base="n-curve" xScale="-1" yScale="-1" xOffset="537" yOffset="540"/>
    <component base="line-vertical-ac" yScale="-1" xOffset="70" yOffset="300"/>
  </outline>
</glyph>
<glyph name="xi" format="2">
  <advance width="590"/>
  <unicode hex="03BE"/>
  <outline>
    <contour>
      <point x="40" y="207" type="curve" smooth="yes"/>
      <point x="40" y="88"/>
      <point x="136" y="0"/>
      <point x="310" y="0" type="curve" smooth="yes"/>
      <point x="401" y="0"/>
      <point x="464" y="-9"/>
      <point x="454" y="-120" type="curve"/>
      <point x="572" y="-120" type="line"/>
      <point x="602" y="7"/>
      <point x="546" y="88"/>
      <point x="475" y="112" type="curve" smooth="yes"/>
      <point x="436" y="125"/>
      <point x="400" y="127"/>
      <point x="355" y="127" type="curve" smooth="yes"/>
      <point x="256" y="127"/>
      <point x="184" y="153"/>
      <point x="184" y="223" type="curve" smooth="yes"/>
      <point x="184" y="292"/>
      <point x="236" y="314"/>
      <point x="324" y="316" type="curve" smooth="yes"/>
      <point x="360" y="317"/>
      <point x="388" y="318"/>
      <point x="404" y="318" type="curve"/>
      <point x="404" y="446" type="line"/>
      <point x="388" y="446"/>
      <point x="372" y="446"/>
      <point x="337" y="447" type="curve" smooth="yes"/>
      <point x="267" y="449"/>
      <point x="214" y="475"/>
      <point x="214" y="533" type="curve" smooth="yes"/>
      <point x="214" y="585"/>
      <point x="259" y="608"/>
      <point x="329" y="608" type="curve" smooth="yes"/>
      <point x="395" y="608"/>
      <point x="450" y="574"/>
      <point x="474" y="540" type="curve"/>
      <point x="567" y="640" type="line"/>
      <point x="517" y="692"/>
      <point x="429" y="735"/>
      <point x="329" y="735" type="curve" smooth="yes"/>
      <point x="196" y="735"/>
      <point x="70" y="680"/>
      <point x="70" y="533" type="curve" smooth="yes"/>
      <point x="70" y="472"/>
      <point x="95" y="421"/>
      <point x="134" y="382" type="curve"/>
      <point x="62" y="351"/>
      <point x="40" y="289"/>
    </contour>
  </outline>
</glyph>
<glyph name="pi" format="2">
  <advance width="682"/>
  <unicode hex="03C0"/>
  <outline>
    <contour>
      <point x="120" y="0" type="line"/>
      <point x="256" y="0" type="line"/>
      <point x="256" y="413" type="line"/>
      <point x="426" y="413" type="line"/>
      <point x="426" y="0" type="line"/>
      <point x="562" y="0" type="line"/>
      <point x="562" y="413" type="line"/>
      <point x="642" y="413" type="line"/>
      <point x="642" y="540" type="line"/>
      <point x="40" y="540" type="line"/>
      <point x="40" y="413" type="line"/>
      <point x="120" y="413" type="line"/>
    </contour>
  </outline>
</glyph>
<glyph name="rho" format="2">
  <advance width="649"/>
  <unicode hex="03C1"/>
  <outline>
    <contour>
      <point x="70" y="230" type="line"/>
      <point x="70" y="-240" type="line"/>
      <point x="207" y="-240" type="line"/>
      <point x="207" y="230" type="line"/>
    </contour>
    <contour>
      <point x="353" y="555" type="curve" smooth="yes"/>
      <point x="198" y="555"/>
      <point x="103" y="475"/>
      <point x="77" y="340" type="curve" smooth="yes"/>
      <point x="71" y="311"/>
      <point x="70" y="274"/>
      <point x="70" y="230" type="curve"/>
      <point x="158" y="129" type="line"/>
      <point x="158" y="49"/>
      <point x="244" y="-15"/>
      <point x="360" y="-15" type="curve" smooth="yes"/>
      <point x="509" y="-15"/>
      <point x="609" y="108"/>
      <point x="609" y="270" type="curve" smooth="yes"/>
      <point x="609" y="435"/>
      <point x="508" y="555"/>
    </contour>
    <contour>
      <point x="339" y="434" type="curve" smooth="yes"/>
      <point x="428" y="434"/>
      <point x="473" y="370"/>
      <point x="473" y="270" type="curve"/>
      <point x="473" y="173"/>
      <point x="429" y="106"/>
      <point x="339" y="106" type="curve" smooth="yes"/>
      <point x="251" y="106"/>
      <point x="206" y="169"/>
      <point x="206" y="270" type="curve" smooth="yes"/>
      <point x="206" y="368"/>
      <point x="247" y="434"/>
    </contour>
  </outline>
</glyph>
<glyph name="sigmafinal" format="2">
  <advance width="583"/>
  <unicode hex="03C2"/>
  <outline>
    <contour>
      <point x="40" y="270" type="curve" smooth="yes"/>
      <point x="40" y="72"/>
      <point x="154" y="0"/>
      <point x="273" y="0" type="curve" smooth="yes"/>
      <point x="364" y="0"/>
      <point x="427" y="-9"/>
      <point x="427" y="-120" type="curve"/>
      <point x="545" y="-120" type="line"/>
      <point x="565" y="-3"/>
      <point x="527" y="88"/>
      <point x="456" y="112" type="curve" smooth="yes"/>
      <point x="414" y="126"/>
      <point x="382" y="127"/>
      <point x="328" y="127" type="curve" smooth="yes"/>
      <point x="221" y="127"/>
      <point x="194" y="181"/>
      <point x="194" y="270" type="curve" smooth="yes"/>
      <point x="194" y="360"/>
      <point x="222" y="428"/>
      <point x="308" y="428" type="curve" smooth="yes"/>
      <point x="358" y="428"/>
      <point x="401" y="395"/>
      <point x="417" y="339" type="curve"/>
      <point x="553" y="375" type="line"/>
      <point x="529" y="486"/>
      <point x="437" y="555"/>
      <point x="310" y="555" type="curve" smooth="yes"/>
      <point x="145" y="555"/>
      <point x="40" y="434"/>
    </contour>
  </outline>
</glyph>
<glyph name="sigma" format="2">
  <advance width="637"/>
  <unicode hex="03C3"/>
  <outline>
    <contour>
      <point x="313" y="555" type="line"/>
      <point x="313" y="450" type="line"/>
      <point x="617" y="450" type="line"/>
      <point x="617" y="555" type="line"/>
    </contour>
    <component base="o"/>
  </outline>
</glyph>
<glyph name="tau" format="2">
  <advance width="585"/>
  <unicode hex="03C4"/>
  <outline>
    <contour>
      <point x="336" y="-4" type="curve" smooth="yes"/>
      <point x="376" y="-11"/>
      <point x="452" y="-12"/>
      <point x="494" y="0" type="curve"/>
      <point x="494" y="113" type="line"/>
      <point x="465" y="109"/>
      <point x="432" y="107"/>
      <point x="406" y="109" type="curve" smooth="yes"/>
      <point x="385" y="111"/>
      <point x="362" y="119"/>
      <point x="349" y="140" type="curve" smooth="yes"/>
      <point x="336" y="161"/>
      <point x="338" y="193"/>
      <point x="338" y="237" type="curve" smooth="yes"/>
      <point x="338" y="420" type="line"/>
      <point x="515" y="420" type="line"/>
      <point x="515" y="540" type="line"/>
      <point x="25" y="540" type="line"/>
      <point x="25" y="420" type="line"/>
      <point x="202" y="420" type="line"/>
      <point x="202" y="229" type="line" smooth="yes"/>
      <point x="202" y="156"/>
      <point x="196" y="111"/>
      <point x="226" y="64" type="curve" smooth="yes"/>
      <point x="257" y="16"/>
      <point x="298" y="3"/>
    </contour>
  </outline>
</glyph>
<glyph name="psi" format="2">
  <advance width="706"/>
  <unicode hex="03C8"/>
  <outline>
    <contour>
      <point x="288" y="-225" type="line"/>
      <point x="418" y="-225" type="line"/>
      <point x="418" y="-29" type="line"/>
      <point x="531" y="-24"/>
      <point x="631" y="19"/>
      <point x="659" y="145" type="curve" smooth="yes"/>
      <point x="664" y="168"/>
      <point x="666" y="191"/>
      <point x="666" y="215" type="curve" smooth="yes"/>
      <point x="666" y="540" type="line"/>
      <point x="539" y="540" type="line"/>
      <point x="539" y="228" type="line" smooth="yes"/>
      <point x="539" y="221"/>
      <point x="539" y="203"/>
      <point x="535" y="183" type="curve" smooth="yes"/>
      <point x="522" y="117"/>
      <point x="474" y="98"/>
      <point x="418" y="97" type="curve"/>
      <point x="418" y="540" type="line"/>
      <point x="288" y="540" type="line"/>
      <point x="288" y="97" type="line"/>
      <point x="235" y="98"/>
      <point x="190" y="109"/>
      <point x="173" y="175" type="curve" smooth="yes"/>
      <point x="167" y="198"/>
      <point x="167" y="218"/>
      <point x="167" y="228" type="curve" smooth="yes"/>
      <point x="167" y="540" type="line"/>
      <point x="40" y="540" type="line"/>
      <point x="40" y="215" type="line" smooth="yes"/>
      <point x="40" y="196"/>
      <point x="42" y="166"/>
      <point x="47" y="143" type="curve" smooth="yes"/>
      <point x="73" y="18"/>
      <point x="173" y="-24"/>
      <point x="288" y="-29" type="curve"/>
    </contour>
  </outline>
</glyph>
<glyph name="omega" format="2">
  <advance width="805"/>
  <unicode hex="03C9"/>
  <guideline x="404" y="96" angle="0"/>
  <outline>
    <contour>
      <point x="256" y="-15" type="curve" smooth="yes"/>
      <point x="321" y="-15"/>
      <point x="385" y="12"/>
      <point x="412" y="96" type="curve"/>
      <point x="393" y="96" type="line"/>
      <point x="420" y="12"/>
      <point x="484" y="-15"/>
      <point x="549" y="-15" type="curve" smooth="yes"/>
      <point x="687" y="-15"/>
      <point x="765" y="108"/>
      <point x="765" y="258" type="curve" smooth="yes"/>
      <point x="765" y="379"/>
      <point x="714" y="494"/>
      <point x="622" y="555" type="curve"/>
      <point x="528" y="448" type="line"/>
      <point x="591" y="394"/>
      <point x="621" y="347"/>
      <point x="621" y="264" type="curve" smooth="yes"/>
      <point x="621" y="181"/>
      <point x="590" y="113"/>
      <point x="530" y="113" type="curve" smooth="yes"/>
      <point x="465" y="113"/>
      <point x="465" y="193"/>
      <point x="465" y="302" type="curve" smooth="yes"/>
      <point x="465" y="342" type="line"/>
      <point x="340" y="342" type="line"/>
      <point x="340" y="302" type="line" smooth="yes"/>
      <point x="340" y="196"/>
      <point x="341" y="113"/>
      <point x="275" y="113" type="curve" smooth="yes"/>
      <point x="217" y="113"/>
      <point x="184" y="178"/>
      <point x="184" y="264" type="curve" smooth="yes"/>
      <point x="184" y="344"/>
      <point x="212" y="392"/>
      <point x="277" y="448" type="curve"/>
      <point x="183" y="555" type="line"/>
      <point x="93" y="495"/>
      <point x="40" y="382"/>
      <point x="40" y="259" type="curve" smooth="yes"/>
      <point x="40" y="111"/>
      <point x="116" y="-15"/>
    </contour>
  </outline>
</glyph>
<glyph name="Dje-cy" format="2">
  <advance width="686"/>
  <unicode hex="0402"/>
  <outline>
    <contour>
      <point x="0" y="720" type="line"/>
      <point x="0" y="600" type="line"/>
      <point x="360" y="600" type="line"/>
      <point x="360" y="720" type="line"/>
    </contour>
    <contour>
      <point x="373" y="138" type="curve"/>
      <point x="373" y="0" type="line"/>
      <point x="563" y="0"/>
      <point x="646" y="101"/>
      <point x="646" y="295" type="curve" smooth="yes"/>
      <point x="646" y="454"/>
      <point x="553" y="555"/>
      <point x="382" y="555" type="curve" smooth="yes"/>
      <point x="253" y="555"/>
      <point x="146" y="485"/>
      <point x="132" y="366" type="curve" smooth="yes"/>
      <point x="130" y="348"/>
      <point x="119" y="253"/>
      <point x="121" y="236" type="curve"/>
      <point x="217" y="236" type="line"/>
      <point x="217" y="269"/>
      <point x="216" y="304"/>
      <point x="227" y="341" type="curve" smooth="yes"/>
      <point x="241" y="387"/>
      <point x="287" y="424"/>
      <point x="367" y="424" type="curve" smooth="yes"/>
      <point x="446" y="424"/>
      <point x="508" y="384"/>
      <point x="508" y="285" type="curve" smooth="yes"/>
      <point x="508" y="203"/>
      <point x="481" y="138"/>
    </contour>
    <component base="line-vertical-de" yScale="-1" xOffset="80" yOffset="720"/>
  </outline>
</glyph>
<glyph name="Nje-cy" format="2">
  <advance width="1108"/>
  <unicode hex="040A"/>
  <outline>
    <contour>
      <point x="70" y="720" type="line"/>
      <point x="70" y="0" type="line"/>
      <point x="206" y="0" type="line"/>
      <point x="206" y="720" type="line"/>
    </contour>
    <contour>
      <point x="190" y="475" type="line"/>
      <point x="190" y="348" type="line"/>
      <point x="590" y="348" type="line"/>
      <point x="590" y="475" type="line"/>
    </contour>
    <component base="Softsign-cy" xOffset="458"/>
  </outline>
</glyph>
<glyph name="Tshe-cy" format="2">
  <advance width="686"/>
  <unicode hex="040B"/>
  <outline>
    <contour>
      <point x="0" y="600" type="line"/>
      <point x="360" y="600" type="line"/>
      <point x="360" y="720" type="line"/>
      <point x="0" y="720" type="line"/>
    </contour>
    <component base="Shha-cy"/>
  </outline>
</glyph>
<glyph name="Dzhe-cy" format="2">
  <advance width="780"/>
  <unicode hex="040F"/>
  <outline>
    <contour>
      <point x="322" y="-120" type="line"/>
      <point x="458" y="-120" type="line"/>
      <point x="458" y="0" type="line"/>
      <point x="710" y="0" type="line"/>
      <point x="710" y="720" type="line"/>
      <point x="574" y="720" type="line"/>
      <point x="574" y="127" type="line"/>
      <point x="206" y="127" type="line"/>
      <point x="206" y="720" type="line"/>
      <point x="70" y="720" type="line"/>
      <point x="70" y="0" type="line"/>
      <point x="322" y="0" type="line"/>
    </contour>
  </outline>
</glyph>
<glyph name="Be-cy" format="2">
  <advance width="650"/>
  <unicode hex="0411"/>
  <outline>
    <contour>
      <point x="160" y="720" type="line"/>
      <point x="160" y="593" type="line"/>
      <point x="564" y="593" type="line"/>
      <point x="564" y="720" type="line"/>
    </contour>
    <contour>
      <point x="70" y="720" type="line"/>
      <point x="70" y="0" type="line"/>
      <point x="206" y="0" type="line"/>
      <point x="206" y="720" type="line"/>
    </contour>
    <contour>
      <point x="186" y="127" type="line"/>
      <point x="186" y="0" type="line"/>
      <point x="374" y="0" type="line" smooth="yes"/>
      <point x="388" y="0"/>
      <point x="415" y="1"/>
      <point x="434" y="3" type="curve" smooth="yes"/>
      <point x="559" y="16"/>
      <point x="620" y="113"/>
      <point x="620" y="228" type="curve" smooth="yes"/>
      <point x="620" y="343"/>
      <point x="558" y="440"/>
      <point x="434" y="453" type="curve" smooth="yes"/>
      <point x="415" y="455"/>
      <point x="387" y="456"/>
      <point x="374" y="456" type="curve" smooth="yes"/>
      <point x="186" y="456" type="line"/>
      <point x="186" y="329" type="line"/>
      <point x="368" y="329" type="line" smooth="yes"/>
      <point x="382" y="329"/>
      <point x="400" y="328"/>
      <point x="414" y="325" type="curve" smooth="yes"/>
      <point x="469" y="313"/>
      <point x="483" y="267"/>
      <point x="483" y="228" type="curve" smooth="yes"/>
      <point x="483" y="189"/>
      <point x="469" y="143"/>
      <point x="414" y="131" type="curve" smooth="yes"/>
      <point x="400" y="128"/>
      <point x="382" y="127"/>
      <point x="368" y="127" type="curve" smooth="yes"/>
    </contour>
  </outline>
</glyph>
<glyph name="Ge-cy" format="2">
  <advance width="550"/>
  <unicode hex="0413"/>
  <outline>
    <contour>
      <point x="70" y="0" type="line"/>
      <point x="206" y="0" type="line"/>
      <point x="206" y="593" type="line"/>
      <point x="540" y="593" type="line"/>
      <point x="540" y="720" type="line"/>
      <point x="70" y="720" type="line"/>
    </contour>
  </outline>
</glyph>
<glyph name="Zhe-cy" format="2">
  <advance width="924"/>
  <unicode hex="0416"/>
  <outline>
    <contour>
      <point x="10" y="0" type="line"/>
      <point x="177" y="0" type="line"/>
      <point x="394" y="318" type="line"/>
      <point x="394" y="0" type="line"/>
      <point x="530" y="0" type="line"/>
      <point x="530" y="318" type="line"/>
      <point x="747" y="0" type="line"/>
      <point x="914" y="0" type="line"/>
      <point x="659" y="365" type="line"/>
      <point x="895" y="720" type="line"/>
      <point x="734" y="720" type="line"/>
      <point x="530" y="398" type="line"/>
      <point x="530" y="720" type="line"/>
      <point x="394" y="720" type="line"/>
      <point x="394" y="398" type="line"/>
      <point x="190" y="720" type="line"/>
      <point x="29" y="720" type="line"/>
      <point x="265" y="365" type="line"/>
    </contour>
  </outline>
</glyph>
<glyph name="Ze-cy" format="2">
  <advance width="667"/>
  <unicode hex="0417"/>
  <outline>
    <contour>
      <point x="333" y="-15" type="curve" smooth="yes"/>
      <point x="495" y="-15"/>
      <point x="627" y="73"/>
      <point x="627" y="216" type="curve" smooth="yes"/>
      <point x="627" y="292"/>
      <point x="593" y="342"/>
      <point x="533" y="369" type="curve"/>
      <point x="574" y="406"/>
      <point x="597" y="464"/>
      <point x="597" y="526" type="curve" smooth="yes"/>
      <point x="597" y="672"/>
      <point x="469" y="735"/>
      <point x="342" y="735" type="curve" smooth="yes"/>
      <point x="237" y="735"/>
      <point x="150" y="692"/>
      <point x="100" y="640" type="curve"/>
      <point x="193" y="540" type="line"/>
      <point x="217" y="574"/>
      <point x="272" y="608"/>
      <point x="338" y="608" type="curve" smooth="yes"/>
      <point x="408" y="608"/>
      <point x="453" y="574"/>
      <point x="453" y="521" type="curve" smooth="yes"/>
      <point x="453" y="463"/>
      <point x="400" y="437"/>
      <point x="330" y="434" type="curve" smooth="yes"/>
      <point x="313" y="433"/>
      <point x="276" y="433"/>
      <point x="263" y="433" type="curve"/>
      <point x="263" y="305" type="line"/>
      <point x="272" y="305"/>
      <point x="274" y="305"/>
      <point x="343" y="303" type="curve" smooth="yes"/>
      <point x="414" y="301"/>
      <point x="483" y="285"/>
      <point x="483" y="216" type="curve" smooth="yes"/>
      <point x="483" y="164"/>
      <point x="443" y="113"/>
      <point x="339" y="113" type="curve" smooth="yes"/>
      <point x="229" y="113"/>
      <point x="179" y="169"/>
      <point x="155" y="219" type="curve"/>
      <point x="40" y="139" type="line"/>
      <point x="84" y="62"/>
      <point x="180" y="-15"/>
    </contour>
  </outline>
</glyph>
<glyph name="El-cy" format="2">
  <advance width="730"/>
  <unicode hex="041B"/>
  <outline>
    <contour>
      <point x="660" y="720" type="line"/>
      <point x="169" y="720" type="line"/>
      <point x="161" y="552"/>
      <point x="152" y="413"/>
      <point x="122" y="244" type="curve" smooth="yes"/>
      <point x="104" y="141"/>
      <point x="79" y="108"/>
      <point x="20" y="113" type="curve"/>
      <point x="20" y="0" type="line"/>
      <point x="177" y="-31"/>
      <point x="219" y="51"/>
      <point x="247" y="194" type="curve" smooth="yes"/>
      <point x="275" y="337"/>
      <point x="286" y="474"/>
      <point x="294" y="593" type="curve"/>
      <point x="524" y="593" type="line"/>
      <point x="524" y="0" type="line"/>
      <point x="660" y="0" type="line"/>
    </contour>
  </outline>
</glyph>
<glyph name="Pe-cy" format="2">
  <advance width="734"/>
  <unicode hex="041F"/>
  <outline>
    <contour>
      <point x="70" y="0" type="line"/>
      <point x="206" y="0" type="line"/>
      <point x="206" y="593" type="line"/>
      <point x="528" y="593" type="line"/>
      <point x="528" y="0" type="line"/>
      <point x="664" y="0" type="line"/>
      <point x="664" y="720" type="line"/>
      <point x="70" y="720" type="line"/>
    </contour>
  </outline>
</glyph>
<glyph name="U-cy" format="2">
  <advance width="641"/>
  <unicode hex="0423"/>
  <outline>
    <contour>
      <point x="496" y="720" type="line"/>
      <point x="327" y="345" type="line"/>
      <point x="164" y="720" type="line"/>
      <point x="10" y="720" type="line"/>
      <point x="256" y="202" type="line"/>
      <point x="156" y="0" type="line"/>
      <point x="301" y="0" type="line"/>
      <point x="641" y="720" type="line"/>
    </contour>
  </outline>
</glyph>
<glyph name="Tse-cy" format="2">
  <advance width="761"/>
  <unicode hex="0426"/>
  <outline>
    <contour>
      <point x="70" y="20" type="line"/>
      <point x="206" y="20" type="line"/>
      <point x="206" y="720" type="line"/>
      <point x="70" y="720" type="line"/>
    </contour>
    <contour>
      <point x="70" y="0" type="line"/>
      <point x="590" y="0" type="line"/>
      <point x="590" y="120" type="line"/>
      <point x="70" y="120" type="line"/>
    </contour>
    <contour>
      <point x="670" y="0" type="line"/>
      <point x="670" y="700" type="line"/>
      <point x="534" y="700" type="line"/>
      <point x="534" y="0" type="line"/>
    </contour>
    <component base="corner-cy" xOffset="545"/>
  </outline>
</glyph>
<glyph name="Che-cy" format="2">
  <advance width="686"/>
  <unicode hex="0427"/>
  <outline>
    <contour>
      <point x="479" y="720" type="line"/>
      <point x="479" y="404" type="line"/>
      <point x="452" y="379"/>
      <point x="400" y="360"/>
      <point x="346" y="360" type="curve" smooth="yes"/>
      <point x="303" y="360"/>
      <point x="264" y="366"/>
      <point x="238" y="402" type="curve" smooth="yes"/>
      <point x="212" y="438"/>
      <point x="208" y="493"/>
      <point x="208" y="554" type="curve" smooth="yes"/>
      <point x="208" y="720" type="line"/>
      <point x="70" y="720" type="line"/>
      <point x="70" y="523" type="line" smooth="yes"/>
      <point x="70" y="448"/>
      <point x="76" y="373"/>
      <point x="122" y="314" type="curve" smooth="yes"/>
      <point x="175" y="246"/>
      <point x="243" y="232"/>
      <point x="320" y="232" type="curve" smooth="yes"/>
      <point x="376" y="232"/>
      <point x="444" y="247"/>
      <point x="479" y="269" type="curve"/>
      <point x="479" y="0" type="line"/>
      <point x="616" y="0" type="line"/>
      <point x="616" y="720" type="line"/>
    </contour>
  </outline>
</glyph>
<glyph name="Sha-cy" format="2">
  <advance width="960"/>
  <unicode hex="0428"/>
  <outline>
    <contour>
      <point x="412" y="720" type="line"/>
      <point x="412" y="0" type="line"/>
      <point x="548" y="0" type="line"/>
      <point x="548" y="720" type="line"/>
    </contour>
    <component base="Ge-cy" yScale="-1" yOffset="720"/>
    <component base="Ge-cy" xScale="-1" yScale="-1" xOffset="960" yOffset="720"/>
  </outline>
</glyph>
<glyph name="Shcha-cy" format="2">
  <advance width="981"/>
  <unicode hex="0429"/>
  <outline>
    <contour>
      <point x="835" y="-120" type="line"/>
      <point x="971" y="-120" type="line"/>
      <point x="971" y="120" type="line"/>
      <point x="765" y="120" type="line"/>
      <point x="765" y="0" type="line"/>
      <point x="835" y="0" type="line"/>
    </contour>
    <component base="Sha-cy"/>
  </outline>
</glyph>
<glyph name="Hardsign-cy" format="2">
  <advance width="672"/>
  <unicode hex="042A"/>
  <outline>
    <contour>
      <point x="0" y="720" type="line"/>
      <point x="0" y="615" type="line"/>
      <point x="150" y="615" type="line"/>
      <point x="150" y="720" type="line"/>
    </contour>
    <component base="Softsign-cy" xOffset="30"/>
  </outline>
</glyph>
<glyph name="Ereversed-cy" format="2">
  <advance width="725"/>
  <unicode hex="042D"/>
  <outline>
    <contour>
      <point x="295" y="424" type="line"/>
      <point x="295" y="297" type="line"/>
      <point x="554" y="297" type="line"/>
      <point x="554" y="424" type="line"/>
    </contour>
    <component base="C" xScale="-1" xOffset="725"/>
  </outline>
</glyph>
<glyph name="Iu-cy" format="2">
  <advance width="898"/>
  <unicode hex="042E"/>
  <outline>
    <contour>
      <point x="589" y="-15" type="curve" smooth="yes"/>
      <point x="775" y="-15"/>
      <point x="868" y="166"/>
      <point x="868" y="360" type="curve" smooth="yes"/>
      <point x="868" y="554"/>
      <point x="775" y="735"/>
      <point x="589" y="735" type="curve" smooth="yes"/>
      <point x="403" y="735"/>
      <point x="310" y="554"/>
      <point x="310" y="360" type="curve" smooth="yes"/>
      <point x="310" y="166"/>
      <point x="403" y="-15"/>
    </contour>
    <contour>
      <point x="70" y="0" type="line"/>
      <point x="206" y="0" type="line"/>
      <point x="206" y="292" type="line"/>
      <point x="326" y="292" type="line"/>
      <point x="326" y="428" type="line"/>
      <point x="206" y="428" type="line"/>
      <point x="206" y="720" type="line"/>
      <point x="70" y="720" type="line"/>
    </contour>
    <contour>
      <point x="589" y="113" type="curve" smooth="yes"/>
      <point x="482" y="115"/>
      <point x="454" y="250"/>
      <point x="454" y="360" type="curve" smooth="yes"/>
      <point x="454" y="470"/>
      <point x="482" y="609"/>
      <point x="589" y="607" type="curve" smooth="yes"/>
      <point x="696" y="605"/>
      <point x="724" y="470"/>
      <point x="724" y="360" type="curve" smooth="yes"/>
      <point x="724" y="250"/>
      <point x="696" y="111"/>
    </contour>
  </outline>
</glyph>
<glyph name="be-cy" format="2">
  <advance width="603"/>
  <unicode hex="0431"/>
  <outline>
    <contour>
      <point x="328" y="503" type="curve" smooth="yes"/>
      <point x="279" y="503"/>
      <point x="209" y="483"/>
      <point x="170" y="424" type="curve"/>
      <point x="174" y="476"/>
      <point x="198" y="532"/>
      <point x="244" y="561" type="curve" smooth="yes"/>
      <point x="312" y="604"/>
      <point x="442" y="595"/>
      <point x="518" y="615" type="curve"/>
      <point x="506" y="735" type="line"/>
      <point x="380" y="711"/>
      <point x="261" y="715"/>
      <point x="172" y="652" type="curve" smooth="yes"/>
      <point x="129" y="621"/>
      <point x="98" y="585"/>
      <point x="77" y="540" type="curve" smooth="yes"/>
      <point x="43" y="469"/>
      <point x="36" y="345"/>
      <point x="42" y="251" type="curve" smooth="yes"/>
      <point x="51" y="95"/>
      <point x="147" y="-15"/>
      <point x="297" y="-15" type="curve" smooth="yes"/>
      <point x="451" y="-19"/>
      <point x="563" y="93"/>
      <point x="563" y="241" type="curve" smooth="yes"/>
      <point x="563" y="395"/>
      <point x="478" y="503"/>
    </contour>
    <contour>
      <point x="303" y="375" type="curve" smooth="yes"/>
      <point x="378" y="375"/>
      <point x="420" y="325"/>
      <point x="420" y="243" type="curve" smooth="yes"/>
      <point x="420" y="163"/>
      <point x="380" y="111"/>
      <point x="303" y="111" type="curve" smooth="yes"/>
      <point x="228" y="111"/>
      <point x="186" y="158"/>
      <point x="186" y="243" type="curve" smooth="yes"/>
      <point x="186" y="325"/>
      <point x="226" y="375"/>
    </contour>
  </outline>
</glyph>
<glyph name="ve-cy" format="2">
  <advance width="568"/>
  <unicode hex="0432"/>
  <outline>
    <contour>
      <point x="70" y="540" type="line"/>
      <point x="70" y="0" type="line"/>
      <point x="340" y="0" type="line" smooth="yes"/>
      <point x="375" y="0"/>
      <point x="409" y="3"/>
      <point x="433" y="10" type="curve" smooth="yes"/>
      <point x="503" y="30"/>
      <point x="538" y="81"/>
      <point x="538" y="161" type="curve" smooth="yes"/>
      <point x="538" y="219"/>
      <point x="507" y="253"/>
      <point x="471" y="269" type="curve" smooth="yes"/>
      <point x="460" y="274"/>
      <point x="446" y="278"/>
      <point x="433" y="280" type="curve"/>
      <point x="445" y="283"/>
      <point x="457" y="289"/>
      <point x="469" y="298" type="curve" smooth="yes"/>
      <point x="494" y="317"/>
      <point x="511" y="345"/>
      <point x="511" y="394" type="curve" smooth="yes"/>
      <point x="511" y="472"/>
      <point x="461" y="516"/>
      <point x="413" y="529" type="curve" smooth="yes"/>
      <point x="391" y="535"/>
      <point x="366" y="540"/>
      <point x="323" y="540" type="curve" smooth="yes"/>
    </contour>
    <contour>
      <point x="208" y="435" type="line"/>
      <point x="291" y="435" type="line" smooth="yes"/>
      <point x="308" y="435"/>
      <point x="327" y="434"/>
      <point x="340" y="430" type="curve" smooth="yes"/>
      <point x="362" y="423"/>
      <point x="371" y="402"/>
      <point x="371" y="379" type="curve" smooth="yes"/>
      <point x="371" y="357"/>
      <point x="362" y="338"/>
      <point x="345" y="330" type="curve" smooth="yes"/>
      <point x="332" y="324"/>
      <point x="312" y="322"/>
      <point x="291" y="322" type="curve" smooth="yes"/>
      <point x="208" y="322" type="line"/>
    </contour>
    <contour>
      <point x="208" y="217" type="line"/>
      <point x="330" y="217" type="line" smooth="yes"/>
      <point x="345" y="217"/>
      <point x="358" y="216"/>
      <point x="369" y="211" type="curve" smooth="yes"/>
      <point x="384" y="204"/>
      <point x="399" y="189"/>
      <point x="399" y="161" type="curve" smooth="yes"/>
      <point x="399" y="141"/>
      <point x="391" y="119"/>
      <point x="372" y="111" type="curve" smooth="yes"/>
      <point x="360" y="106"/>
      <point x="344" y="103"/>
      <point x="330" y="103" type="curve" smooth="yes"/>
      <point x="208" y="103" type="line"/>
    </contour>
  </outline>
</glyph>
<glyph name="ge-cy" format="2">
  <advance width="485"/>
  <unicode hex="0433"/>
  <outline>
    <contour>
      <point x="460" y="540" type="line"/>
      <point x="70" y="540" type="line"/>
      <point x="70" y="0" type="line"/>
      <point x="206" y="0" type="line"/>
      <point x="206" y="413" type="line"/>
      <point x="460" y="413" type="line"/>
    </contour>
  </outline>
</glyph>
<glyph name="de-cy" format="2">
  <advance width="645"/>
  <unicode hex="0434"/>
  <outline>
    <contour>
      <point x="560" y="540" type="line"/>
      <point x="143" y="540" type="line"/>
      <point x="138" y="435"/>
      <point x="132" y="331"/>
      <point x="120" y="242" type="curve" smooth="yes"/>
      <point x="106" y="139"/>
      <point x="87" y="105"/>
      <point x="30" y="105" type="curve"/>
      <point x="30" y="-120" type="line"/>
      <point x="158" y="-120" type="line"/>
      <point x="158" y="0" type="line"/>
      <point x="487" y="0" type="line"/>
      <point x="487" y="-120" type="line"/>
      <point x="615" y="-120" type="line"/>
      <point x="615" y="105" type="line"/>
      <point x="560" y="105" type="line"/>
    </contour>
    <contour>
      <point x="424" y="105" type="line"/>
      <point x="204" y="105" type="line"/>
      <point x="231" y="133"/>
      <point x="239" y="166"/>
      <point x="245" y="225" type="curve" smooth="yes"/>
      <point x="251" y="286"/>
      <point x="257" y="362"/>
      <point x="261" y="435" type="curve"/>
      <point x="424" y="435" type="line"/>
    </contour>
  </outline>
</glyph>
<glyph name="zhe-cy" format="2">
  <advance width="788"/>
  <unicode hex="0436"/>
  <outline>
    <contour>
      <point x="10" y="0" type="line"/>
      <point x="167" y="0" type="line"/>
      <point x="334" y="260" type="line"/>
      <point x="334" y="0" type="line"/>
      <point x="454" y="0" type="line"/>
      <point x="454" y="260" type="line"/>
      <point x="621" y="0" type="line"/>
      <point x="778" y="0" type="line"/>
      <point x="590" y="270" type="line"/>
      <point x="765" y="540" type="line"/>
      <point x="617" y="540" type="line"/>
      <point x="454" y="280" type="line"/>
      <point x="454" y="540" type="line"/>
      <point x="334" y="540" type="line"/>
      <point x="334" y="280" type="line"/>
      <point x="171" y="540" type="line"/>
      <point x="23" y="540" type="line"/>
      <point x="198" y="270" type="line"/>
    </contour>
  </outline>
</glyph>
<glyph name="ze-cy" format="2">
  <advance width="525"/>
  <unicode hex="0437"/>
  <outline>
    <contour>
      <point x="45" y="470" type="curve"/>
      <point x="120" y="377" type="line"/>
      <point x="137" y="389"/>
      <point x="157" y="401"/>
      <point x="173" y="408" type="curve" smooth="yes"/>
      <point x="197" y="419"/>
      <point x="231" y="429"/>
      <point x="261" y="429" type="curve" smooth="yes"/>
      <point x="278" y="429"/>
      <point x="293" y="426"/>
      <point x="304" y="420" type="curve" smooth="yes"/>
      <point x="322" y="410"/>
      <point x="327" y="395"/>
      <point x="327" y="379" type="curve" smooth="yes"/>
      <point x="327" y="360"/>
      <point x="319" y="339"/>
      <point x="281" y="334" type="curve" smooth="yes"/>
      <point x="266" y="332"/>
      <point x="242" y="331"/>
      <point x="226" y="331" type="curve" smooth="yes"/>
      <point x="194" y="331" type="line"/>
      <point x="194" y="225" type="line"/>
      <point x="226" y="225" type="line" smooth="yes"/>
      <point x="244" y="225"/>
      <point x="275" y="226"/>
      <point x="291" y="225" type="curve" smooth="yes"/>
      <point x="321" y="223"/>
      <point x="346" y="205"/>
      <point x="346" y="174" type="curve" smooth="yes"/>
      <point x="346" y="155"/>
      <point x="336" y="136"/>
      <point x="315" y="124" type="curve" smooth="yes"/>
      <point x="301" y="116"/>
      <point x="286" y="112"/>
      <point x="264" y="112" type="curve" smooth="yes"/>
      <point x="240" y="112"/>
      <point x="204" y="117"/>
      <point x="175" y="135" type="curve" smooth="yes"/>
      <point x="162" y="143"/>
      <point x="140" y="161"/>
      <point x="127" y="174" type="curve"/>
      <point x="20" y="102" type="line"/>
      <point x="38" y="75"/>
      <point x="79" y="38"/>
      <point x="114" y="19" type="curve" smooth="yes"/>
      <point x="151" y="-1"/>
      <point x="201" y="-15"/>
      <point x="261" y="-15" type="curve" smooth="yes"/>
      <point x="303" y="-15"/>
      <point x="358" y="-8"/>
      <point x="406" y="22" type="curve" smooth="yes"/>
      <point x="460" y="56"/>
      <point x="485" y="105"/>
      <point x="485" y="162" type="curve" smooth="yes"/>
      <point x="485" y="214"/>
      <point x="464" y="256"/>
      <point x="429" y="284" type="curve"/>
      <point x="456" y="319"/>
      <point x="467" y="355"/>
      <point x="467" y="392" type="curve" smooth="yes"/>
      <point x="467" y="446"/>
      <point x="443" y="490"/>
      <point x="402" y="517" type="curve" smooth="yes"/>
      <point x="361" y="545"/>
      <point x="301" y="555"/>
      <point x="260" y="555" type="curve" smooth="yes"/>
      <point x="217" y="555"/>
      <point x="176" y="544"/>
      <point x="141" y="529" type="curve" smooth="yes"/>
      <point x="100" y="511"/>
      <point x="74" y="494"/>
    </contour>
  </outline>
</glyph>
<glyph name="ii-cy" format="2">
  <advance width="622"/>
  <unicode hex="0438"/>
  <outline>
    <contour>
      <point x="552" y="540" type="line"/>
      <point x="445" y="540" type="line"/>
      <point x="200" y="221" type="line"/>
      <point x="200" y="540" type="line"/>
      <point x="70" y="540" type="line"/>
      <point x="70" y="0" type="line"/>
      <point x="178" y="0" type="line"/>
      <point x="422" y="330" type="line"/>
      <point x="422" y="0" type="line"/>
      <point x="552" y="0" type="line"/>
    </contour>
  </outline>
</glyph>
<glyph name="el-cy" format="2">
  <advance width="615"/>
  <unicode hex="043B"/>
  <outline>
    <contour>
      <point x="137" y="540" type="line"/>
      <point x="130" y="413"/>
      <point x="120" y="276"/>
      <point x="104" y="190" type="curve" smooth="yes"/>
      <point x="92" y="125"/>
      <point x="79" y="102"/>
      <point x="20" y="113" type="curve"/>
      <point x="20" y="0" type="line"/>
      <point x="143" y="-29"/>
      <point x="203" y="11"/>
      <point x="226" y="142" type="curve" smooth="yes"/>
      <point x="239" y="215"/>
      <point x="246" y="296"/>
      <point x="256" y="413" type="curve"/>
      <point x="409" y="413" type="line"/>
      <point x="409" y="0" type="line"/>
      <point x="545" y="0" type="line"/>
      <point x="545" y="540" type="line"/>
    </contour>
  </outline>
</glyph>
<glyph name="em-cy" format="2">
  <advance width="736"/>
  <unicode hex="043C"/>
  <outline>
    <contour>
      <point x="556" y="540" type="line"/>
      <point x="368" y="190" type="line"/>
      <point x="180" y="540" type="line"/>
      <point x="70" y="540" type="line"/>
      <point x="70" y="0" type="line"/>
      <point x="200" y="0" type="line"/>
      <point x="200" y="269" type="line"/>
      <point x="344" y="0" type="line"/>
      <point x="392" y="0" type="line"/>
      <point x="536" y="269" type="line"/>
      <point x="536" y="0" type="line"/>
      <point x="666" y="0" type="line"/>
      <point x="666" y="540" type="line"/>
    </contour>
  </outline>
</glyph>
<glyph name="en-cy" format="2">
  <advance width="634"/>
  <unicode hex="043D"/>
  <outline>
    <contour>
      <point x="70" y="0" type="line"/>
      <point x="206" y="0" type="line"/>
      <point x="206" y="207" type="line"/>
      <point x="428" y="207" type="line"/>
      <point x="428" y="0" type="line"/>
      <point x="564" y="0" type="line"/>
      <point x="564" y="540" type="line"/>
      <point x="428" y="540" type="line"/>
      <point x="428" y="334" type="line"/>
      <point x="206" y="334" type="line"/>
      <point x="206" y="540" type="line"/>
      <point x="70" y="540" type="line"/>
    </contour>
  </outline>
</glyph>
<glyph name="pe-cy" format="2">
  <advance width="622"/>
  <unicode hex="043F"/>
  <outline>
    <contour>
      <point x="70" y="0" type="line"/>
      <point x="206" y="0" type="line"/>
      <point x="206" y="413" type="line"/>
      <point x="416" y="413" type="line"/>
      <point x="416" y="0" type="line"/>
      <point x="552" y="0" type="line"/>
      <point x="552" y="540" type="line"/>
      <point x="70" y="540" type="line"/>
    </contour>
  </outline>
</glyph>
<glyph name="te-cy" format="2">
  <advance width="540"/>
  <unicode hex="0442"/>
  <outline>
    <contour>
      <point x="202" y="0" type="line"/>
      <point x="338" y="0" type="line"/>
      <point x="338" y="420" type="line"/>
      <point x="515" y="420" type="line"/>
      <point x="515" y="540" type="line"/>
      <point x="25" y="540" type="line"/>
      <point x="25" y="420" type="line"/>
      <point x="202" y="420" type="line"/>
    </contour>
  </outline>
</glyph>
<glyph name="tse-cy" format="2">
  <advance width="665"/>
  <unicode hex="0446"/>
  <outline>
    <contour>
      <point x="519" y="-120" type="line"/>
      <point x="655" y="-120" type="line"/>
      <point x="655" y="120" type="line"/>
      <point x="552" y="120" type="line"/>
      <point x="552" y="540" type="line"/>
      <point x="416" y="540" type="line"/>
      <point x="416" y="127" type="line"/>
      <point x="206" y="127" type="line"/>
      <point x="206" y="540" type="line"/>
      <point x="70" y="540" type="line"/>
      <point x="70" y="0" type="line"/>
      <point x="519" y="0" type="line"/>
    </contour>
  </outline>
</glyph>
<glyph name="che-cy" format="2">
  <advance width="586"/>
  <unicode hex="0447"/>
  <outline>
    <contour>
      <point x="178" y="540" type="line"/>
      <point x="40" y="540" type="line"/>
      <point x="40" y="405" type="line" smooth="yes"/>
      <point x="40" y="371"/>
      <point x="41" y="330"/>
      <point x="48" y="294" type="curve" smooth="yes"/>
      <point x="67" y="198"/>
      <point x="138" y="146"/>
      <point x="234" y="146" type="curve" smooth="yes"/>
      <point x="300" y="146"/>
      <point x="341" y="156"/>
      <point x="383" y="177" type="curve"/>
      <point x="383" y="301" type="line"/>
      <point x="360" y="282"/>
      <point x="329" y="266"/>
      <point x="273" y="266" type="curve" smooth="yes"/>
      <point x="225" y="266"/>
      <point x="197" y="285"/>
      <point x="185" y="332" type="curve" smooth="yes"/>
      <point x="179" y="356"/>
      <point x="178" y="382"/>
      <point x="178" y="405" type="curve" smooth="yes"/>
    </contour>
    <contour>
      <point x="516" y="0" type="line"/>
      <point x="516" y="540" type="line"/>
      <point x="379" y="540" type="line"/>
      <point x="379" y="0" type="line"/>
    </contour>
  </outline>
</glyph>
<glyph name="sha-cy" format="2">
  <advance width="802"/>
  <unicode hex="0448"/>
  <outline>
    <contour>
      <point x="70" y="0" type="line"/>
      <point x="732" y="0" type="line"/>
      <point x="732" y="540" type="line"/>
      <point x="602" y="540" type="line"/>
      <point x="602" y="120" type="line"/>
      <point x="466" y="120" type="line"/>
      <point x="466" y="540" type="line"/>
      <point x="336" y="540" type="line"/>
      <point x="336" y="120" type="line"/>
      <point x="200" y="120" type="line"/>
      <point x="200" y="540" type="line"/>
      <point x="70" y="540" type="line"/>
    </contour>
  </outline>
</glyph>
<glyph name="hardsign-cy" format="2">
  <advance width="611"/>
  <unicode hex="044A"/>
  <outline>
    <contour>
      <point x="20" y="540" type="line"/>
      <point x="20" y="435" type="line"/>
      <point x="170" y="435" type="line"/>
      <point x="170" y="540" type="line"/>
    </contour>
    <component base="softsign-cy" xOffset="30"/>
  </outline>
</glyph>
<glyph name="yeru-cy" format="2">
  <advance width="763"/>
  <unicode hex="044B"/>
  <outline>
    <contour>
      <point x="70" y="0" type="line"/>
      <point x="255" y="0" type="line" smooth="yes"/>
      <point x="285" y="0"/>
      <point x="332" y="1"/>
      <point x="358" y="7" type="curve" smooth="yes"/>
      <point x="452" y="29"/>
      <point x="503" y="87"/>
      <point x="503" y="183" type="curve" smooth="yes"/>
      <point x="503" y="283"/>
      <point x="452" y="341"/>
      <point x="357" y="362" type="curve" smooth="yes"/>
      <point x="331" y="367"/>
      <point x="285" y="368"/>
      <point x="255" y="368" type="curve" smooth="yes"/>
      <point x="206" y="368" type="line"/>
      <point x="206" y="540" type="line"/>
      <point x="70" y="540" type="line"/>
    </contour>
    <contour>
      <point x="206" y="105" type="line"/>
      <point x="206" y="263" type="line"/>
      <point x="270" y="263" type="line" smooth="yes"/>
      <point x="281" y="263"/>
      <point x="296" y="262"/>
      <point x="310" y="258" type="curve" smooth="yes"/>
      <point x="339" y="250"/>
      <point x="365" y="221"/>
      <point x="365" y="183" type="curve" smooth="yes"/>
      <point x="365" y="148"/>
      <point x="340" y="118"/>
      <point x="312" y="110" type="curve" smooth="yes"/>
      <point x="297" y="106"/>
      <point x="282" y="105"/>
      <point x="270" y="105" type="curve" smooth="yes"/>
    </contour>
    <component base="idotless" xOffset="477"/>
  </outline>
</glyph>
<glyph name="softsign-cy" format="2">
  <advance width="581"/>
  <unicode hex="044C"/>
  <outline>
    <contour>
      <point x="70" y="0" type="line"/>
      <point x="293" y="0" type="line" smooth="yes"/>
      <point x="323" y="0"/>
      <point x="370" y="1"/>
      <point x="396" y="7" type="curve" smooth="yes"/>
      <point x="490" y="29"/>
      <point x="541" y="87"/>
      <point x="541" y="183" type="curve" smooth="yes"/>
      <point x="541" y="283"/>
      <point x="490" y="341"/>
      <point x="395" y="362" type="curve" smooth="yes"/>
      <point x="369" y="367"/>
      <point x="323" y="368"/>
      <point x="293" y="368" type="curve" smooth="yes"/>
      <point x="206" y="368" type="line"/>
      <point x="206" y="540" type="line"/>
      <point x="70" y="540" type="line"/>
    </contour>
    <contour>
      <point x="206" y="105" type="line"/>
      <point x="206" y="263" type="line"/>
      <point x="308" y="263" type="line" smooth="yes"/>
      <point x="319" y="263"/>
      <point x="334" y="262"/>
      <point x="348" y="258" type="curve" smooth="yes"/>
      <point x="377" y="250"/>
      <point x="403" y="221"/>
      <point x="403" y="183" type="curve" smooth="yes"/>
      <point x="403" y="148"/>
      <point x="378" y="118"/>
      <point x="350" y="110" type="curve" smooth="yes"/>
      <point x="335" y="106"/>
      <point x="320" y="105"/>
      <point x="308" y="105" type="curve" smooth="yes"/>
    </contour>
  </outline>
</glyph>
<glyph name="ereversed-cy" format="2">
  <advance width="584"/>
  <unicode hex="044D"/>
  <outline>
    <contour>
      <point x="236" y="323" type="line"/>
      <point x="236" y="218" type="line"/>
      <point x="417" y="218" type="line"/>
      <point x="417" y="323" type="line"/>
    </contour>
    <component base="c" xScale="-1" xOffset="584"/>
  </outline>
</glyph>
<glyph name="iu-cy" format="2">
  <advance width="872"/>
  <unicode hex="044E"/>
  <outline>
    <contour>
      <point x="70" y="540" type="line"/>
      <point x="70" y="0" type="line"/>
      <point x="206" y="0" type="line"/>
      <point x="206" y="540" type="line"/>
    </contour>
    <contour>
      <point x="151" y="338" type="line"/>
      <point x="151" y="202" type="line"/>
      <point x="336" y="202" type="line"/>
      <point x="336" y="338" type="line"/>
    </contour>
    <contour>
      <point x="558" y="-15" type="curve" smooth="yes"/>
      <point x="639" y="-15"/>
      <point x="714" y="15"/>
      <point x="765" y="75" type="curve"/>
      <point x="811" y="132"/>
      <point x="832" y="193"/>
      <point x="832" y="270" type="curve" smooth="yes"/>
      <point x="832" y="343"/>
      <point x="813" y="408"/>
      <point x="765" y="465" type="curve"/>
      <point x="715" y="525"/>
      <point x="638" y="555"/>
      <point x="558" y="555" type="curve" smooth="yes"/>
      <point x="418" y="555"/>
      <point x="305" y="454"/>
      <point x="305" y="270" type="curve" smooth="yes"/>
      <point x="305" y="88"/>
      <point x="415" y="-15"/>
    </contour>
    <contour>
      <point x="657" y="158" type="curve"/>
      <point x="635" y="128"/>
      <point x="598" y="112"/>
      <point x="558" y="112" type="curve" smooth="yes"/>
      <point x="473" y="112"/>
      <point x="429" y="173"/>
      <point x="429" y="270" type="curve" smooth="yes"/>
      <point x="429" y="364"/>
      <point x="469" y="428"/>
      <point x="558" y="428" type="curve" smooth="yes"/>
      <point x="598" y="428"/>
      <point x="635" y="413"/>
      <point x="657" y="383" type="curve"/>
      <point x="680" y="353"/>
      <point x="688" y="311"/>
      <point x="688" y="270" type="curve" smooth="yes"/>
      <point x="688" y="229"/>
      <point x="680" y="188"/>
    </contour>
  </outline>
</glyph>
<glyph name="ia-cy" format="2">
  <advance width="594"/>
  <unicode hex="044F"/>
  <outline>
    <contour>
      <point x="388" y="0" type="line"/>
      <point x="524" y="0" type="line"/>
      <point x="524" y="540" type="line"/>
      <point x="301" y="540" type="line" smooth="yes"/>
      <point x="276" y="540"/>
      <point x="234" y="540"/>
      <point x="198" y="533" type="curve" smooth="yes"/>
      <point x="110" y="516"/>
      <point x="53" y="454"/>
      <point x="53" y="355" type="curve" smooth="yes"/>
      <point x="53" y="253"/>
      <point x="114" y="193"/>
      <point x="200" y="178" type="curve" smooth="yes"/>
      <point x="234" y="172"/>
      <point x="278" y="172"/>
      <point x="301" y="172" type="curve" smooth="yes"/>
      <point x="388" y="172" type="line"/>
    </contour>
    <contour>
      <point x="40" y="0" type="line"/>
      <point x="182" y="0" type="line"/>
      <point x="302" y="200" type="line"/>
      <point x="162" y="200" type="line"/>
    </contour>
    <contour>
      <point x="286" y="277" type="line" smooth="yes"/>
      <point x="275" y="277"/>
      <point x="260" y="278"/>
      <point x="246" y="282" type="curve" smooth="yes"/>
      <point x="218" y="290"/>
      <point x="191" y="318"/>
      <point x="191" y="356" type="curve" smooth="yes"/>
      <point x="191" y="392"/>
      <point x="216" y="422"/>
      <point x="244" y="430" type="curve" smooth="yes"/>
      <point x="259" y="434"/>
      <point x="274" y="435"/>
      <point x="286" y="435" type="curve" smooth="yes"/>
      <point x="388" y="435" type="line"/>
      <point x="388" y="277" type="line"/>
    </contour>
  </outline>
</glyph>
<glyph name="dje-cy" format="2">
  <advance width="636"/>
  <unicode hex="0452"/>
  <outline>
    <contour>
      <point x="471" y="-234" type="curve" smooth="yes"/>
      <point x="540" y="-218"/>
      <point x="576" y="-167"/>
      <point x="576" y="-88" type="curve" smooth="yes"/>
      <point x="576" y="303" type="line" smooth="yes"/>
      <point x="576" y="348"/>
      <point x="576" y="556"/>
      <point x="365" y="556" type="curve" smooth="yes"/>
      <point x="287" y="556"/>
      <point x="229" y="528"/>
      <point x="190" y="484" type="curve"/>
      <point x="190" y="580" type="line"/>
      <point x="290" y="580" type="line"/>
      <point x="290" y="684" type="line"/>
      <point x="190" y="684" type="line"/>
      <point x="190" y="720" type="line"/>
      <point x="70" y="720" type="line"/>
      <point x="70" y="684" type="line"/>
      <point x="18" y="684" type="line"/>
      <point x="18" y="580" type="line"/>
      <point x="70" y="580" type="line"/>
      <point x="70" y="0" type="line"/>
      <point x="207" y="0" type="line"/>
      <point x="207" y="274" type="line" smooth="yes"/>
      <point x="207" y="408"/>
      <point x="275" y="428"/>
      <point x="322" y="428" type="curve" smooth="yes"/>
      <point x="438" y="428"/>
      <point x="438" y="304"/>
      <point x="438" y="255" type="curve" smooth="yes"/>
      <point x="438" y="-66" type="line" smooth="yes"/>
      <point x="438" y="-147"/>
      <point x="377" y="-136"/>
      <point x="346" y="-134" type="curve"/>
      <point x="346" y="-229" type="line"/>
      <point x="373" y="-236"/>
      <point x="424" y="-245"/>
    </contour>
  </outline>
</glyph>
<glyph name="nje-cy" format="2">
  <advance width="846"/>
  <unicode hex="045A"/>
  <outline>
    <contour>
      <point x="70" y="0" type="line"/>
      <point x="206" y="0" type="line"/>
      <point x="206" y="540" type="line"/>
      <point x="70" y="540" type="line"/>
    </contour>
    <contour>
      <point x="153" y="368" type="line"/>
      <point x="153" y="263" type="line"/>
      <point x="439" y="263" type="line"/>
      <point x="439" y="368" type="line"/>
    </contour>
    <contour>
      <point x="373" y="540" type="line"/>
      <point x="373" y="0" type="line"/>
      <point x="558" y="0" type="line" smooth="yes"/>
      <point x="588" y="0"/>
      <point x="635" y="1"/>
      <point x="661" y="7" type="curve" smooth="yes"/>
      <point x="755" y="29"/>
      <point x="806" y="87"/>
      <point x="806" y="183" type="curve" smooth="yes"/>
      <point x="806" y="283"/>
      <point x="755" y="340"/>
      <point x="660" y="362" type="curve" smooth="yes"/>
      <point x="634" y="368"/>
      <point x="588" y="368"/>
      <point x="558" y="368" type="curve" smooth="yes"/>
      <point x="509" y="368" type="line"/>
      <point x="509" y="540" type="line"/>
    </contour>
    <contour>
      <point x="509" y="263" type="line"/>
      <point x="573" y="263" type="line" smooth="yes"/>
      <point x="584" y="263"/>
      <point x="599" y="262"/>
      <point x="613" y="258" type="curve" smooth="yes"/>
      <point x="642" y="250"/>
      <point x="668" y="221"/>
      <point x="668" y="183" type="curve" smooth="yes"/>
      <point x="668" y="148"/>
      <point x="643" y="118"/>
      <point x="615" y="110" type="curve" smooth="yes"/>
      <point x="600" y="106"/>
      <point x="585" y="105"/>
      <point x="573" y="105" type="curve" smooth="yes"/>
      <point x="509" y="105" type="line"/>
    </contour>
  </outline>
</glyph>
<glyph name="dzhe-cy" format="2">
  <advance width="622"/>
  <unicode hex="045F"/>
  <outline>
    <contour>
      <point x="249" y="60" type="line"/>
      <point x="249" y="-120" type="line"/>
      <point x="385" y="-120" type="line"/>
      <point x="385" y="60" type="line"/>
    </contour>
    <component base="pe-cy" yScale="-1" yOffset="540"/>
  </outline>
</glyph>
<glyph name="gheupturn-cy" format="2">
  <advance width="485"/>
  <unicode hex="0491"/>
  <outline>
    <contour>
      <point x="70" y="0" type="line"/>
      <point x="206" y="0" type="line"/>
      <point x="206" y="413" type="line"/>
      <point x="460" y="413" type="line"/>
      <point x="460" y="660" type="line"/>
      <point x="324" y="660" type="line"/>
      <point x="324" y="540" type="line"/>
      <point x="70" y="540" type="line"/>
    </contour>
  </outline>
</glyph>
<glyph name="ustrait-cy" format="2">
  <advance width="568"/>
  <unicode hex="04AF"/>
  <outline>
    <contour>
      <point x="216" y="-180" type="line"/>
      <point x="352" y="-180" type="line"/>
      <point x="352" y="0" type="line"/>
      <point x="548" y="540" type="line"/>
      <point x="412" y="540" type="line"/>
      <point x="284" y="166" type="line"/>
      <point x="156" y="540" type="line"/>
      <point x="20" y="540" type="line"/>
      <point x="216" y="0" type="line"/>
    </contour>
  </outline>
</glyph>
<glyph name="Obarred-cy" format="2">
  <advance width="778"/>
  <unicode hex="04E8"/>
  <outline>
    <contour>
      <point x="145" y="292" type="line"/>
      <point x="625" y="292" type="line"/>
      <point x="625" y="428" type="line"/>
      <point x="145" y="428" type="line"/>
    </contour>
    <component base="O"/>
  </outline>
</glyph>
<glyph name="obarred-cy" format="2">
  <advance width="627"/>
  <unicode hex="04E9"/>
  <outline>
    <contour>
      <point x="101" y="323" type="line"/>
      <point x="101" y="218" type="line"/>
      <point x="527" y="218" type="line"/>
      <point x="527" y="323" type="line"/>
    </contour>
    <component base="o"/>
  </outline>
</glyph>
<glyph name="Germandbls" format="2">
  <advance width="647"/>
  <unicode hex="1E9E"/>
  <outline>
    <contour>
      <point x="70" y="0" type="line"/>
      <point x="207" y="0" type="line"/>
      <point x="207" y="463" type="line" smooth="yes"/>
      <point x="207" y="502"/>
      <point x="209" y="531"/>
      <point x="224" y="557" type="curve" smooth="yes"/>
      <point x="243" y="590"/>
      <point x="275" y="608"/>
      <point x="309" y="608" type="curve" smooth="yes"/>
      <point x="360" y="608"/>
      <point x="392" y="584"/>
      <point x="403" y="545" type="curve"/>
      <point x="283" y="411" type="line"/>
      <point x="325" y="307" type="line"/>
      <point x="396" y="320"/>
      <point x="448" y="276"/>
      <point x="448" y="219" type="curve" smooth="yes"/>
      <point x="448" y="152"/>
      <point x="403" y="118"/>
      <point x="336" y="118" type="curve" smooth="yes"/>
      <point x="305" y="118"/>
      <point x="280" y="126"/>
      <point x="263" y="133" type="curve"/>
      <point x="263" y="0" type="line"/>
      <point x="286" y="-10"/>
      <point x="312" y="-15"/>
      <point x="356" y="-15" type="curve" smooth="yes"/>
      <point x="504" y="-15"/>
      <point x="587" y="76"/>
      <point x="587" y="214" type="curve" smooth="yes"/>
      <point x="587" y="338"/>
      <point x="527" y="398"/>
      <point x="437" y="425" type="curve"/>
      <point x="545" y="545" type="line"/>
      <point x="524" y="657"/>
      <point x="438" y="735"/>
      <point x="309" y="735" type="curve" smooth="yes"/>
      <point x="192" y="735"/>
      <point x="116" y="682"/>
      <point x="85" y="586" type="curve" smooth="yes"/>
      <point x="73" y="549"/>
      <point x="70" y="505"/>
      <point x="70" y="460" type="curve" smooth="yes"/>
    </contour>
  </outline>
</glyph>
<glyph name="endash" format="2">
  <advance width="540"/>
  <unicode hex="2013"/>
  <outline>
    <contour>
      <point x="60" y="368" type="line"/>
      <point x="60" y="263" type="line"/>
      <point x="480" y="263" type="line"/>
      <point x="480" y="368" type="line"/>
    </contour>
  </outline>
</glyph>
<glyph name="bullet" format="2">
  <advance width="720"/>
  <unicode hex="2022"/>
  <outline>
    <contour>
      <point x="363" y="165" type="curve" smooth="yes"/>
      <point x="443" y="165"/>
      <point x="510" y="230"/>
      <point x="510" y="315" type="curve" smooth="yes"/>
      <point x="510" y="401"/>
      <point x="443" y="465"/>
      <point x="363" y="465" type="curve" smooth="yes"/>
      <point x="278" y="465"/>
      <point x="210" y="401"/>
      <point x="210" y="315" type="curve" smooth="yes"/>
      <point x="210" y="230"/>
      <point x="278" y="165"/>
    </contour>
  </outline>
</glyph>
<glyph name="fraction" format="2">
  <advance width="273"/>
  <unicode hex="2044"/>
  <outline>
    <contour>
      <point x="-66" y="0" type="line"/>
      <point x="416" y="669" type="line"/>
      <point x="339" y="727" type="line"/>
      <point x="-143" y="57" type="line"/>
    </contour>
  </outline>
</glyph>
<glyph name="zerosuperior" format="2">
  <advance width="476"/>
  <unicode hex="2070"/>
  <outline>
    <contour>
      <point x="238" y="259" type="curve" smooth="yes"/>
      <point x="135" y="259"/>
      <point x="70" y="325"/>
      <point x="70" y="438" type="curve" smooth="yes"/>
      <point x="70" y="550" type="line" smooth="yes"/>
      <point x="70" y="660"/>
      <point x="135" y="729"/>
      <point x="238" y="729" type="curve" smooth="yes"/>
      <point x="340" y="729"/>
      <point x="406" y="663"/>
      <point x="406" y="550" type="curve" smooth="yes"/>
      <point x="406" y="438" type="line" smooth="yes"/>
      <point x="406" y="326"/>
      <point x="345" y="259"/>
    </contour>
    <contour>
      <point x="238" y="649" type="curve" smooth="yes"/>
      <point x="187" y="649"/>
      <point x="158" y="613"/>
      <point x="158" y="550" type="curve" smooth="yes"/>
      <point x="158" y="438" type="line" smooth="yes"/>
      <point x="158" y="378"/>
      <point x="183" y="339"/>
      <point x="238" y="339" type="curve" smooth="yes"/>
      <point x="290" y="339"/>
      <point x="319" y="374"/>
      <point x="319" y="438" type="curve" smooth="yes"/>
      <point x="319" y="550" type="line" smooth="yes"/>
      <point x="319" y="610"/>
      <point x="292" y="649"/>
    </contour>
  </outline>
</glyph>
<glyph name="foursuperior" format="2">
  <advance width="422"/>
  <unicode hex="2074"/>
  <outline>
    <contour>
      <point x="372" y="420" type="line"/>
      <point x="332" y="420" type="line"/>
      <point x="332" y="532" type="line"/>
      <point x="246" y="532" type="line"/>
      <point x="246" y="420" type="line"/>
      <point x="148" y="420" type="line"/>
      <point x="290" y="720" type="line"/>
      <point x="192" y="720" type="line"/>
      <point x="50" y="420" type="line"/>
      <point x="50" y="340" type="line"/>
      <point x="246" y="340" type="line"/>
      <point x="246" y="270" type="line"/>
      <point x="332" y="270" type="line"/>
      <point x="332" y="340" type="line"/>
      <point x="372" y="340" type="line"/>
    </contour>
  </outline>
</glyph>
<glyph name="sixsuperior" format="2">
  <advance width="435"/>
  <unicode hex="2076"/>
  <outline>
    <contour>
      <point x="294" y="625" type="curve"/>
      <point x="355" y="686" type="line"/>
      <point x="322" y="717"/>
      <point x="282" y="729"/>
      <point x="238" y="729" type="curve" smooth="yes"/>
      <point x="134" y="727"/>
      <point x="70" y="664"/>
      <point x="70" y="550" type="curve" smooth="yes"/>
      <point x="70" y="439" type="line" smooth="yes"/>
      <point x="70" y="333"/>
      <point x="129" y="257"/>
      <point x="228" y="260" type="curve" smooth="yes"/>
      <point x="313" y="258"/>
      <point x="385" y="328"/>
      <point x="385" y="411" type="curve" smooth="yes"/>
      <point x="387" y="497"/>
      <point x="325" y="558"/>
      <point x="241" y="558" type="curve" smooth="yes"/>
      <point x="211" y="558"/>
      <point x="181" y="548"/>
      <point x="158" y="530" type="curve"/>
      <point x="158" y="568" type="line" smooth="yes"/>
      <point x="158" y="617"/>
      <point x="192" y="649"/>
      <point x="238" y="649" type="curve" smooth="yes"/>
      <point x="259" y="649"/>
      <point x="279" y="640"/>
    </contour>
    <contour>
      <point x="228" y="341" type="curve" smooth="yes"/>
      <point x="191" y="341"/>
      <point x="158" y="368"/>
      <point x="158" y="411" type="curve" smooth="yes"/>
      <point x="158" y="452"/>
      <point x="190" y="482"/>
      <point x="229" y="482" type="curve" smooth="yes"/>
      <point x="267" y="482"/>
      <point x="299" y="449"/>
      <point x="299" y="411" type="curve" smooth="yes"/>
      <point x="299" y="372"/>
      <point x="265" y="339"/>
    </contour>
  </outline>
</glyph>
<glyph name="eightsuperior" format="2">
  <advance width="436"/>
  <unicode hex="2078"/>
  <outline>
    <contour>
      <point x="72" y="599" type="curve" smooth="yes"/>
      <point x="71" y="564"/>
      <point x="83" y="538"/>
      <point x="107" y="510" type="curve"/>
      <point x="76" y="481"/>
      <point x="59" y="444"/>
      <point x="60" y="403" type="curve" smooth="yes"/>
      <point x="59" y="318"/>
      <point x="124" y="257"/>
      <point x="218" y="257" type="curve" smooth="yes"/>
      <point x="306" y="257"/>
      <point x="372" y="309"/>
      <point x="376" y="403" type="curve" smooth="yes"/>
      <point x="377" y="441"/>
      <point x="362" y="480"/>
      <point x="329" y="510" type="curve"/>
      <point x="353" y="539"/>
      <point x="364" y="563"/>
      <point x="364" y="599" type="curve" smooth="yes"/>
      <point x="364" y="676"/>
      <point x="306" y="729"/>
      <point x="218" y="729" type="curve" smooth="yes"/>
      <point x="133" y="729"/>
      <point x="75" y="682"/>
    </contour>
    <contour>
      <point x="218" y="649" type="curve" smooth="yes"/>
      <point x="248" y="650"/>
      <point x="273" y="634"/>
      <point x="273" y="599" type="curve" smooth="yes"/>
      <point x="271" y="565"/>
      <point x="251" y="549"/>
      <point x="218" y="549" type="curve" smooth="yes"/>
      <point x="188" y="549"/>
      <point x="162" y="565"/>
      <point x="162" y="599" type="curve" smooth="yes"/>
      <point x="162" y="629"/>
      <point x="181" y="647"/>
    </contour>
    <contour>
      <point x="218" y="468" type="curve" smooth="yes"/>
      <point x="256" y="468"/>
      <point x="285" y="448"/>
      <point x="286" y="403" type="curve" smooth="yes"/>
      <point x="285" y="361"/>
      <point x="260" y="338"/>
      <point x="218" y="338" type="curve" smooth="yes"/>
      <point x="175" y="338"/>
      <point x="151" y="360"/>
      <point x="150" y="403" type="curve" smooth="yes"/>
      <point x="151" y="445"/>
      <point x="175" y="468"/>
    </contour>
  </outline>
</glyph>
<glyph name="euro" format="2">
  <advance width="684"/>
  <unicode hex="20AC"/>
  <outline>
    <contour>
      <point x="654" y="681" type="line"/>
      <point x="598" y="717"/>
      <point x="531" y="735"/>
      <point x="460" y="735" type="curve" smooth="yes"/>
      <point x="247" y="735"/>
      <point x="115" y="586"/>
      <point x="110" y="360" type="curve" smooth="yes"/>
      <point x="115" y="139"/>
      <point x="247" y="-15"/>
      <point x="460" y="-15" type="curve" smooth="yes"/>
      <point x="529" y="-15"/>
      <point x="597" y="3"/>
      <point x="654" y="40" type="curve"/>
      <point x="583" y="151" type="line"/>
      <point x="548" y="125"/>
      <point x="504" y="112"/>
      <point x="460" y="113" type="curve" smooth="yes"/>
      <point x="325" y="111"/>
      <point x="256" y="211"/>
      <point x="254" y="360" type="curve" smooth="yes"/>
      <point x="256" y="507"/>
      <point x="322" y="608"/>
      <point x="460" y="608" type="curve" smooth="yes"/>
      <point x="504" y="608"/>
      <point x="548" y="595"/>
      <point x="582" y="569" type="curve"/>
    </contour>
    <contour>
      <point x="510" y="328" type="line"/>
      <point x="30" y="328" type="line"/>
      <point x="30" y="223" type="line"/>
      <point x="510" y="223" type="line"/>
    </contour>
    <contour>
      <point x="510" y="496" type="line"/>
      <point x="30" y="496" type="line"/>
      <point x="30" y="391" type="line"/>
      <point x="510" y="391" type="line"/>
    </contour>
  </outline>
</glyph>
<glyph name="hryvnia" format="2">
  <advance width="680"/>
  <unicode hex="20B4"/>
  <outline>
    <contour>
      <point x="60" y="340" type="line"/>
      <point x="60" y="235" type="line"/>
      <point x="620" y="235" type="line"/>
      <point x="620" y="340" type="line"/>
    </contour>
    <contour>
      <point x="60" y="486" type="line"/>
      <point x="61" y="381" type="line"/>
      <point x="620" y="381" type="line"/>
      <point x="620" y="486" type="line"/>
    </contour>
    <contour>
      <point x="583" y="194" type="curve"/>
      <point x="443" y="194" type="line"/>
      <point x="440" y="185"/>
      <point x="437" y="175"/>
      <point x="432" y="168" type="curve"/>
      <point x="411" y="135"/>
      <point x="380" y="114"/>
      <point x="343" y="114" type="curve" smooth="yes"/>
      <point x="322" y="114"/>
      <point x="292" y="119"/>
      <point x="272" y="134" type="curve"/>
      <point x="250" y="149"/>
      <point x="241" y="167"/>
      <point x="241" y="194" type="curve" smooth="yes"/>
      <point x="241" y="217"/>
      <point x="247" y="233"/>
      <point x="277" y="253" type="curve" smooth="yes"/>
      <point x="340" y="295"/>
      <point x="382" y="290"/>
      <point x="462" y="340" type="curve"/>
      <point x="164" y="340" type="line"/>
      <point x="160" y="336"/>
      <point x="155" y="331"/>
      <point x="150" y="326" type="curve" smooth="yes"/>
      <point x="113" y="288"/>
      <point x="97" y="243"/>
      <point x="97" y="190" type="curve" smooth="yes"/>
      <point x="97" y="124"/>
      <point x="136" y="50"/>
      <point x="204" y="15" type="curve" smooth="yes"/>
      <point x="239" y="-3"/>
      <point x="293" y="-15"/>
      <point x="336" y="-15" type="curve" smooth="yes"/>
      <point x="426" y="-15"/>
      <point x="507" y="24"/>
      <point x="549" y="96" type="curve"/>
      <point x="568" y="126"/>
      <point x="580" y="159"/>
    </contour>
    <contour>
      <point x="111" y="526" type="curve"/>
      <point x="255" y="526" type="line"/>
      <point x="257" y="537"/>
      <point x="260" y="548"/>
      <point x="267" y="561" type="curve"/>
      <point x="284" y="586"/>
      <point x="309" y="606"/>
      <point x="344" y="606" type="curve" smooth="yes"/>
      <point x="370" y="606"/>
      <point x="396" y="595"/>
      <point x="412" y="576" type="curve"/>
      <point x="425" y="563"/>
      <point x="431" y="545"/>
      <point x="431" y="526" type="curve" smooth="yes"/>
      <point x="431" y="516"/>
      <point x="430" y="501"/>
      <point x="423" y="489" type="curve" smooth="yes"/>
      <point x="401" y="448"/>
      <point x="276" y="407"/>
      <point x="226" y="381" type="curve"/>
      <point x="515" y="381" type="line"/>
      <point x="524" y="390"/>
      <point x="533" y="401"/>
      <point x="541" y="413" type="curve" smooth="yes"/>
      <point x="560" y="440"/>
      <point x="575" y="484"/>
      <point x="575" y="524" type="curve" smooth="yes"/>
      <point x="575" y="579"/>
      <point x="549" y="639"/>
      <point x="509" y="676" type="curve" smooth="yes"/>
      <point x="466" y="715"/>
      <point x="406" y="735"/>
      <point x="345" y="735" type="curve" smooth="yes"/>
      <point x="267" y="735"/>
      <point x="195" y="701"/>
      <point x="152" y="639" type="curve" smooth="yes"/>
      <point x="128" y="603"/>
      <point x="115" y="568"/>
    </contour>
  </outline>
</glyph>
